SplineFontDB: 3.0
FontName: boon-400
FullName: Boon Book
FamilyName: Boon
Weight: Book
Copyright: Copyright (C) 2013 Sungsit Sawaiwan <http://sungsit.com/> \n\nThis font is free software: you can redistribute it and/or modify it under the terms of the GNU General Public License as published by the Free Software Foundation, either version 3 of the License, or (at your option) any later version. \n\nThis font is distributed in the hope that it will be useful, but WITHOUT ANY WARRANTY; without even the implied warranty of MERCHANTABILITY or FITNESS FOR A PARTICULAR PURPOSE. See the GNU General Public License for more details. \n\nYou should have received a copy of the GNU General Public License along with this program. If not, see <http://www.gnu.org/licenses/>. \n\nAs a special exception, if you create a document which uses this font, and embed this font or unaltered portions of this font into the document, this font does not by itself cause the resulting document to be covered by the GNU General Public License. This exception does not however invalidate any other reasons why the document might be covered by the GNU General Public License. If you modify this font, you may extend this exception to your version of the font, but you are not obligated to do so. If you do not wish to do so, delete this exception statement from your version.
UComments: "Created with FontForge 2.0 <http://fontforge.org/>" 

StartChar: uni0E04
Encoding: 3588 3588 0
Width: 670
VWidth: 0
Flags: W
HStem: 0 21G<480 580> 230 45<291.979 367.842> 365 45<291.861 367.842> 535 85<235.906 424.094>
VStem: 80 100<271.864 481.619> 90 120<15.3619 137.15> 110 100<0.0914307 268.59> 375 45<282.158 357.842> 480 100<0 481.388>
LayerCount: 2
Fore
SplineSet
330 410 m 0xf980
 380 410 420 370 420 320 c 0
 420 270 380 230 330 230 c 0
 291 230 258 255 245 289 c 1
 221 243 210 179 210 120 c 2xf580
 210 -10 l 1xf380
 210 -10 91 -6 90 30 c 1xf580
 90 30 110 79 110 140 c 0xf380
 110 242 80 265 80 400 c 0
 80 537 184 620 330 620 c 0
 476 620 580 537 580 400 c 2
 580 0 l 1
 480 0 l 1
 480 400 l 2
 480 482 421 535 330 535 c 0
 239 535 180 482 180 400 c 0
 180 343 186 305 192 271 c 1
 212 346 258 410 330 410 c 0xf980
330 365 m 0
 305 365 285 345 285 320 c 0
 285 295 305 275 330 275 c 0
 355 275 375 295 375 320 c 0
 375 345 355 365 330 365 c 0
EndSplineSet
EndChar

StartChar: uni0E05
Encoding: 3589 3589 2
Width: 670
VWidth: 0
Flags: W
HStem: 0 21G<480 580> 230 45<291.979 367.842> 365 45<292.136 367.842> 600 20G<215.5 269.286 390.714 444.5>
VStem: 80 100<278.491 504.15> 90 120<15.3619 137.15> 110 100<0.0914307 268.59> 375 45<282.158 357.842> 480 100<0 503.038>
LayerCount: 2
Fore
SplineSet
330 410 m 0xf980
 380 410 420 370 420 320 c 0
 420 270 380 230 330 230 c 0
 291 230 258 255 245 289 c 1
 221 243 210 179 210 120 c 2xf580
 210 -10 l 1xf380
 210 -10 91 -6 90 30 c 1xf580
 90 30 110 79 110 140 c 0xf380
 110 242 80 285 80 420 c 0
 80 554 186 620 245 620 c 1
 330 550 l 1
 415 620 l 1
 474 620 580 554 580 420 c 2
 580 0 l 1
 480 0 l 1
 480 420 l 2
 480 505 425 530 425 530 c 1
 330 460 l 1
 235 530 l 1
 235 530 180 505 180 420 c 0
 180 359 186 316 193 276 c 1
 214 349 259 410 330 410 c 0xf980
330 365 m 0
 305 365 285 345 285 320 c 0
 285 295 305 275 330 275 c 0
 355 275 375 295 375 320 c 0
 375 345 355 365 330 365 c 0
EndSplineSet
EndChar

StartChar: uni0E14
Encoding: 3604 3604 3
Width: 670
VWidth: 0
Flags: W
HStem: 0 21G<480 580> 230 45<292.835 330> 365 45<292.158 367.842> 535 85<235.906 424.094>
VStem: 80 100<198.251 481.619> 110 100<0.0914307 60.6174 120 321.965> 240 45<282.158 357.842> 375 45<284.025 357.842> 480 100<0 481.388>
LayerCount: 2
Fore
SplineSet
330 410 m 0xf780
 380 410 420 370 420 320 c 0
 420 171 210 107 210 -10 c 1
 210 -10 91 -6 90 30 c 1
 90 30 110 79 110 140 c 0xf780
 110 242 80 265 80 400 c 0
 80 537 184 620 330 620 c 0
 476 620 580 537 580 400 c 2
 580 0 l 1
 480 0 l 1
 480 400 l 2
 480 482 421 535 330 535 c 0
 239 535 180 482 180 400 c 0xfb80
 180 269 210 237 210 130 c 2
 210 120 l 1
 246 160 296 190 330 230 c 1
 280 230 240 270 240 320 c 0
 240 370 280 410 330 410 c 0xf780
330 365 m 0
 305 365 285 345 285 320 c 0
 285 295 305 275 330 275 c 0
 355 275 375 295 375 320 c 0
 375 345 355 365 330 365 c 0
EndSplineSet
EndChar

StartChar: uni0E15
Encoding: 3605 3605 4
Width: 670
VWidth: 0
Flags: W
HStem: 0 21G<480 580> 230 45<292.835 330> 365 45<292.158 367.842> 600 20G<215.5 269.286 390.714 444.5>
VStem: 80 100<201.04 504.15> 110 100<0.0914307 60.6174 120 339.184> 240 45<282.158 357.842> 375 45<284.025 357.842> 480 100<0 503.038>
LayerCount: 2
Fore
SplineSet
330 410 m 0xf780
 380 410 420 370 420 320 c 0
 420 171 210 107 210 -10 c 1
 210 -10 91 -6 90 30 c 1
 90 30 110 79 110 140 c 0xf780
 110 242 80 285 80 420 c 0
 80 554 186 620 245 620 c 1
 330 550 l 1
 415 620 l 1
 474 620 580 554 580 420 c 2
 580 0 l 1
 480 0 l 1
 480 420 l 2
 480 505 425 530 425 530 c 1
 330 460 l 1
 235 530 l 1
 235 530 180 505 180 420 c 0xfb80
 180 289 210 237 210 130 c 2
 210 120 l 1
 246 160 296 190 330 230 c 1
 280 230 240 270 240 320 c 0
 240 370 280 410 330 410 c 0xf780
330 365 m 0
 305 365 285 345 285 320 c 0
 285 295 305 275 330 275 c 0
 355 275 375 295 375 320 c 0
 375 345 355 365 330 365 c 0
EndSplineSet
EndChar

StartChar: uni0E01
Encoding: 3585 3585 5
Width: 670
VWidth: 0
Flags: W
HStem: 0 21G<130 230 480 580> 400 20<279.299 310> 535 85<244.059 426.7>
VStem: 130 100<0 371.387> 480 100<0 481.05>
LayerCount: 2
Fore
SplineSet
230 0 m 1
 130 0 l 1
 130 290 l 2
 130 350 155 380 179 395 c 1
 80 420 l 1
 88 474 164 620 340 620 c 0
 481 620 580 535 580 400 c 2
 580 0 l 1
 480 0 l 1
 480 400 l 2
 480 482 426 535 340 535 c 0
 270 535 210 501 186 447 c 1
 310 420 l 1
 310 400 l 1
 310 400 230 396 230 290 c 2
 230 0 l 1
EndSplineSet
EndChar

StartChar: uni0E16
Encoding: 3606 3606 6
Width: 670
VWidth: 0
Flags: W
HStem: -10 60<196.518 283.482> 0 21G<480 580> 150 60<231.049 282.922> 400 20<279.299 310> 535 85<244.059 426.7>
VStem: 130 100<210 371.387> 130 60<57.0781 144.043> 290 60<56.5176 143.482> 480 100<0 481.05>
LayerCount: 2
Fore
SplineSet
240 210 m 0x7d80
 301 210 350 161 350 100 c 0
 350 39 301 -10 240 -10 c 0
 179 -10 130 39 130 100 c 2xbb80
 130 290 l 2
 130 350 155 380 179 395 c 1
 80 420 l 1
 88 474 164 620 340 620 c 0
 481 620 580 535 580 400 c 2
 580 0 l 1
 480 0 l 1
 480 400 l 2
 480 482 426 535 340 535 c 0
 270 535 210 501 186 447 c 1
 310 420 l 1
 310 400 l 1
 310 400 230 396 230 290 c 2
 230 210 l 1
 233 210 237 210 240 210 c 0x7d80
240 150 m 0
 212 150 190 128 190 100 c 0
 190 72 212 50 240 50 c 0
 268 50 290 72 290 100 c 0
 290 128 268 150 240 150 c 0
EndSplineSet
EndChar

StartChar: uni0E28
Encoding: 3624 3624 7
Width: 680
VWidth: 0
Flags: W
HStem: 0 21G<480 580> 230 45<291.979 367.842> 365 45<291.861 367.842> 535 85<235.906 424.261>
VStem: 80 100<271.864 481.619> 90 120<15.3619 137.15> 110 100<0.0914307 268.59> 375 45<282.158 357.842> 480 100<0 481.388> 540 80<564.849 680>
LayerCount: 2
Fore
SplineSet
330 365 m 0xf1
 305 365 285 345 285 320 c 0
 285 295 305 275 330 275 c 0
 355 275 375 295 375 320 c 0
 375 345 355 365 330 365 c 0xf1
330 410 m 0
 380 410 420 370 420 320 c 0
 420 270 380 230 330 230 c 0
 291 230 258 255 245 289 c 1
 221 243 210 179 210 120 c 2xf5
 210 -10 l 1xf3
 210 -10 91 -6 90 30 c 1xf5
 90 30 110 79 110 140 c 0xf3
 110 242 80 265 80 400 c 0
 80 537 184 620 330 620 c 0
 406 620 470 598 515 557 c 1
 533 583 540 615 540 680 c 1
 620 680 l 1xf940
 620 599 589 545 553 509 c 1
 570 478 580 442 580 400 c 2
 580 0 l 1
 480 0 l 1
 480 400 l 2
 480 482 421 535 330 535 c 0
 239 535 180 482 180 400 c 0xf980
 180 343 186 305 192 271 c 1
 212 346 258 410 330 410 c 0
EndSplineSet
Substitution2: "Ascent Substitute" uni0E28.alt
EndChar

StartChar: uni0E20
Encoding: 3616 3616 8
Width: 690
VWidth: 0
Flags: W
HStem: -10 60<136.518 223.482> 0 21G<500 600> 150 60<136.944 176> 400 20<313.136 340> 535 85<264.059 446.7>
VStem: 70 60<56.5176 144.124> 170 100<210.426 376.06> 230 60<56.5176 143.431> 500 100<0 481.05>
LayerCount: 2
Fore
SplineSet
600 400 m 2xbe80
 600 0 l 1
 500 0 l 1
 500 400 l 2
 500 482 446 535 360 535 c 0
 290 535 230 501 206 448 c 1
 340 420 l 1
 340 400 l 1
 340 400 270 393 270 300 c 2
 270 260 l 2x7e80
 270 199 290 175 290 100 c 0x7d80
 290 39 241 -10 180 -10 c 0
 119 -10 70 39 70 100 c 0
 70 159 117 208 176 210 c 1
 173 219 170 234 170 260 c 2
 170 300 l 2
 170 352 191 379 211 394 c 1
 100 420 l 1
 108 474 184 620 360 620 c 0
 501 620 600 535 600 400 c 2xbe80
180 150 m 0
 152 150 130 128 130 100 c 0
 130 72 152 50 180 50 c 0
 208 50 230 72 230 100 c 0xbd80
 230 128 208 150 180 150 c 0
EndSplineSet
EndChar

StartChar: uni0E48
Encoding: 3656 3656 9
Width: 0
VWidth: 0
Flags: W
HStem: 990 250
VStem: -200 80<1033 1240>
LayerCount: 2
Fore
SplineSet
-200 1240 m 1
 -120 1240 l 1
 -120 990 l 1
 -200 1033 l 1
 -200 1240 l 1
EndSplineSet
Position2: "Nikhahit & Tone High-Left" dx=-240 dy=0 dh=0 dv=0
Position2: "Mai Han-Akat & Tone High-Left" dx=-300 dy=0 dh=0 dv=0
Position2: "Tone High-Left" dx=-200 dy=0 dh=0 dv=0
MultipleSubs2: "Tone High-Low" uni0E48.low
EndChar

StartChar: uni0E34
Encoding: 3636 3636 10
Width: 0
VWidth: 0
Flags: W
HStem: 770 26<-471 -380.011> 860 70<-447.045 -272.841>
AnchorPoint: "thai_above" 187.82 630 mark 0
LayerCount: 2
Fore
SplineSet
-471 796 m 1
 -387 794 -288 778 -176 728 c 1
 -217 798 -273 860 -370 860 c 0
 -422 860 -460 836 -471 796 c 1
-560 770 m 1
 -560 829 -502 930 -370 930 c 0
 -189 930 -110 753 -110 670 c 1
 -296 760 -439 770 -560 770 c 1
EndSplineSet
Substitution2: "Thai Tone & Vowel Above-Narrow" uni0E34.narrow
Position2: "Vowel Above-Left" dx=-140 dy=0 dh=0 dv=0
EndChar

StartChar: uni0E38
Encoding: 3640 3640 11
Width: 0
VWidth: 0
Flags: W
HStem: -240 50<-225.156 -190> -110 50<-226 -154>
VStem: -280 50<-186 -114> -190 90<-330 -240> -150 50<-186.844 -114.844>
LayerCount: 2
Fore
SplineSet
-190 -240 m 1xf0
 -240 -240 -280 -200 -280 -150 c 0
 -280 -100 -240 -60 -190 -60 c 0xf0
 -140 -60 -100 -100 -100 -150 c 2xe8
 -100 -330 l 1
 -190 -330 l 1
 -190 -240 l 1xf0
-190 -110 m 0
 -212 -110 -230 -128 -230 -150 c 0
 -230 -172 -212 -190 -190 -190 c 0xf0
 -168 -190 -150 -172 -150 -150 c 0xe8
 -150 -128 -168 -110 -190 -110 c 0
EndSplineSet
Position2: "Vowel Below-Low" dx=0 dy=-200 dh=0 dv=0
EndChar

StartChar: uni0E35
Encoding: 3637 3637 12
Width: 0
VWidth: 0
Flags: W
HStem: 770 26<-472 -382.065> 860 70<-448.011 -277.829>
VStem: -190 80<784.099 940>
AnchorPoint: "thai_above" 187.82 630 mark 0
LayerCount: 2
Fore
SplineSet
-169 724 m 1
 -209 796 -267 860 -370 860 c 0
 -430 860 -462 834 -472 796 c 1
 -386 794 -283 777 -169 724 c 1
-190 970 m 1
 -110 940 l 1
 -110 670 l 1
 -296 760 -439 770 -560 770 c 1
 -560 832 -502 930 -370 930 c 0
 -263 930 -195 838 -159 768 c 1
 -174 816 -190 875 -190 910 c 2
 -190 970 l 1
EndSplineSet
Substitution2: "Thai Tone & Vowel Above-Narrow" uni0E35.narrow
Position2: "Vowel Above-Left" dx=-140 dy=0 dh=0 dv=0
EndChar

StartChar: uni0E48.low
Encoding: 63237 63237 13
Width: 0
VWidth: 0
Flags: W
HStem: 700 260<-200 -110>
VStem: -200 90<700 960>
AnchorPoint: "thai_above" 187.82 630 mark 0
LayerCount: 2
Fore
SplineSet
-200 960 m 1
 -110 960 l 1
 -110 700 l 1
 -200 700 l 1
 -200 960 l 1
EndSplineSet
Position2: "Tone Low-Left" dx=-220 dy=0 dh=0 dv=0
Substitution2: "Tone Low-High" uni0E48
EndChar

StartChar: uni0E49.low
Encoding: 63238 63238 14
Width: 0
VWidth: 0
Flags: W
HStem: 700 60<-456.919 -372.061 -325 -221.406> 910 40<-389.396 -320.604>
VStem: -435 40<836.281 904.396> -315 40<835.948 904.396> -155 95<826.844 920>
AnchorPoint: "thai_above" 187.82 630 mark 0
LayerCount: 2
Fore
SplineSet
-355 950 m 0
 -311 950 -275 914 -275 870 c 0
 -275 806 -325 760 -325 760 c 1
 -310 760 l 2
 -227 760 -155 816 -155 920 c 1
 -60 920 l 1
 -60 790 -150 700 -310 700 c 2
 -435 700 l 2
 -473 700 -480 760 -480 760 c 1
 -415 760 l 2
 -401 760 -382 772 -368 791 c 1
 -406 797 -435 830 -435 870 c 0
 -435 914 -399 950 -355 950 c 0
-355 910 m 0
 -377 910 -395 892 -395 870 c 0
 -395 848 -377 830 -355 830 c 0
 -333 830 -315 848 -315 870 c 0
 -315 892 -333 910 -355 910 c 0
EndSplineSet
Substitution2: "Thai Tone & Vowel Above-Narrow" uni0E49.narrow
Substitution2: "Thai Special Tone for Asc" uni0E49
Position2: "Tone Low-Left" dx=-220 dy=0 dh=0 dv=0
Substitution2: "Tone Low-High" uni0E49
EndChar

StartChar: uni0E4A.low
Encoding: 63239 63239 15
Width: 0
VWidth: 0
Flags: W
HStem: 695 40<-415.527 -353.912> 700 45<-260 -232.151> 805 40<-416.437 -353.912> 890 50<-415.055 -342.208 -260 -227.629>
VStem: -480 60<736.243 852.721> -350 40<738.912 801.088> -215 55<773.343 883.292> -115 75<803.144 930>
AnchorPoint: "thai_above" 187.82 630 mark 0
LayerCount: 2
Fore
SplineSet
-260 890 m 1x7f
 -290 850 l 1
 -335 850 l 1
 -339 867 -358 890 -380 890 c 0
 -403 890 -421 867 -424 834 c 1
 -413 841 -399 845 -385 845 c 0
 -344 845 -310 811 -310 770 c 0
 -310 729 -344 695 -385 695 c 0xbf
 -441 695 -480 752 -480 820 c 0
 -480 888 -436 940 -380 940 c 0
 -344 940 -318 912 -308 893 c 1
 -280 940 l 1
 -260 940 l 2
 -204 940 -160 889 -160 820 c 0
 -160 803 -163 787 -168 773 c 1
 -141 791 -115 833 -115 930 c 1
 -40 930 l 1
 -40 761 -106 700 -260 700 c 1
 -260 745 l 1
 -238 745 -215 777 -215 820 c 0
 -215 863 -238 890 -260 890 c 1x7f
-385 805 m 0
 -404 805 -420 789 -420 770 c 0
 -420 751 -404 735 -385 735 c 0
 -366 735 -350 751 -350 770 c 0
 -350 789 -366 805 -385 805 c 0
EndSplineSet
Substitution2: "Thai Tone & Vowel Above-Narrow" uni0E4A.narrow
Substitution2: "Thai Special Tone for Asc" uni0E4A
Position2: "Tone Low-Left" dx=-200 dy=0 dh=0 dv=0
Substitution2: "Tone Low-High" uni0E4A
EndChar

StartChar: uni0E4B.low
Encoding: 63240 63240 16
Width: 0
VWidth: 0
Flags: W
HStem: 800 60<-330 -220 -140 -30>
VStem: -220 80<700 800 860 960>
AnchorPoint: "thai_above" 187.82 630 mark 0
LayerCount: 2
Fore
SplineSet
-220 960 m 1
 -140 960 l 1
 -140 860 l 1
 -30 860 l 1
 -30 800 l 1
 -140 800 l 1
 -140 700 l 1
 -220 700 l 1
 -220 800 l 1
 -330 800 l 1
 -330 860 l 1
 -220 860 l 1
 -220 960 l 1
EndSplineSet
Position2: "Tone Low-Left" dx=-230 dy=0 dh=0 dv=0
Substitution2: "Tone Low-High" uni0E4B
EndChar

StartChar: uni0E4C.low
Encoding: 63241 63241 17
Width: 0
VWidth: 0
Flags: W
HStem: 690 40<-275.879 -213.402>
VStem: -320 40<734.103 795.185> -210 40<733.729 796.426> -184 84<901.671 950>
AnchorPoint: "thai_above" 187.82 630 mark 0
LayerCount: 2
Fore
SplineSet
-244 800 m 0xe0
 -264 800 -280 784 -280 765 c 0
 -280 746 -264 730 -244 730 c 0
 -225 730 -210 746 -210 765 c 0
 -210 784 -225 800 -244 800 c 0xe0
-184 950 m 1xd0
 -100 950 l 1xd0
 -100 886 -160 859 -201 826 c 1
 -182 813 -170 790 -170 765 c 0xe0
 -170 724 -203 690 -244 690 c 0
 -286 690 -320 724 -320 765 c 0
 -320 862 -184 883 -184 950 c 1xd0
EndSplineSet
Position2: "Tone Low-Left" dx=-140 dy=0 dh=0 dv=0
Substitution2: "Tone Low-High" uni0E4C
EndChar

StartChar: uni0E10.descless
Encoding: 63232 63232 18
Width: 600
VWidth: 0
Flags: W
HStem: 130 55<160.292 240.072> 275 55<160.292 239.455> 400 45<180 323.043> 540 70<492.371 540> 550 70<227.131 418.692>
VStem: 100 55<190.292 269.708> 380 100<109 373.959>
LayerCount: 2
Fore
SplineSet
80 400 m 1xee
 80 535 190 620 310 620 c 0xee
 394 620 435 590 470 560 c 1
 478 574 509 610 540 610 c 1
 540 540 l 1xf6
 509 540 482 505 470 485 c 1
 432 523 384 550 310 550 c 0
 232 550 183 497 180 445 c 1
 370 445 480 436 480 320 c 2
 480 60 l 2
 480 15 404 -10 360 -10 c 1
 350 84 326 154 295 200 c 1
 283 159 245 130 200 130 c 0
 145 130 100 175 100 230 c 0
 100 285 145 330 200 330 c 0
 285 330 350 231 380 109 c 1
 380 320 l 2
 380 396 317 400 80 400 c 1xee
200 275 m 0
 175 275 155 255 155 230 c 0
 155 205 175 185 200 185 c 0
 225 185 245 205 245 230 c 0
 245 255 225 275 200 275 c 0
EndSplineSet
EndChar

StartChar: uni0E0D.descless
Encoding: 63247 63247 19
Width: 930
VWidth: 0
Flags: W
HStem: -20 85<595.595 724.405> -10 60<196.518 283.482> 150 60<231.049 282.922> 400 20<279.299 310> 535 85<244.059 426.7> 580 20G<740 840>
VStem: 130 100<210 371.387> 130 60<57.0781 144.043> 290 60<56.5176 143.482> 480 100<81.457 481.05> 740 100<81.457 600>
LayerCount: 2
Fore
SplineSet
240 150 m 0x71e0
 212 150 190 128 190 100 c 0
 190 72 212 50 240 50 c 0
 268 50 290 72 290 100 c 0
 290 128 268 150 240 150 c 0x71e0
240 210 m 2
 301 210 350 161 350 100 c 0
 350 39 301 -10 240 -10 c 0
 179 -10 130 39 130 100 c 2x79e0
 130 290 l 2
 130 350 155 380 179 395 c 1
 80 420 l 1
 88 474 164 620 340 620 c 0x7ae0
 481 620 580 535 580 400 c 2
 580 130 l 2
 580 97 605 65 660 65 c 0
 715 65 740 97 740 130 c 2
 740 600 l 1
 840 600 l 1xb6e0
 840 130 l 2
 840 92 812 -20 660 -20 c 0
 508 -20 480 92 480 130 c 2
 480 400 l 2
 480 482 426 535 340 535 c 0
 270 535 210 501 186 447 c 1
 310 420 l 1
 310 400 l 1
 310 400 230 396 230 290 c 2
 230 210 l 1xbae0
 240 210 l 2
EndSplineSet
EndChar

StartChar: uni0E36
Encoding: 3638 3638 20
Width: 0
VWidth: 0
Flags: W
HStem: 770 26<-471 -380.011> 860 70<-447.045 -272.955> 915 45<-228.494 -152.158>
VStem: -145 45<831.528 907.842>
AnchorPoint: "thai_above" 187.82 630 mark 0
LayerCount: 2
Fore
SplineSet
-471 796 m 1xd0
 -387 794 -288 778 -176 728 c 1
 -217 798 -273 860 -370 860 c 0
 -422 860 -460 836 -471 796 c 1xd0
-190 960 m 0xb0
 -140 960 -100 920 -100 870 c 0
 -100 836 -119 807 -146 791 c 1
 -122 747 -110 702 -110 670 c 1
 -296 760 -439 770 -560 770 c 1
 -560 829 -502 930 -370 930 c 0xd0
 -333 930 -300 922 -271 910 c 1
 -256 940 -225 960 -190 960 c 0xb0
-190 915 m 0xb0
 -215 915 -235 895 -235 870 c 0
 -235 845 -215 825 -190 825 c 0
 -165 825 -145 845 -145 870 c 0
 -145 895 -165 915 -190 915 c 0xb0
EndSplineSet
Substitution2: "Thai Tone & Vowel Above-Narrow" uni0E36.narrow
Position2: "Vowel Above-Left" dx=-140 dy=0 dh=0 dv=0
EndChar

StartChar: uni0E37
Encoding: 3639 3639 21
Width: 0
VWidth: 0
Flags: W
HStem: 760 26<-472 -382.065> 850 70<-448.011 -320.746>
VStem: -320 70<913 970> -180 70<751.623 930>
AnchorPoint: "thai_above" 187.82 630 mark 0
LayerCount: 2
Fore
SplineSet
-169 714 m 1
 -209 786 -267 850 -370 850 c 0
 -430 850 -462 824 -472 786 c 1
 -386 784 -283 767 -169 714 c 1
-180 960 m 1
 -110 930 l 1
 -110 660 l 1
 -296 750 -439 760 -560 760 c 1
 -560 822 -502 920 -370 920 c 0
 -352 920 -336 917 -320 913 c 1
 -320 1000 l 1
 -250 970 l 1
 -250 876 l 1
 -201 837 -169 780 -150 737 c 1
 -163 787 -180 860 -180 900 c 2
 -180 960 l 1
EndSplineSet
Substitution2: "Thai Tone & Vowel Above-Narrow" uni0E37.narrow
Position2: "Vowel Above-Left" dx=-140 dy=0 dh=0 dv=0
EndChar

StartChar: uni0E2D
Encoding: 3629 3629 22
Width: 650
VWidth: 0
Flags: W
HStem: -20 90<221.789 422.394> 170 55<191.104 238.216> 325 55<151.371 238.629> 535 85<218.298 411.702>
VStem: 70 100<420 489.937> 90 100<102.805 170> 90 55<230.957 318.216> 245 55<231.371 318.629> 460 100<107 489.937>
LayerCount: 2
Fore
SplineSet
195 380 m 0xf380
 253 380 300 333 300 275 c 0
 300 217 253 170 195 170 c 0
 193 170 192 170 190 170 c 1
 190 160 l 2xf580
 190 95 246 70 325 70 c 0
 404 70 460 105 460 170 c 2
 460 420 l 2
 460 481 413 535 315 535 c 0
 217 535 170 481 170 420 c 1
 70 420 l 1xf980
 70 535 164 620 315 620 c 0
 466 620 560 535 560 420 c 2
 560 170 l 2
 560 34 457 -20 325 -20 c 0
 193 -20 90 24 90 160 c 2xf580
 90 275 l 2
 90 333 137 380 195 380 c 0xf380
195 325 m 0
 167 325 145 303 145 275 c 0xf380
 145 247 167 225 195 225 c 0
 223 225 245 247 245 275 c 0
 245 303 223 325 195 325 c 0
EndSplineSet
EndChar

StartChar: uni0E4D
Encoding: 3661 3661 23
Width: 0
VWidth: 0
Flags: W
HStem: 690 65<-231.402 -128.598> 885 65<-231.402 -128.598>
VStem: -310 65<768.598 871.402> -115 65<768.598 871.402>
AnchorPoint: "thai_above" 187.82 630 mark 0
LayerCount: 2
Fore
SplineSet
-180 885 m 0
 -216 885 -245 856 -245 820 c 0
 -245 784 -216 755 -180 755 c 0
 -144 755 -115 784 -115 820 c 0
 -115 856 -144 885 -180 885 c 0
-180 950 m 0
 -108 950 -50 892 -50 820 c 0
 -50 748 -108 690 -180 690 c 0
 -252 690 -310 748 -310 820 c 0
 -310 892 -252 950 -180 950 c 0
EndSplineSet
Position2: "Vowel Above-Left" dx=-220 dy=0 dh=0 dv=0
EndChar

StartChar: uni0E33
Encoding: 3635 3635 24
Width: 550
VWidth: 0
Flags: W
HStem: 0 21G<360 460> 535 85<171.374 318.626> 690 65<-231.402 -128.598> 885 65<-231.402 -128.598>
VStem: -310 65<768.598 871.402> -115 65<768.598 871.402> 30 100<400 492.172> 360 100<0 492.172>
LayerCount: 2
Fore
SplineSet
360 400 m 2
 360 472 329 535 245 535 c 0
 161 535 130 472 130 400 c 1
 30 400 l 1
 30 537 119 620 245 620 c 0
 371 620 460 537 460 400 c 2
 460 0 l 1
 360 0 l 1
 360 400 l 2
-180 885 m 0
 -216 885 -245 856 -245 820 c 0
 -245 784 -216 755 -180 755 c 0
 -144 755 -115 784 -115 820 c 0
 -115 856 -144 885 -180 885 c 0
-180 950 m 0
 -108 950 -50 892 -50 820 c 0
 -50 748 -108 690 -180 690 c 0
 -252 690 -310 748 -310 820 c 0
 -310 892 -252 950 -180 950 c 0
EndSplineSet
MultipleSubs2: "Sara Am Decomposite" uni0E4D uni0E32
EndChar

StartChar: uni0E32
Encoding: 3634 3634 25
Width: 550
VWidth: 0
Flags: W
HStem: 0 21G<360 460> 535 85<171.374 318.626>
VStem: 30 100<400 492.172> 360 100<0 492.172>
LayerCount: 2
Fore
SplineSet
360 400 m 2
 360 472 329 535 245 535 c 0
 161 535 130 472 130 400 c 1
 30 400 l 1
 30 537 119 620 245 620 c 0
 371 620 460 537 460 400 c 2
 460 0 l 1
 360 0 l 1
 360 400 l 2
EndSplineSet
Substitution2: "Sara AA Substitute" uni0E45
EndChar

StartChar: uni0E25
Encoding: 3621 3621 26
Width: 650
VWidth: 0
Flags: W
HStem: -20 55<177.503 263.629> 135 55<176.038 263.629> 310 70<210.16 384.997> 535 85<224.605 415.395>
VStem: 70 90<171 261.735> 80 100<420 490.586> 270 55<41.3707 128.629> 450 110<15.3619 252.492> 460 100<281 490.586>
LayerCount: 2
Fore
SplineSet
220 190 m 0xfb
 278 190 325 143 325 85 c 0
 325 27 278 -20 220 -20 c 0
 147 -20 70 48 70 180 c 0xfb
 70 300 155 380 280 380 c 0
 366 380 427 338 460 281 c 1
 460 420 l 2
 460 481 418 535 320 535 c 0
 222 535 180 481 180 420 c 1
 80 420 l 1
 80 535 169 620 320 620 c 0
 471 620 560 535 560 420 c 2xf680
 560 30 l 2
 560 -6 450 -10 450 -10 c 1
 450 170 l 2
 450 238 401 310 300 310 c 0
 217 310 160 261 160 180 c 0
 160 177 160 174 160 171 c 1
 177 183 198 190 220 190 c 0xfb
220 135 m 0
 192 135 170 113 170 85 c 0
 170 57 192 35 220 35 c 0
 248 35 270 57 270 85 c 0
 270 113 248 135 220 135 c 0
EndSplineSet
EndChar

StartChar: uni0E40
Encoding: 3648 3648 27
Width: 340
VWidth: 0
Flags: W
HStem: -10 60<156.518 243.482> 150 60<191.049 242.922> 580 20G<90 190>
VStem: 90 100<210 600> 90 60<57.0781 144.043> 250 60<56.5176 143.482>
LayerCount: 2
Fore
SplineSet
200 150 m 0xec
 172 150 150 128 150 100 c 0
 150 72 172 50 200 50 c 0
 228 50 250 72 250 100 c 0
 250 128 228 150 200 150 c 0xec
90 600 m 1xf4
 190 600 l 1
 190 210 l 1xf4
 193 210 197 210 200 210 c 0
 261 210 310 161 310 100 c 0
 310 39 261 -10 200 -10 c 0
 139 -10 90 39 90 100 c 2xec
 90 600 l 1xf4
EndSplineSet
EndChar

StartChar: uni0E41
Encoding: 3649 3649 28
Width: 630
VWidth: 0
Flags: W
HStem: -10 60<156.518 243.482 446.518 533.482> 150 60<191.049 242.922 481.049 532.922> 580 20G<90 190 380 480>
VStem: 90 100<210 600> 90 60<57.0781 144.043> 250 60<56.5176 143.482> 380 100<210 600> 380 60<57.0781 144.043> 540 60<56.5176 143.482>
LayerCount: 2
Fore
SplineSet
490 150 m 0xe580
 462 150 440 128 440 100 c 0
 440 72 462 50 490 50 c 0
 518 50 540 72 540 100 c 0
 540 128 518 150 490 150 c 0xe580
380 600 m 1xe680
 480 600 l 1
 480 210 l 1xe680
 483 210 487 210 490 210 c 0
 551 210 600 161 600 100 c 0
 600 39 551 -10 490 -10 c 0
 429 -10 380 39 380 100 c 2xe580
 380 600 l 1xe680
200 150 m 0
 172 150 150 128 150 100 c 0xec80
 150 72 172 50 200 50 c 0
 228 50 250 72 250 100 c 0
 250 128 228 150 200 150 c 0
90 600 m 1xf480
 190 600 l 1
 190 210 l 1xf480
 193 210 197 210 200 210 c 0
 261 210 310 161 310 100 c 0
 310 39 261 -10 200 -10 c 0
 139 -10 90 39 90 100 c 2xec80
 90 600 l 1xf480
EndSplineSet
EndChar

StartChar: uni0E2A
Encoding: 3626 3626 29
Width: 660
VWidth: 0
Flags: W
HStem: -20 55<177.503 263.629> 135 55<176.038 263.629> 310 70<210.16 384.997> 535 85<224.605 415.827>
VStem: 70 90<171 261.735> 80 100<420 490.586> 270 55<41.3707 128.629> 450 110<15.3619 252.492> 460 100<281 492.107> 520 80<565.828 680>
LayerCount: 2
Fore
SplineSet
220 135 m 0xf2
 192 135 170 113 170 85 c 0
 170 57 192 35 220 35 c 0
 248 35 270 57 270 85 c 0
 270 113 248 135 220 135 c 0xf2
220 190 m 0
 278 190 325 143 325 85 c 0
 325 27 278 -20 220 -20 c 0
 147 -20 70 48 70 180 c 0
 70 300 155 380 280 380 c 0
 366 380 427 338 460 281 c 1
 460 420 l 2xfa80
 460 481 418 535 320 535 c 0
 222 535 180 481 180 420 c 1
 80 420 l 1
 80 535 169 620 320 620 c 0
 396 620 457 598 498 562 c 1
 514 587 520 619 520 680 c 1
 600 680 l 1xf640
 600 602 571 549 537 513 c 1
 552 486 560 454 560 420 c 2xf280
 560 30 l 2
 560 -6 450 -10 450 -10 c 1
 450 170 l 2
 450 238 401 310 300 310 c 0
 217 310 160 261 160 180 c 2
 160 171 l 1xfb
 177 183 198 190 220 190 c 0
EndSplineSet
Substitution2: "Ascent Substitute" uni0E2A.alt
EndChar

StartChar: uni0E2E
Encoding: 3630 3630 30
Width: 660
VWidth: 0
Flags: W
HStem: -20 90<221.789 422.394> 170 55<191.104 238.216> 325 55<151.371 238.629> 535 85<218.298 412.716>
VStem: 70 100<420 489.937> 90 100<102.805 170> 90 55<230.957 318.216> 245 55<231.371 318.629> 460 100<107 489.937> 520 80<565.189 680>
LayerCount: 2
Fore
SplineSet
195 325 m 0xf3
 167 325 145 303 145 275 c 0
 145 247 167 225 195 225 c 0
 223 225 245 247 245 275 c 0
 245 303 223 325 195 325 c 0xf3
195 380 m 0
 253 380 300 333 300 275 c 0
 300 217 253 170 195 170 c 2
 190 170 l 1
 190 160 l 2
 190 95 246 70 325 70 c 0
 404 70 460 105 460 170 c 2
 460 420 l 2xf580
 460 481 413 535 315 535 c 0
 217 535 170 481 170 420 c 1
 70 420 l 1
 70 535 164 620 315 620 c 0
 392 620 455 598 497 561 c 1
 514 586 520 618 520 680 c 1
 600 680 l 1xf940
 600 602 571 548 536 512 c 1
 552 485 560 454 560 420 c 2
 560 170 l 2
 560 34 457 -20 325 -20 c 0
 193 -20 90 24 90 160 c 2xf580
 90 275 l 2
 90 333 137 380 195 380 c 0
EndSplineSet
Substitution2: "Ascent Substitute" uni0E2E.alt
EndChar

StartChar: uni0E1D
Encoding: 3613 3613 31
Width: 740
VWidth: 0
Flags: W
HStem: 400 50<186.857 273.357> 550 60<187.625 273.1>
VStem: 80 100<69.2188 413 455.957 542.376> 280 50<456.643 542.347> 540 100<69.2188 840>
LayerCount: 2
Fore
SplineSet
540 840 m 1
 640 840 l 1
 640 600 l 1
 640 110 l 2
 640 70 637 40 614 20 c 0
 592 0 549 -10 470 -10 c 1
 360 217 l 1
 250 -10 l 1
 171 -10 128 0 106 20 c 0
 83 40 80 70 80 110 c 2
 80 440 l 2
 80 543 134 610 220 610 c 0
 291 610 330 557 330 500 c 0
 330 445 285 400 230 400 c 0
 212 400 195 405 180 413 c 1
 180 110 l 2
 180 87 184 74 194 68 c 1
 315 310 l 1
 405 310 l 1
 526 68 l 1
 536 74 540 87 540 110 c 2
 540 600 l 1
 540 840 l 1
230 550 m 0
 202 550 180 528 180 500 c 0
 180 472 202 450 230 450 c 0
 258 450 280 472 280 500 c 0
 280 528 258 550 230 550 c 0
EndSplineSet
EndChar

StartChar: uni0E1A
Encoding: 3610 3610 32
Width: 720
VWidth: 0
Flags: W
HStem: -20 90<306.875 493.125> 390 60<117.078 168.951> 550 60<116.518 203.482> 580 20G<530 630>
VStem: 50 60<456.518 543.482> 170 100<107 390> 210 60<455.957 542.922> 530 100<107 600>
LayerCount: 2
Fore
SplineSet
160 550 m 0xeb
 132 550 110 528 110 500 c 0
 110 472 132 450 160 450 c 0
 188 450 210 472 210 500 c 0
 210 528 188 550 160 550 c 0xeb
160 610 m 0
 221 610 270 561 270 500 c 2xeb
 270 170 l 2
 270 105 321 70 400 70 c 0
 479 70 530 105 530 170 c 2
 530 600 l 1
 630 600 l 1
 630 170 l 2
 630 34 532 -20 400 -20 c 0
 268 -20 170 34 170 170 c 2
 170 390 l 1xdd
 160 390 l 2
 99 390 50 439 50 500 c 0
 50 561 99 610 160 610 c 0
EndSplineSet
EndChar

StartChar: uni0E1B
Encoding: 3611 3611 33
Width: 730
VWidth: 0
Flags: W
HStem: -20 90<306.875 493.125> 390 60<117.078 168.951> 550 60<116.518 203.482>
VStem: 50 60<456.518 543.482> 170 100<107 390> 210 60<455.957 542.922> 530 100<107 840>
LayerCount: 2
Fore
SplineSet
530 840 m 1xfa
 630 840 l 1
 630 600 l 1
 630 170 l 2
 630 34 532 -20 400 -20 c 0
 268 -20 170 34 170 170 c 2
 170 390 l 1xfa
 160 390 l 2
 99 390 50 439 50 500 c 0
 50 561 99 610 160 610 c 0
 221 610 270 561 270 500 c 2xf6
 270 170 l 2
 270 105 321 70 400 70 c 0
 479 70 530 105 530 170 c 2
 530 600 l 1
 530 840 l 1xfa
160 550 m 0
 132 550 110 528 110 500 c 0
 110 472 132 450 160 450 c 0
 188 450 210 472 210 500 c 0xf6
 210 528 188 550 160 550 c 0
EndSplineSet
EndChar

StartChar: uni0E49
Encoding: 3657 3657 34
Width: 0
VWidth: 0
Flags: W
HStem: 1020 55<-332.614 -270.705 -230 -143.473> 1200 40<-281.088 -218.912>
VStem: -325 40<1133.96 1196.09> -215 40<1134.41 1196.09> -85 85<1132.85 1230>
LayerCount: 2
Fore
SplineSet
-250 1240 m 0
 -209 1240 -175 1206 -175 1165 c 0
 -175 1101 -230 1075 -230 1075 c 1
 -147 1075 -85 1126 -85 1230 c 1
 0 1230 l 1
 0 1100 -70 1020 -230 1020 c 2
 -310 1020 l 2
 -348 1020 -360 1075 -360 1075 c 1
 -315 1075 l 2
 -302 1075 -285 1081 -270 1093 c 1
 -301 1101 -325 1130 -325 1165 c 0
 -325 1206 -291 1240 -250 1240 c 0
-250 1200 m 0
 -269 1200 -285 1184 -285 1165 c 0
 -285 1146 -269 1130 -250 1130 c 0
 -231 1130 -215 1146 -215 1165 c 0
 -215 1184 -231 1200 -250 1200 c 0
EndSplineSet
Substitution2: "Thai Tone & Vowel Above-Narrow" uni0E49.narrow
Position2: "Nikhahit & Tone High-Left" dx=-210 dy=0 dh=0 dv=0
Position2: "Mai Han-Akat & Tone High-Left" dx=-260 dy=0 dh=0 dv=0
Position2: "Tone High-Left" dx=-180 dy=0 dh=0 dv=0
MultipleSubs2: "Tone High-Low" uni0E49.low
EndChar

StartChar: uni0E1C
Encoding: 3612 3612 35
Width: 730
VWidth: 0
Flags: W
HStem: 400 50<186.857 273.357> 550 60<187.625 273.1> 580 20G<540 640>
VStem: 80 100<69.2188 413 455.957 542.376> 280 50<456.643 542.347> 540 100<69.2188 600>
LayerCount: 2
Fore
SplineSet
220 610 m 0xdc
 291 610 330 557 330 500 c 0
 330 445 285 400 230 400 c 0
 212 400 195 405 180 413 c 1
 180 110 l 2
 180 87 184 74 194 68 c 1
 315 310 l 1
 405 310 l 1
 526 68 l 1
 536 74 540 87 540 110 c 2
 540 600 l 1
 640 600 l 1xbc
 640 110 l 2
 640 70 637 40 614 20 c 0
 592 0 549 -10 470 -10 c 1
 360 217 l 1
 250 -10 l 1
 171 -10 128 0 106 20 c 0
 83 40 80 70 80 110 c 2
 80 440 l 2
 80 543 134 610 220 610 c 0xdc
230 550 m 0xdc
 202 550 180 528 180 500 c 0
 180 472 202 450 230 450 c 0
 258 450 280 472 280 500 c 0
 280 528 258 550 230 550 c 0xdc
EndSplineSet
EndChar

StartChar: uni0E1E
Encoding: 3614 3614 36
Width: 770
VWidth: 0
Flags: W
HStem: 390 60<127.078 178.951> 550 60<126.518 213.482> 580 20G<580 680>
VStem: 60 60<456.518 543.482> 180 100<80 390> 220 60<455.957 542.922> 580 100<80 600>
LayerCount: 2
Fore
SplineSet
170 550 m 0xd6
 142 550 120 528 120 500 c 0
 120 472 142 450 170 450 c 0
 198 450 220 472 220 500 c 0
 220 528 198 550 170 550 c 0xd6
170 610 m 0
 231 610 280 561 280 500 c 2xd6
 280 80 l 1xda
 399 490 l 1
 461 490 l 1
 580 80 l 1
 580 600 l 1
 680 600 l 1
 680 60 l 2
 680 37 667 17 640 5 c 0
 613 -7 571 -10 540 -10 c 1
 430 380 l 1
 320 -10 l 1
 289 -10 247 -7 220 5 c 0xb6
 193 17 180 37 180 60 c 2
 180 390 l 1xba
 170 390 l 2
 109 390 60 439 60 500 c 0
 60 561 109 610 170 610 c 0
EndSplineSet
EndChar

StartChar: uni0E1F
Encoding: 3615 3615 37
Width: 780
VWidth: 0
Flags: W
HStem: 390 60<127.078 178.951> 550 60<126.518 213.482>
VStem: 60 60<456.518 543.482> 180 100<80 390> 220 60<455.957 542.922> 580 100<80 840>
LayerCount: 2
Fore
SplineSet
580 840 m 1xf4
 680 840 l 1
 680 600 l 1
 680 60 l 2
 680 37 667 17 640 5 c 0
 613 -7 571 -10 540 -10 c 1
 430 380 l 1
 320 -10 l 1
 289 -10 247 -7 220 5 c 0xec
 193 17 180 37 180 60 c 2
 180 390 l 1xf4
 170 390 l 2
 109 390 60 439 60 500 c 0
 60 561 109 610 170 610 c 0
 231 610 280 561 280 500 c 2xec
 280 80 l 1
 399 490 l 1
 461 490 l 1
 580 80 l 1
 580 600 l 1
 580 840 l 1xf4
170 550 m 0
 142 550 120 528 120 500 c 0
 120 472 142 450 170 450 c 0
 198 450 220 472 220 500 c 0
 220 528 198 550 170 550 c 0
EndSplineSet
EndChar

StartChar: uni0E30
Encoding: 3632 3632 38
Width: 540
VWidth: 0
Flags: W
HStem: 20 65<180.653 324.403> 215 45<109.694 180.306> 330 65<180.653 324.403> 525 45<109.694 180.306>
VStem: 60 45<139.367 210.306 449.367 520.306> 185 45<139.576 210.306 449.576 520.306> 385 85<149.239 240 459.239 550>
LayerCount: 2
Fore
SplineSet
145 570 m 0
 192 570 230 532 230 485 c 0
 230 450 209 420 179 407 c 1
 197 399 219 395 245 395 c 0
 332 395 385 469 385 550 c 1
 470 550 l 1
 470 434 402 330 245 330 c 0
 143 330 60 384 60 485 c 0
 60 532 98 570 145 570 c 0
145 525 m 0
 123 525 105 507 105 485 c 0
 105 463 123 445 145 445 c 0
 167 445 185 463 185 485 c 0
 185 507 167 525 145 525 c 0
145 260 m 0
 192 260 230 222 230 175 c 0
 230 140 209 110 179 97 c 1
 197 89 219 85 245 85 c 0
 332 85 385 159 385 240 c 1
 470 240 l 1
 470 124 402 20 245 20 c 0
 143 20 60 74 60 175 c 0
 60 222 98 260 145 260 c 0
145 215 m 0
 123 215 105 197 105 175 c 0
 105 153 123 135 145 135 c 0
 167 135 185 153 185 175 c 0
 185 197 167 215 145 215 c 0
EndSplineSet
EndChar

StartChar: uni0E43
Encoding: 3651 3651 39
Width: 400
VWidth: 0
Flags: W
HStem: -10 60<216.518 303.482> 150 60<251.049 302.922> 770 45<72.1579 147.842> 960 60<134.014 266.424>
VStem: 20 45<822.158 898.691> 150 100<210 694.126> 150 60<57.0781 144.043> 155 45<822.158 898.592> 290 70<815.148 935.761> 310 60<56.5176 143.482>
LayerCount: 2
Fore
SplineSet
150 600 m 2xfc
 150 737 290 793 290 880 c 0
 290 926 252 960 190 960 c 0
 167 960 147 955 132 947 c 1
 171 938 200 902 200 860 c 0xf980
 200 810 160 770 110 770 c 0
 60 770 20 810 20 860 c 0
 20 945 85 1020 190 1020 c 0
 299 1020 360 960 360 880 c 0
 360 768 250 728 250 600 c 2
 250 210 l 1xfc80
 260 210 l 2
 321 210 370 161 370 100 c 0
 370 39 321 -10 260 -10 c 0
 199 -10 150 39 150 100 c 2xfa40
 150 600 l 2xfc
110 905 m 0
 85 905 65 885 65 860 c 0
 65 835 85 815 110 815 c 0
 135 815 155 835 155 860 c 0
 155 885 135 905 110 905 c 0
260 150 m 0
 232 150 210 128 210 100 c 0
 210 72 232 50 260 50 c 0
 288 50 310 72 310 100 c 0xfa40
 310 128 288 150 260 150 c 0
EndSplineSet
EndChar

StartChar: uni0E44
Encoding: 3652 3652 40
Width: 400
VWidth: 0
Flags: W
HStem: -10 60<216.518 303.482> 150 60<251.049 302.922> 950 70<30 117.241>
VStem: 150 100<210 708.531> 150 60<57.0781 144.043> 310 60<56.5176 143.482>
LayerCount: 2
Fore
SplineSet
190 945 m 1xf4
 340 1020 l 1
 356 1020 390 988 390 940 c 0
 390 830 250 768 250 600 c 2
 250 210 l 1xf4
 260 210 l 2
 321 210 370 161 370 100 c 0
 370 39 321 -10 260 -10 c 0
 199 -10 150 39 150 100 c 2xec
 150 600 l 2
 150 772 324 872 339 949 c 1
 190 875 l 1
 190 875 106 950 30 950 c 1
 30 1020 l 1
 129 1020 190 945 190 945 c 1xf4
260 150 m 0
 232 150 210 128 210 100 c 0xec
 210 72 232 50 260 50 c 0
 288 50 310 72 310 100 c 0
 310 128 288 150 260 150 c 0
EndSplineSet
EndChar

StartChar: uni0E29
Encoding: 3625 3625 41
Width: 770
VWidth: 0
Flags: W
HStem: -20 90<306.875 493.125> 190 60<432.698 530> 390 60<117.078 168.951> 400 35<372.537 437.463> 550 60<116.518 203.482> 580 20G<530 630>
VStem: 50 60<456.518 543.482> 170 100<107 390> 210 60<455.957 542.922> 330 35<327.304 392.463> 445 35<327.253 392.463> 530 100<107 190 273 600> 685 75<300.529 380>
AnchorPoint: "thai_above" 927.82 630 basechar 0
LayerCount: 2
Fore
SplineSet
160 550 m 0xeaf8
 132 550 110 528 110 500 c 0
 110 472 132 450 160 450 c 0
 188 450 210 472 210 500 c 0
 210 528 188 550 160 550 c 0xeaf8
405 435 m 0xdb78
 446 435 480 401 480 360 c 0
 480 324 455 294 421 287 c 1
 442 261 479 251 530 250 c 1
 530 600 l 1
 630 600 l 1
 630 273 l 1
 661 293 682 327 685 380 c 1
 760 380 l 1
 759 305 707 238 630 208 c 1
 630 170 l 2
 630 34 532 -20 400 -20 c 0
 268 -20 170 34 170 170 c 2
 170 390 l 1xe778
 160 390 l 2
 99 390 50 439 50 500 c 0
 50 561 99 610 160 610 c 0
 221 610 270 561 270 500 c 2xeaf8
 270 170 l 2
 270 105 321 70 400 70 c 0
 479 70 530 105 530 170 c 2
 530 190 l 1
 462 192 330 236 330 360 c 0
 330 401 364 435 405 435 c 0xdb78
405 400 m 0xd278
 383 400 365 382 365 360 c 0
 365 338 383 320 405 320 c 0
 427 320 445 338 445 360 c 0
 445 382 427 400 405 400 c 0xd278
EndSplineSet
EndChar

StartChar: uni0E42
Encoding: 3650 3650 42
Width: 400
VWidth: 0
Flags: W
HStem: -10 60<216.518 303.482> 150 60<251.049 302.922> 960 60<104.502 252.297>
VStem: 150 100<210 789.176> 150 60<57.0781 144.043> 310 60<56.5176 143.482>
LayerCount: 2
Fore
SplineSet
0 860 m 1xf4
 0 942 66 1020 175 1020 c 0
 233 1020 271 991 290 970 c 1
 307 989 341 1010 370 1020 c 1
 370 940 l 1
 334 930 306 910 290 890 c 1
 267 923 242 960 175 960 c 0
 116 960 88 924 82 899 c 1
 191 891 250 820 250 600 c 2
 250 210 l 1xf4
 260 210 l 2
 321 210 370 161 370 100 c 0
 370 39 321 -10 260 -10 c 0
 199 -10 150 39 150 100 c 2xec
 150 600 l 2
 150 813 136 860 0 860 c 1xf4
260 150 m 0
 232 150 210 128 210 100 c 0xec
 210 72 232 50 260 50 c 0
 288 50 310 72 310 100 c 0
 310 128 288 150 260 150 c 0
EndSplineSet
EndChar

StartChar: uni0E21
Encoding: 3617 3617 43
Width: 660
VWidth: 0
Flags: W
HStem: -20 65<131.794 218.206> 145 65<132.632 178.896> 390 60<127.078 178.951> 550 60<126.518 213.482> 580 20G<470 570>
VStem: 60 65<51.7943 138.206 454.25 545.75> 180 100<210 390> 220 60<455.957 542.922> 225 65<51.7943 112.532> 470 100<90 600>
LayerCount: 2
Fore
SplineSet
170 550 m 0xf540
 142 550 120 528 120 500 c 0
 120 472 142 450 170 450 c 0
 198 450 220 472 220 500 c 0
 220 528 198 550 170 550 c 0xf540
470 600 m 1xed40
 570 600 l 1
 570 60 l 2
 570 15 513 -10 450 -10 c 1
 450 -10 403 80 289 113 c 1
 290 107 290 101 290 95 c 0xecc0
 290 31 239 -20 175 -20 c 0
 111 -20 60 31 60 95 c 0
 60 159 111 210 175 210 c 0
 177 210 178 210 180 210 c 1
 180 390 l 1
 177 390 173 390 170 390 c 0
 109 390 60 439 60 500 c 0
 60 561 109 610 170 610 c 0xf640
 231 610 280 561 280 500 c 2
 280 197 l 1
 364 178 430 134 470 90 c 1
 470 600 l 1xed40
175 145 m 0
 147 145 125 123 125 95 c 0
 125 67 147 45 175 45 c 0
 203 45 225 67 225 95 c 0
 225 123 203 145 175 145 c 0
EndSplineSet
EndChar

StartChar: uni0E06
Encoding: 3590 3590 44
Width: 690
VWidth: 0
Flags: W
HStem: -20 65<161.794 248.206> 145 65<161.794 221.056> 320 40<133.065 207.114> 450 40<132.638 207.114> 555 55<132.803 222.952> 580 20G<500 600>
VStem: 60 65<365.005 503.016> 90 65<51.7943 138.206> 215 40<367.886 442.114> 220 100<209 283.586> 255 65<51.7943 112.532> 350 80<388.52 547.869> 500 100<90 600>
LayerCount: 2
Fore
SplineSet
170 450 m 0xf298
 145 450 125 430 125 405 c 0
 125 380 145 360 170 360 c 0
 195 360 215 380 215 405 c 0
 215 430 195 450 170 450 c 0xf298
205 145 m 0
 177 145 155 123 155 95 c 0
 155 67 177 45 205 45 c 0
 233 45 255 67 255 95 c 0xf138
 255 123 233 145 205 145 c 0
500 600 m 1xf638
 600 600 l 1
 600 60 l 2
 600 15 543 -10 480 -10 c 1
 480 -10 433 80 319 113 c 1
 320 107 320 101 320 95 c 0xf638
 320 31 269 -20 205 -20 c 0
 141 -20 90 31 90 95 c 0
 90 159 141 210 205 210 c 0
 210 210 215 210 220 209 c 1xf558
 226 337 350 360 350 460 c 0
 350 495 346 523 323 550 c 1
 290 490 l 1
 240 490 l 1
 233 522 213 555 180 555 c 0
 137 555 118 516 115 470 c 1
 130 482 149 490 170 490 c 0
 217 490 255 452 255 405 c 0
 255 358 217 320 170 320 c 0
 99 320 60 382 60 460 c 0
 60 513 92 610 180 610 c 0
 222 610 253 583 272 552 c 1
 301 610 l 1
 329 610 l 1xfa98
 386 593 430 542 430 460 c 0
 430 338 320 308 320 200 c 2
 320 194 l 1
 399 175 461 132 500 90 c 1
 500 600 l 1xf638
EndSplineSet
EndChar

StartChar: uni0E31
Encoding: 3633 3633 45
Width: 0
VWidth: 0
Flags: W
HStem: 700 65<-289.347 -145.597> 895 45<-360.306 -289.694>
VStem: -410 45<819.367 890.306> -285 45<819.576 890.306> -85 85<829.239 920>
LayerCount: 2
Fore
SplineSet
-325 940 m 0
 -278 940 -240 902 -240 855 c 0
 -240 820 -261 790 -291 777 c 1
 -273 769 -251 765 -225 765 c 0
 -138 765 -85 839 -85 920 c 1
 0 920 l 1
 0 804 -68 700 -225 700 c 0
 -327 700 -410 754 -410 855 c 0
 -410 902 -372 940 -325 940 c 0
-325 895 m 0
 -347 895 -365 877 -365 855 c 0
 -365 833 -347 815 -325 815 c 0
 -303 815 -285 833 -285 855 c 0
 -285 877 -303 895 -325 895 c 0
EndSplineSet
Substitution2: "Thai Tone & Vowel Above-Narrow" uni0E31.narrow
Position2: "Vowel Above-Left" dx=-240 dy=0 dh=0 dv=0
EndChar

StartChar: uni0E4C
Encoding: 3660 3660 46
Width: 0
VWidth: 0
Flags: W
HStem: 980 40<-245.879 -183.402>
VStem: -290 40<1024.1 1085.18> -180 40<1023.73 1086.43> -154 84<1191.67 1240>
LayerCount: 2
Fore
SplineSet
-214 1090 m 0xe0
 -234 1090 -250 1074 -250 1055 c 0
 -250 1036 -234 1020 -214 1020 c 0
 -195 1020 -180 1036 -180 1055 c 0
 -180 1074 -195 1090 -214 1090 c 0xe0
-154 1240 m 1xd0
 -70 1240 l 1xd0
 -70 1176 -130 1149 -171 1116 c 1
 -152 1103 -140 1080 -140 1055 c 0xe0
 -140 1014 -173 980 -214 980 c 0
 -256 980 -290 1014 -290 1055 c 0
 -290 1152 -154 1173 -154 1240 c 1xd0
EndSplineSet
Position2: "Tone High-Left" dx=-140 dy=0 dh=0 dv=0
MultipleSubs2: "Tone High-Low" uni0E4C.low
EndChar

StartChar: uni0E39
Encoding: 3641 3641 47
Width: 0
VWidth: 0
Flags: W
HStem: -340 55<-277.479 -182.521> -240 50<-406 -359.612> -110 50<-406 -334>
VStem: -460 50<-186 -114> -360 80<-280.094 -239> -330 50<-186.844 -114.844> -180 80<-280.094 -70>
LayerCount: 2
Fore
SplineSet
-230 -340 m 0xfa
 -344 -340 -360 -275 -360 -250 c 2
 -360 -239 l 1xfa
 -363 -240 -367 -240 -370 -240 c 0
 -420 -240 -460 -200 -460 -150 c 0
 -460 -100 -420 -60 -370 -60 c 0
 -320 -60 -280 -100 -280 -150 c 2xf6
 -280 -250 l 2
 -280 -266 -265 -285 -230 -285 c 0
 -195 -285 -180 -266 -180 -250 c 2
 -180 -70 l 1
 -100 -70 l 1
 -100 -250 l 2
 -100 -275 -116 -340 -230 -340 c 0xfa
-370 -110 m 0
 -392 -110 -410 -128 -410 -150 c 0
 -410 -172 -392 -190 -370 -190 c 0
 -348 -190 -330 -172 -330 -150 c 0xf6
 -330 -128 -348 -110 -370 -110 c 0
EndSplineSet
Position2: "Vowel Below-Low" dx=0 dy=-200 dh=0 dv=0
EndChar

StartChar: uni0E03
Encoding: 3587 3587 48
Width: 690
VWidth: 0
Flags: W
HStem: -20 85<338.391 481.609> 320 40<133.065 207.114> 450 40<132.638 207.114> 555 55<132.803 222.952> 580 20G<500 600>
VStem: 60 65<365.005 503.016> 215 40<367.886 442.114> 220 100<84.515 283.586> 350 80<387.899 547.869> 500 100<84.515 600>
LayerCount: 2
Fore
SplineSet
170 450 m 0xe6c0
 145 450 125 430 125 405 c 0
 125 380 145 360 170 360 c 0
 195 360 215 380 215 405 c 0
 215 430 195 450 170 450 c 0xe6c0
180 610 m 0xf6c0
 222 610 253 583 272 552 c 1
 301 610 l 1
 329 610 l 1xf6c0
 386 593 430 542 430 460 c 0
 430 338 320 308 320 200 c 2
 320 130 l 2
 320 97 355 65 410 65 c 0
 465 65 500 97 500 130 c 2
 500 600 l 1
 600 600 l 1
 600 130 l 2
 600 92 568 -20 410 -20 c 0
 252 -20 220 92 220 130 c 2
 220 200 l 2xedc0
 220 336 350 358 350 460 c 0
 350 495 346 523 323 550 c 1
 290 490 l 1
 240 490 l 1
 233 522 213 555 180 555 c 0
 137 555 118 516 115 470 c 1
 130 482 149 490 170 490 c 0
 217 490 255 452 255 405 c 0
 255 358 217 320 170 320 c 0
 99 320 60 382 60 460 c 0
 60 513 92 610 180 610 c 0xf6c0
EndSplineSet
EndChar

StartChar: uni0E22
Encoding: 3618 3618 49
Width: 660
VWidth: 0
Flags: W
HStem: -20 85<214.88 439.814> 255 70<201.564 320> 400 50<196.951 283.357> 550 60<196.192 283.239> 580 20G<470 570>
VStem: 70 100<105.778 225.931> 70 80<371.71 454.505> 290 50<456.643 542.795> 470 100<92.9163 600>
LayerCount: 2
Fore
SplineSet
240 550 m 0xf180
 212 550 190 528 190 500 c 0
 190 472 212 450 240 450 c 0
 268 450 290 472 290 500 c 0
 290 528 268 550 240 550 c 0xf180
470 600 m 1xed80
 570 600 l 1
 570 80 l 2
 570 57 459 -20 320 -20 c 0
 179 -20 70 44 70 170 c 0xed80
 70 232 99 271 145 295 c 1
 95 326 70 376 70 440 c 0
 70 543 134 610 220 610 c 0
 304 610 340 548 340 500 c 0
 340 445 295 400 240 400 c 0
 201 400 167 422 151 455 c 1
 150 450 150 445 150 440 c 0xf380
 150 357 227 325 320 325 c 1
 320 255 l 1
 210 255 170 221 170 170 c 0
 170 95 244 65 320 65 c 0
 398 65 454 95 470 110 c 1
 470 600 l 1xed80
EndSplineSet
EndChar

StartChar: uni0E46
Encoding: 3654 3654 50
Width: 660
VWidth: 0
Flags: W
HStem: -290 90<310 402.568> 290 50<174.717 246> 420 50<173.314 246> 555 65<167.871 268.124>
VStem: 80 65<445.731 532.145> 250 50<344 416> 440 100<-165.608 543.753>
LayerCount: 2
Fore
SplineSet
210 470 m 0
 260 470 300 430 300 380 c 0
 300 330 260 290 210 290 c 0
 112 290 80 385 80 460 c 0
 80 524 119 620 220 620 c 0
 280 620 316 580 334 538 c 1
 393 620 l 1
 419 620 l 1
 494 600 540 532 540 450 c 2
 540 -100 l 2
 540 -217 457 -290 310 -290 c 1
 310 -200 l 1
 371 -200 440 -178 440 -100 c 2
 440 450 l 2
 440 488 436 527 410 550 c 1
 350 470 l 1
 285 470 l 1
 285 514 264 555 220 555 c 0
 170 555 145 508 145 460 c 0
 145 454 145 448 145 443 c 1
 162 460 185 470 210 470 c 0
210 420 m 0
 188 420 170 402 170 380 c 0
 170 358 188 340 210 340 c 0
 232 340 250 358 250 380 c 0
 250 402 232 420 210 420 c 0
EndSplineSet
EndChar

StartChar: uni0E47
Encoding: 3655 3655 51
Width: 0
VWidth: 0
Flags: W
HStem: 690 45<-287.483 -217.485> 780 20G<-363.061 -300> 830 35<-221.192 -167.274> 910 55<-423.263 -201.267>
VStem: -510 66<768.831 890.835> -260 36<772.786 827.105> -180 70<985.625 1050> -164 34<774.141 826.796>
LayerCount: 2
Fore
SplineSet
-180 1050 m 1xfe
 -110 1050 l 1xfe
 -110 978 -168 910 -240 910 c 2
 -370 910 l 2
 -418 910 -444 869 -444 830 c 0
 -444 794 -422 757 -382 751 c 1
 -350 800 l 1
 -300 800 l 1
 -300 772 -287 735 -240 735 c 0
 -230 735 -223 736 -216 739 c 1
 -241 748 -260 772 -260 800 c 0
 -260 836 -230 865 -194 865 c 0
 -159 865 -130 836 -130 800 c 0xfd
 -130 739 -172 690 -240 690 c 0
 -285 690 -319 712 -336 745 c 1
 -370 695 l 1
 -452 695 -510 758 -510 830 c 0
 -510 902 -452 965 -370 965 c 2
 -250 965 l 2
 -206 965 -180 1011 -180 1050 c 1xfe
-194 830 m 0
 -211 830 -224 817 -224 800 c 0
 -224 783 -211 770 -194 770 c 0
 -178 770 -164 783 -164 800 c 0xfd
 -164 817 -178 830 -194 830 c 0
EndSplineSet
Substitution2: "Thai Tone & Vowel Above-Narrow" uni0E47.narrow
Position2: "Vowel Above-Left" dx=-180 dy=0 dh=0 dv=0
EndChar

StartChar: uni0E0B
Encoding: 3595 3595 52
Width: 710
VWidth: 0
Flags: W
HStem: -20 85<338.391 481.609> 320 40<133.065 207.114> 450 40<132.638 207.114> 555 55<132.803 222.952>
VStem: 60 65<365.005 503.016> 215 40<367.886 442.114> 220 100<84.515 283.574> 500 100<84.515 402.737> 540 100<574.989 680>
LayerCount: 2
Fore
SplineSet
500 370 m 2xfb
 500 390 461 414 428 430 c 1
 411 332 320 298 320 200 c 2
 320 130 l 2
 320 97 355 65 410 65 c 0
 465 65 500 97 500 130 c 2
 500 370 l 2xfb
180 610 m 0
 222 610 253 583 272 552 c 1
 301 610 l 1
 329 610 l 1
 376 596 414 559 426 500 c 1
 486 522 540 579 540 680 c 1
 640 680 l 1xfc80
 640 552 572 488 478 463 c 1
 529 443 600 408 600 370 c 2
 600 130 l 2
 600 92 568 -20 410 -20 c 0
 252 -20 220 92 220 130 c 2
 220 200 l 2xfb
 220 336 350 358 350 460 c 0
 350 495 346 523 323 550 c 1
 290 490 l 1
 240 490 l 1
 233 522 213 555 180 555 c 0
 137 555 118 516 115 470 c 1
 130 482 149 490 170 490 c 0
 217 490 255 452 255 405 c 0xfc
 255 358 217 320 170 320 c 0
 99 320 60 382 60 460 c 0
 60 513 92 610 180 610 c 0
170 450 m 0
 145 450 125 430 125 405 c 0
 125 380 145 360 170 360 c 0
 195 360 215 380 215 405 c 0
 215 430 195 450 170 450 c 0
EndSplineSet
Substitution2: "Ascent Substitute" uni0E0B.alt
EndChar

StartChar: uni0E02
Encoding: 3586 3586 53
Width: 660
VWidth: 0
Flags: W
HStem: -20 85<308.391 451.609> 350 40<118.483 192.114> 480 40<131.488 192.114> 550 60<138.32 274.171> 580 20G<470 570>
VStem: 60 50<395.153 496.568> 190 100<84.515 295.515> 200 40<397.886 472.114> 300 80<376.339 525.342> 470 100<84.515 600>
LayerCount: 2
Fore
SplineSet
210 610 m 0xf5c0
 327 610 380 530 380 460 c 0
 380 338 290 319 290 200 c 2
 290 130 l 2
 290 97 325 65 380 65 c 0
 435 65 470 97 470 130 c 2
 470 600 l 1
 570 600 l 1
 570 130 l 2
 570 92 538 -20 380 -20 c 0
 222 -20 190 92 190 130 c 2
 190 200 l 2xeec0
 190 336 300 344 300 460 c 0
 300 513 263 550 210 550 c 0
 177 550 149 538 131 517 c 1
 139 519 147 520 155 520 c 0
 202 520 240 482 240 435 c 0
 240 388 202 350 155 350 c 0
 95 350 60 395 60 455 c 0
 60 547 127 610 210 610 c 0xf5c0
155 480 m 0
 130 480 110 460 110 435 c 0
 110 410 130 390 155 390 c 0
 180 390 200 410 200 435 c 0xe5c0
 200 460 180 480 155 480 c 0
EndSplineSet
EndChar

StartChar: uni0E0A
Encoding: 3594 3594 54
Width: 680
VWidth: 0
Flags: W
HStem: -20 85<308.391 451.609> 350 40<118.483 192.114> 480 40<131.488 192.114> 550 60<138.32 275.023>
VStem: 60 50<395.153 496.568> 190 100<84.515 297.202> 200 40<397.886 472.114> 470 100<84.515 402.737> 510 100<575.445 680>
LayerCount: 2
Fore
SplineSet
570 370 m 2xf9
 570 130 l 2
 570 92 538 -20 380 -20 c 0
 222 -20 190 92 190 130 c 2
 190 200 l 2xfd
 190 336 300 344 300 460 c 0
 300 513 263 550 210 550 c 0
 177 550 149 538 131 517 c 1
 139 519 147 520 155 520 c 0
 202 520 240 482 240 435 c 0
 240 388 202 350 155 350 c 0
 95 350 60 395 60 455 c 0
 60 547 127 610 210 610 c 0
 308 610 361 554 376 494 c 1
 443 509 510 567 510 680 c 1
 610 680 l 1xfa80
 610 552 542 488 448 463 c 1
 499 443 570 408 570 370 c 2xf9
379 438 m 1
 369 335 290 312 290 200 c 2
 290 130 l 2
 290 97 325 65 380 65 c 0
 435 65 470 97 470 130 c 2
 470 370 l 2
 470 394 414 423 379 438 c 1
155 480 m 0
 130 480 110 460 110 435 c 0
 110 410 130 390 155 390 c 0
 180 390 200 410 200 435 c 0xfa
 200 460 180 480 155 480 c 0
EndSplineSet
Substitution2: "Ascent Substitute" uni0E0A.alt
EndChar

StartChar: uni0E19
Encoding: 3609 3609 55
Width: 690
VWidth: 0
Flags: W
HStem: -20 65<452.127 538.206> 390 60<117.078 168.951> 550 60<116.518 203.482> 580 20G<470 570>
VStem: 50 60<456.518 543.482> 170 100<84 390> 210 60<455.957 542.922> 380 65<50.957 92> 470 100<210 600> 545 65<51.7943 138.518>
LayerCount: 2
Fore
SplineSet
280 -10 m 1xd940
 217 -10 170 15 170 60 c 2
 170 390 l 1xdd40
 167 390 163 390 160 390 c 0
 99 390 50 439 50 500 c 0
 50 561 99 610 160 610 c 0
 221 610 270 561 270 500 c 2xeb
 270 84 l 1
 317 138 397 196 470 211 c 1
 470 600 l 1
 570 600 l 1
 570 210 l 1xdd80
 548 197 l 1
 585 178 610 139 610 95 c 0
 610 31 559 -20 495 -20 c 0
 432 -20 382 30 380 92 c 1
 320 48 280 -10 280 -10 c 1xd940
160 550 m 0xeb
 132 550 110 528 110 500 c 0
 110 472 132 450 160 450 c 0
 188 450 210 472 210 500 c 0
 210 528 188 550 160 550 c 0xeb
495 145 m 0
 467 145 445 123 445 95 c 0
 445 67 467 45 495 45 c 0
 523 45 545 67 545 95 c 0xc940
 545 123 523 145 495 145 c 0
EndSplineSet
EndChar

StartChar: uni0E23
Encoding: 3619 3619 56
Width: 570
VWidth: 0
Flags: W
HStem: -10 65<293.582 386.418> 165 65<293.582 359.216> 400 45<160 303.043> 540 70<472.371 520> 550 70<207.131 398.692>
VStem: 220 65<63.5821 156.418> 360 100<228 373.959> 395 65<63.758 156.242>
LayerCount: 2
Fore
SplineSet
60 400 m 1xee
 60 535 170 620 290 620 c 0xee
 374 620 415 590 450 560 c 1
 458 574 489 610 520 610 c 1
 520 540 l 1xf6
 489 540 462 505 450 485 c 1
 412 523 364 550 290 550 c 0
 212 550 163 497 160 445 c 1
 350 445 460 436 460 320 c 2xee
 460 110 l 2xed
 460 44 406 -10 340 -10 c 0
 274 -10 220 44 220 110 c 0
 220 176 274 230 340 230 c 0
 347 230 353 229 360 228 c 1
 360 320 l 2
 360 396 297 400 60 400 c 1xee
340 165 m 0
 310 165 285 140 285 110 c 0
 285 80 310 55 340 55 c 0
 370 55 395 80 395 110 c 0xe5
 395 140 370 165 340 165 c 0
EndSplineSet
EndChar

StartChar: uni0E07
Encoding: 3591 3591 57
Width: 560
VWidth: 0
Flags: W
HStem: 300 70<50 104.925> 390 60<317.078 368.951> 550 60<316.518 403.482>
VStem: 250 60<456.518 543.482> 370 100<55.84 390> 410 60<455.957 542.922>
LayerCount: 2
Fore
SplineSet
370 54 m 1xf8
 370 390 l 1xf8
 367 390 363 390 360 390 c 0
 299 390 250 439 250 500 c 0
 250 561 299 610 360 610 c 0
 421 610 470 561 470 500 c 2xf4
 470 60 l 2
 470 15 393 -10 330 -10 c 1
 204 209 99 300 50 300 c 1
 50 370 l 1
 147 370 246 262 370 54 c 1xf8
360 550 m 0
 332 550 310 528 310 500 c 0
 310 472 332 450 360 450 c 0
 388 450 410 472 410 500 c 0xf4
 410 528 388 550 360 550 c 0
EndSplineSet
EndChar

StartChar: uni0E0E
Encoding: 3598 3598 58
Width: 700
VWidth: 0
Flags: W
HStem: -300 60<182.208 304.612> -160 60<182.208 321.157> -10 60<136.518 223.482> 150 60<136.944 176> 400 20<313.136 340> 535 85<264.059 446.7>
VStem: 70 60<56.5176 144.124> 120 60<-235.334 -164.666> 170 100<210.426 376.06> 230 60<56.5176 143.431> 345 70<-128.125 -90> 500 100<-235 481.05>
LayerCount: 2
Fore
SplineSet
180 150 m 0xfd70
 152 150 130 128 130 100 c 0xfe30
 130 72 152 50 180 50 c 0
 208 50 230 72 230 100 c 0
 230 128 208 150 180 150 c 0xfd70
230 -240 m 0xfd70
 271 -240 305 -225 326 -188 c 1
 292 -171 259 -160 230 -160 c 0
 202 -160 180 -172 180 -200 c 0
 180 -228 202 -240 230 -240 c 0xfd70
600 0 m 1
 600 -240 l 2
 600 -278 511 -290 470 -290 c 1
 450 -270 418 -244 381 -220 c 1
 349 -270 297 -300 230 -300 c 0
 169 -300 120 -261 120 -200 c 0
 120 -139 169 -100 230 -100 c 0xfd70
 265 -100 304 -112 343 -129 c 1
 344 -117 345 -104 345 -90 c 1
 415 -90 l 1
 415 -116 412 -141 405 -164 c 1
 443 -187 476 -213 500 -235 c 1
 500 0 l 1
 500 400 l 2
 500 482 446 535 360 535 c 0
 290 535 230 501 206 448 c 1
 340 420 l 1
 340 400 l 1
 340 400 270 393 270 300 c 2
 270 260 l 2xfcb0
 270 199 290 175 290 100 c 0
 290 39 241 -10 180 -10 c 0xfd70
 119 -10 70 39 70 100 c 0
 70 159 117 208 176 210 c 1
 173 219 170 234 170 260 c 2
 170 300 l 2xfeb0
 170 352 191 379 211 394 c 1
 100 420 l 1
 108 474 184 620 360 620 c 0
 501 620 600 535 600 400 c 2
 600 0 l 1
EndSplineSet
Substitution2: "Descent Shorten" uni0E0E.shorten
EndChar

StartChar: uni0E2B
Encoding: 3627 3627 59
Width: 700
VWidth: 0
Flags: W
HStem: 0 21G<170 280 490 590> 390 60<117.078 168.951> 550 60<116.518 203.482 476.518 563.482>
VStem: 50 60<456.518 543.482> 170 110<0 167.408> 170 100<241 390> 210 60<455.957 542.922> 410 60<456.248 543.482> 490 100<0 362> 570 60<456.263 543.482>
LayerCount: 2
Fore
SplineSet
160 550 m 0xf3
 132 550 110 528 110 500 c 0
 110 472 132 450 160 450 c 0
 188 450 210 472 210 500 c 0
 210 528 188 550 160 550 c 0xf3
520 610 m 0
 581 610 630 561 630 500 c 0
 630 457 606 420 570 402 c 1xf540
 590 390 l 1
 590 0 l 1
 490 0 l 1
 490 362 l 1
 403 336 280 160 280 87 c 2
 280 0 l 1
 170 0 l 1xf980
 170 390 l 1xf5
 167 390 163 390 160 390 c 0
 99 390 50 439 50 500 c 0
 50 561 99 610 160 610 c 0
 221 610 270 561 270 500 c 2xf3
 270 241 l 1xf5
 296 286 368 380 452 413 c 1
 427 433 410 465 410 500 c 0
 410 561 459 610 520 610 c 0
520 550 m 0
 492 550 470 528 470 500 c 0
 470 472 492 450 520 450 c 0
 548 450 570 472 570 500 c 0
 570 528 548 550 520 550 c 0
EndSplineSet
EndChar

StartChar: uni0E3A
Encoding: 3642 3642 60
Width: 0
VWidth: 0
Flags: W
HStem: -210 140<-204.125 -95.8748>
VStem: -220 140<-194.125 -85.8748>
LayerCount: 2
Fore
SplineSet
-80 -140 m 0
 -80 -179 -111 -210 -150 -210 c 0
 -189 -210 -220 -179 -220 -140 c 0
 -220 -101 -189 -70 -150 -70 c 0
 -111 -70 -80 -101 -80 -140 c 0
EndSplineSet
Position2: "Vowel Below-Low" dx=0 dy=-200 dh=0 dv=0
EndChar

StartChar: uni0E53
Encoding: 3667 3667 61
Width: 850
VWidth: 0
Flags: W
HStem: -20 70<265.961 374.242> 0 21G<660 760> 190 70<266.51 374.242> 530 90<245.772 356.768>
VStem: 80 100<178.951 443.622> 390 70<65.7577 174.242> 660 100<0 503.591>
LayerCount: 2
Fore
SplineSet
300 530 m 0x7e
 241 530 180 444 180 300 c 0
 180 253 184 212 192 177 c 1
 214 226 263 260 320 260 c 0
 397 260 460 197 460 120 c 0
 460 43 397 -20 320 -20 c 0xbe
 168 -20 80 115 80 300 c 0
 80 485 180 620 300 620 c 0
 386 620 445 567 473 470 c 1
 560 620 l 1
 600 620 l 1
 712 593 760 505 760 360 c 2
 760 0 l 1
 660 0 l 1
 660 360 l 2
 660 459 652 508 600 530 c 1
 490 330 l 1
 400 330 l 1
 400 474 359 530 300 530 c 0x7e
320 190 m 0
 281 190 250 159 250 120 c 0
 250 81 281 50 320 50 c 0
 359 50 390 81 390 120 c 0
 390 159 359 190 320 190 c 0
EndSplineSet
EndChar

StartChar: uni0E24
Encoding: 3620 3620 62
Width: 680
VWidth: 0
Flags: W
HStem: -10 60<196.518 283.482> 150 60<231.049 282.922> 400 20<279.299 310> 535 85<244.059 426.7>
VStem: 130 100<210 371.387> 130 60<57.0781 144.043> 290 60<56.5176 143.482> 480 100<-270 481.05>
LayerCount: 2
Fore
SplineSet
240 210 m 0xfb
 301 210 350 161 350 100 c 0
 350 39 301 -10 240 -10 c 0
 179 -10 130 39 130 100 c 2xf7
 130 290 l 2
 130 350 155 380 179 395 c 1
 80 420 l 1
 88 474 164 620 340 620 c 0
 481 620 580 535 580 400 c 2
 580 0 l 1
 580 -270 l 1
 480 -270 l 1
 480 0 l 1
 480 400 l 2
 480 482 426 535 340 535 c 0
 270 535 210 501 186 447 c 1
 310 420 l 1
 310 400 l 1
 310 400 230 396 230 290 c 2
 230 210 l 1
 233 210 237 210 240 210 c 0xfb
240 150 m 0
 212 150 190 128 190 100 c 0
 190 72 212 50 240 50 c 0
 268 50 290 72 290 100 c 0
 290 128 268 150 240 150 c 0
EndSplineSet
EndChar

StartChar: uni0E26
Encoding: 3622 3622 63
Width: 700
VWidth: 0
Flags: W
HStem: -10 60<136.518 223.482> 150 60<136.944 176> 400 20<313.136 340> 535 85<264.059 446.7>
VStem: 70 60<56.5176 144.124> 170 100<210.426 376.06> 230 60<56.5176 143.431> 500 100<-270 481.05>
LayerCount: 2
Fore
SplineSet
180 150 m 0xfb
 152 150 130 128 130 100 c 0
 130 72 152 50 180 50 c 0
 208 50 230 72 230 100 c 0
 230 128 208 150 180 150 c 0xfb
500 0 m 1
 500 400 l 2
 500 482 446 535 360 535 c 0
 290 535 230 501 206 448 c 1
 340 420 l 1
 340 400 l 1
 340 400 270 393 270 300 c 2
 270 260 l 2xfd
 270 199 290 175 290 100 c 0xfb
 290 39 241 -10 180 -10 c 0
 119 -10 70 39 70 100 c 0
 70 159 117 208 176 210 c 1
 173 219 170 234 170 260 c 2
 170 300 l 2xfd
 170 352 191 379 211 394 c 1
 100 420 l 1
 108 474 184 620 360 620 c 0
 501 620 600 535 600 400 c 2
 600 0 l 1
 600 -270 l 1
 500 -270 l 1
 500 0 l 1
EndSplineSet
EndChar

StartChar: uni0E45
Encoding: 3653 3653 64
Width: 300
VWidth: 0
Flags: W
HStem: 535 85<-68.6265 78.6265>
VStem: -210 100<400 492.172> 120 100<-270 492.172>
LayerCount: 2
Fore
SplineSet
120 0 m 1
 120 400 l 2
 120 472 89 535 5 535 c 0
 -79 535 -110 472 -110 400 c 1
 -210 400 l 1
 -210 537 -121 620 5 620 c 0
 131 620 220 537 220 400 c 2
 220 0 l 1
 220 -270 l 1
 120 -270 l 1
 120 0 l 1
EndSplineSet
EndChar

StartChar: uni0E50
Encoding: 3664 3664 65
Width: 800
VWidth: 0
Flags: W
HStem: -20 90<296.022 503.978> 530 90<296.022 503.978>
VStem: 80 100<190.123 409.877> 620 100<190.123 409.877>
LayerCount: 2
Fore
SplineSet
400 530 m 0
 267 530 180 427 180 300 c 0
 180 173 267 70 400 70 c 0
 533 70 620 173 620 300 c 0
 620 427 533 530 400 530 c 0
400 620 m 0
 577 620 720 477 720 300 c 0
 720 123 577 -20 400 -20 c 0
 223 -20 80 123 80 300 c 0
 80 477 223 620 400 620 c 0
EndSplineSet
EndChar

StartChar: uni0E27
Encoding: 3623 3623 66
Width: 560
VWidth: 0
Flags: W
HStem: -10 65<303.582 396.418> 165 65<303.582 369.216> 535 85<170.169 329.831>
VStem: 30 100<420 494.342> 230 65<63.5821 156.418> 370 100<228 494.342> 405 65<63.758 156.242>
LayerCount: 2
Fore
SplineSet
370 228 m 1xfc
 370 420 l 2
 370 476 334 535 250 535 c 0
 166 535 130 476 130 420 c 1
 30 420 l 1
 30 535 117 620 250 620 c 0
 383 620 470 535 470 420 c 2xfc
 470 110 l 2xfa
 470 44 416 -10 350 -10 c 0
 284 -10 230 44 230 110 c 0
 230 176 284 230 350 230 c 0
 357 230 363 229 370 228 c 1xfc
350 165 m 0
 320 165 295 140 295 110 c 0
 295 80 320 55 350 55 c 0
 380 55 405 80 405 110 c 0xfa
 405 140 380 165 350 165 c 0
EndSplineSet
EndChar

StartChar: uni0E17
Encoding: 3607 3607 67
Width: 690
VWidth: 0
Flags: W
HStem: 0 21G<170 280 500 600> 390 60<117.078 168.951> 510 100<400.739 488.04> 550 60<116.518 203.482>
VStem: 50 60<456.518 543.482> 170 110<0 275.3> 170 100<340 390> 210 60<455.957 542.922> 500 100<0 500.457>
LayerCount: 2
Fore
SplineSet
170 390 m 1xea80
 167 390 163 390 160 390 c 0
 99 390 50 439 50 500 c 0
 50 561 99 610 160 610 c 0
 221 610 270 561 270 500 c 2xd980
 270 340 l 1xda80
 278 368 327 610 455 610 c 0
 533 610 600 562 600 410 c 2
 600 0 l 1
 500 0 l 1
 500 410 l 2
 500 471 491 510 445 510 c 0
 362 510 302 268 280 180 c 1
 280 0 l 1
 170 0 l 1xec80
 170 390 l 1xea80
160 550 m 0
 132 550 110 528 110 500 c 0
 110 472 132 450 160 450 c 0
 188 450 210 472 210 500 c 0
 210 528 188 550 160 550 c 0
EndSplineSet
EndChar

StartChar: uni0E2C
Encoding: 3628 3628 68
Width: 790
VWidth: 0
Flags: W
HStem: 390 60<127.078 178.951> 450 50<536.745 580> 550 60<126.518 213.482> 600 50<536.643 622.817>
VStem: 60 60<456.518 543.482> 180 100<80 390> 220 60<455.957 542.922> 480 50<506.643 593.357> 580 100<80 450> 630 110<533.768 594.043> 665 75<609.845 670>
AnchorPoint: "thai_above" 887.82 630 basechar 0
LayerCount: 2
Fore
SplineSet
580 600 m 0x1980
 552 600 530 578 530 550 c 0
 530 522 552 500 580 500 c 0x6980
 608 500 630 522 630 550 c 0x6940
 630 578 608 600 580 600 c 0x1980
170 610 m 0
 231 610 280 561 280 500 c 2x6b
 280 80 l 1
 399 490 l 1
 461 490 l 1
 580 80 l 1
 580 450 l 1
 525 450 480 495 480 550 c 0x6d80
 480 605 525 650 580 650 c 0x1d80
 613 650 643 634 661 609 c 1
 664 627 665 647 665 670 c 1
 740 670 l 1x1920
 740 591 721 523 680 484 c 1
 680 60 l 2
 680 37 667 17 640 5 c 0
 613 -7 571 -10 540 -10 c 1
 430 380 l 1
 320 -10 l 1
 289 -10 247 -7 220 5 c 0x1b80
 193 17 180 37 180 60 c 2
 180 390 l 1
 170 390 l 2x9d
 109 390 60 439 60 500 c 0
 60 561 109 610 170 610 c 0
170 550 m 0
 142 550 120 528 120 500 c 0x6b
 120 472 142 450 170 450 c 0x8b
 198 450 220 472 220 500 c 0
 220 528 198 550 170 550 c 0
EndSplineSet
EndChar

StartChar: uni0E18
Encoding: 3608 3608 69
Width: 620
VWidth: 0
Flags: W
HStem: -20 90<224.063 395.937> 400 45<180 322.516> 540 70<492.371 540> 550 70<227.131 418.692>
VStem: 100 100<97.4658 310> 420 100<97.4658 366.912>
LayerCount: 2
Fore
SplineSet
80 400 m 1xdc
 80 535 190 620 310 620 c 0xdc
 394 620 435 590 470 560 c 1
 478 574 509 610 540 610 c 1
 540 540 l 1xec
 509 540 482 505 470 485 c 1
 432 523 384 550 310 550 c 0
 232 550 183 497 180 445 c 1
 373 445 520 436 520 320 c 2
 520 150 l 2
 520 26 412 -20 310 -20 c 0
 208 -20 100 26 100 150 c 2
 100 310 l 1
 200 310 l 1
 200 150 l 2
 200 95 248 70 310 70 c 0
 372 70 420 95 420 150 c 2
 420 320 l 2
 420 396 317 400 80 400 c 1xdc
EndSplineSet
EndChar

StartChar: uni0E10
Encoding: 3600 3600 70
Width: 600
VWidth: 0
Flags: W
HStem: -340 45<102.158 181.715> -205 45<102.158 190.099 405.364 439.668> -105 35<407.895 462.105> 130 55<160.292 240.072> 275 55<160.292 239.455> 400 45<180 323.043> 540 70<492.371 540> 550 70<227.131 418.692>
VStem: 50 45<-287.842 -212.158> 100 55<190.292 269.708> 205 50<-183.625 -160> 370 35<-162.105 -107.895> 380 100<109 373.959> 440 60<-283.487 -200> 465 35<-162.417 -108.207>
LayerCount: 2
Fore
SplineSet
80 400 m 1xfde8
 80 535 190 620 310 620 c 0xfde8
 394 620 435 590 470 560 c 1
 478 574 509 610 540 610 c 1
 540 540 l 1xfee8
 509 540 482 505 470 485 c 1
 432 523 384 550 310 550 c 0
 232 550 183 497 180 445 c 1
 370 445 480 436 480 320 c 2
 480 60 l 2
 480 15 404 -10 360 -10 c 1
 350 84 326 154 295 200 c 1
 283 159 245 130 200 130 c 0
 145 130 100 175 100 230 c 0
 100 285 145 330 200 330 c 0
 285 330 350 231 380 109 c 1
 380 320 l 2
 380 396 317 400 80 400 c 1xfde8
200 275 m 0
 175 275 155 255 155 230 c 0
 155 205 175 185 200 185 c 0
 225 185 245 205 245 230 c 0
 245 255 225 275 200 275 c 0
198 -235 m 1
 182 -217 163 -205 140 -205 c 0
 115 -205 95 -225 95 -250 c 0
 95 -275 115 -295 140 -295 c 0
 164 -295 186 -281 198 -235 c 1
326 -223 m 1
 305 -330 l 1
 255 -330 l 1
 246 -315 238 -299 229 -282 c 1
 211 -317 182 -340 140 -340 c 0
 90 -340 50 -300 50 -250 c 0
 50 -200 90 -160 140 -160 c 0
 165 -160 186 -169 204 -184 c 1
 205 -176 205 -168 205 -160 c 1
 255 -160 l 1
 255 -184 253 -209 247 -231 c 1
 256 -244 265 -258 273 -271 c 1
 290 -180 l 1
 334 -180 l 1
 350 -180 l 1
 440 -285 l 1
 440 -200 l 1xfce4
 438 -200 437 -200 435 -200 c 0
 399 -200 370 -171 370 -135 c 0
 370 -99 399 -70 435 -70 c 0
 471 -70 500 -99 500 -135 c 2xfcf2
 500 -280 l 2xfce4
 500 -318 456 -330 415 -330 c 1
 326 -223 l 1
435 -105 m 0
 418 -105 405 -118 405 -135 c 0
 405 -152 418 -165 435 -165 c 0
 452 -165 465 -152 465 -135 c 0xfcf2
 465 -118 452 -105 435 -105 c 0
EndSplineSet
Substitution2: "Descent Substitute" uni0E10.descless
EndChar

StartChar: uni0E2F
Encoding: 3631 3631 71
Width: 560
VWidth: 0
Flags: W
HStem: -20 90<240 332.568> 360 65<171.079 331.811> 555 45<99.6942 170.306>
VStem: 50 45<480.823 550.306> 175 45<479.576 550.306> 370 100<104.392 400> 390 80<485.749 580>
LayerCount: 2
Fore
SplineSet
135 600 m 0xfc
 182 600 220 562 220 515 c 0
 220 480 199 450 169 437 c 1
 186 428 211 425 245 425 c 0
 332 425 390 484 390 580 c 1
 450 580 l 1
 470 580 l 1xfa
 470 170 l 2
 470 53 387 -20 240 -20 c 1
 240 70 l 1
 301 70 370 92 370 170 c 2
 370 400 l 1
 338 375 296 360 245 360 c 0
 155 360 50 409 50 515 c 0
 50 562 88 600 135 600 c 0xfc
135 555 m 0
 113 555 95 537 95 515 c 0
 95 493 113 475 135 475 c 0
 157 475 175 493 175 515 c 0
 175 537 157 555 135 555 c 0
EndSplineSet
EndChar

StartChar: uni0E5A
Encoding: 3674 3674 72
Width: 720
VWidth: 0
Flags: W
HStem: -20 80<250 335.572 460 513.11> 360 65<181.079 341.811> 555 45<109.694 180.306>
VStem: 60 45<480.823 550.306> 185 45<479.576 550.306> 380 80<100.918 400> 400 60<485.749 580> 540 80<86.6226 580>
LayerCount: 2
Fore
SplineSet
145 600 m 0xfd
 192 600 230 562 230 515 c 0
 230 480 209 450 179 437 c 1
 196 428 221 425 255 425 c 0
 342 425 400 484 400 580 c 1
 460 580 l 1xfb
 460 170 l 2
 460 53 364 -20 250 -20 c 1
 250 60 l 1
 311 60 380 92 380 170 c 2
 380 400 l 1
 348 375 306 360 255 360 c 0
 165 360 60 409 60 515 c 0
 60 562 98 600 145 600 c 0xfd
145 555 m 0
 123 555 105 537 105 515 c 0
 105 493 123 475 145 475 c 0
 167 475 185 493 185 515 c 0
 185 537 167 555 145 555 c 0
620 170 m 2
 620 53 553 -20 460 -20 c 1
 460 60 l 1
 497 60 540 92 540 170 c 2
 540 580 l 1
 620 580 l 1
 620 170 l 2
EndSplineSet
EndChar

StartChar: uni0E13
Encoding: 3603 3603 73
Width: 950
VWidth: 0
Flags: W
HStem: -20 65<721.338 808.206> -10 60<196.518 283.482> 150 60<231.049 282.922> 400 20<279.299 310> 535 85<244.059 426.7> 580 20G<740 840>
VStem: 130 100<210 371.387> 130 60<57.0781 144.043> 290 60<56.5176 143.482> 480 100<84 481.05> 650 65<51.2013 89> 740 100<210 600> 815 65<51.7943 138.518>
LayerCount: 2
Fore
SplineSet
765 145 m 0xb0e8
 737 145 715 123 715 95 c 0
 715 67 737 45 765 45 c 0
 793 45 815 67 815 95 c 0
 815 123 793 145 765 145 c 0xb0e8
240 150 m 0
 212 150 190 128 190 100 c 0
 190 72 212 50 240 50 c 0x71e0
 268 50 290 72 290 100 c 0
 290 128 268 150 240 150 c 0
240 210 m 2
 301 210 350 161 350 100 c 0
 350 39 301 -10 240 -10 c 0
 179 -10 130 39 130 100 c 2x79e0
 130 290 l 2
 130 350 155 380 179 395 c 1
 80 420 l 1
 88 474 164 620 340 620 c 0x7ae0
 481 620 580 535 580 400 c 2
 580 130 l 1
 580 84 l 1
 614 138 673 195 740 211 c 1
 740 600 l 1
 840 600 l 1
 840 210 l 1x36f0
 818 197 l 1
 855 178 880 139 880 95 c 0
 880 31 829 -20 765 -20 c 0xb4e8
 704 -20 653 28 650 89 c 1
 610 43 590 -10 590 -10 c 1
 527 -10 480 15 480 60 c 2
 480 130 l 1
 480 400 l 2
 480 482 426 535 340 535 c 0
 270 535 210 501 186 447 c 1
 310 420 l 1
 310 400 l 1
 310 400 230 396 230 290 c 2
 230 210 l 1x7ae8
 240 210 l 2
EndSplineSet
EndChar

StartChar: uni0E08
Encoding: 3592 3592 74
Width: 600
VWidth: 0
Flags: W
HStem: 160 60<166.518 253.644> 320 60<166.518 252.265> 535 85<186.613 363.387>
VStem: 40 100<420 490.586> 100 60<226.518 313.482> 410 100<126 490.586>
LayerCount: 2
Fore
SplineSet
410 126 m 1xec
 410 420 l 2
 410 481 365 535 275 535 c 0
 185 535 140 481 140 420 c 1
 40 420 l 1xf4
 40 535 130 620 275 620 c 0
 420 620 510 535 510 420 c 2
 510 60 l 2
 510 15 434 -10 390 -10 c 1
 379 89 351 177 315 236 c 1
 301 192 259 160 210 160 c 0
 149 160 100 209 100 270 c 0
 100 331 149 380 210 380 c 0
 311 380 376 260 410 126 c 1xec
210 320 m 0
 182 320 160 298 160 270 c 0xec
 160 242 182 220 210 220 c 0
 238 220 260 242 260 270 c 0
 260 298 238 320 210 320 c 0
EndSplineSet
EndChar

StartChar: uni0E0D
Encoding: 3597 3597 75
Width: 930
VWidth: 0
Flags: W
HStem: -270 60<601.754 727.343> -110 40<523.912 586.088> -20 85<595.595 724.405> -10 60<196.518 283.482> 150 60<231.049 282.922> 400 20<279.299 310> 535 85<244.059 426.7> 580 20G<740 840>
VStem: 130 100<210 371.387> 130 60<57.0781 144.043> 290 60<56.5176 143.482> 480 100<81.457 481.05> 480 40<-175.859 -113.912> 590 40<-176.426 -113.912> 740 100<81.457 600> 770 80<-166.96 -90>
LayerCount: 2
Fore
SplineSet
555 -70 m 0xcc2d
 596 -70 630 -104 630 -145 c 0
 630 -169 619 -190 601 -204 c 1
 616 -208 632 -210 650 -210 c 0
 711 -210 770 -171 770 -90 c 1
 850 -90 l 1
 850 -216 746 -270 650 -270 c 0
 539 -270 480 -211 480 -145 c 0
 480 -104 514 -70 555 -70 c 0xcc2d
555 -110 m 0
 536 -110 520 -126 520 -145 c 0
 520 -164 536 -180 555 -180 c 0
 574 -180 590 -164 590 -145 c 0
 590 -126 574 -110 555 -110 c 0
240 150 m 0
 212 150 190 128 190 100 c 0
 190 72 212 50 240 50 c 0xdc64
 268 50 290 72 290 100 c 0
 290 128 268 150 240 150 c 0
240 210 m 2
 301 210 350 161 350 100 c 0
 350 39 301 -10 240 -10 c 0
 179 -10 130 39 130 100 c 2xde64
 130 290 l 2
 130 350 155 380 179 395 c 1
 80 420 l 1
 88 474 164 620 340 620 c 0xdea4
 481 620 580 535 580 400 c 2
 580 130 l 2
 580 97 605 65 660 65 c 0
 715 65 740 97 740 130 c 2
 740 600 l 1
 840 600 l 1xedb6
 840 130 l 2
 840 92 812 -20 660 -20 c 0
 508 -20 480 92 480 130 c 2
 480 400 l 2
 480 482 426 535 340 535 c 0
 270 535 210 501 186 447 c 1
 310 420 l 1
 310 400 l 1
 310 400 230 396 230 290 c 2
 230 210 l 1xeeb6
 240 210 l 2
EndSplineSet
Substitution2: "Descent Substitute" uni0E0D.descless
EndChar

StartChar: uni0E0F
Encoding: 3599 3599 76
Width: 700
VWidth: 0
Flags: W
HStem: -300 45<122.158 207.196> -165 45<122.158 214.916> -10 60<136.518 223.482> 150 60<136.944 176> 400 20<313.136 340> 535 85<264.059 446.7>
VStem: 70 60<56.5176 144.124> 70 45<-247.842 -172.158> 170 100<210.426 376.06> 230 60<-143.364 -120 56.5176 143.431> 500 100<-240 481.05>
LayerCount: 2
Fore
SplineSet
226 -196 m 1xfd20
 205 -178 183 -165 160 -165 c 0
 135 -165 115 -185 115 -210 c 0
 115 -235 135 -255 160 -255 c 0
 185 -255 212 -242 226 -196 c 1xfd20
180 150 m 0
 152 150 130 128 130 100 c 0
 130 72 152 50 180 50 c 0
 208 50 230 72 230 100 c 0xfe60
 230 128 208 150 180 150 c 0
500 0 m 1
 500 400 l 2
 500 482 446 535 360 535 c 0
 290 535 230 501 206 448 c 1
 340 420 l 1
 340 400 l 1
 340 400 270 393 270 300 c 2
 270 260 l 2xfca0
 270 199 290 175 290 100 c 0
 290 39 241 -10 180 -10 c 0
 119 -10 70 39 70 100 c 0xfe60
 70 159 117 208 176 210 c 1
 173 219 170 234 170 260 c 2
 170 300 l 2
 170 352 191 379 211 394 c 1
 100 420 l 1
 108 474 184 620 360 620 c 0
 501 620 600 535 600 400 c 2
 600 0 l 1
 600 -240 l 2
 600 -278 511 -290 470 -290 c 1
 397 -178 l 1
 345 -290 l 1
 295 -290 l 1
 289 -274 277 -254 262 -234 c 1
 239 -274 203 -300 160 -300 c 0
 110 -300 70 -260 70 -210 c 0xfda0
 70 -160 110 -120 160 -120 c 0
 187 -120 212 -129 234 -144 c 1
 235 -136 235 -128 235 -120 c 1
 290 -120 l 1
 290 -143 287 -165 282 -186 c 1
 294 -200 305 -216 315 -233 c 1
 365 -130 l 1
 419 -130 l 1
 425 -130 l 1
 500 -240 l 1
 500 0 l 1
EndSplineSet
Substitution2: "Descent Shorten" uni0E0F.shorten
EndChar

StartChar: uni0E4B
Encoding: 3659 3659 77
Width: 0
VWidth: 0
Flags: W
HStem: 1105 60<-290 -190 -110 -10>
VStem: -190 80<1032 1105 1165 1260>
LayerCount: 2
Fore
SplineSet
-190 1260 m 1
 -110 1260 l 1
 -110 1165 l 1
 -10 1165 l 1
 -10 1105 l 1
 -110 1105 l 1
 -110 990 l 1
 -190 1032 l 1
 -190 1105 l 1
 -290 1105 l 1
 -290 1165 l 1
 -190 1165 l 1
 -190 1260 l 1
EndSplineSet
Position2: "Nikhahit & Tone High-Left" dx=-240 dy=0 dh=0 dv=0
Position2: "Mai Han-Akat & Tone High-Left" dx=-300 dy=0 dh=0 dv=0
Position2: "Tone High-Left" dx=-200 dy=0 dh=0 dv=0
MultipleSubs2: "Tone High-Low" uni0E4B.low
EndChar

StartChar: uni0E0F.shorten
Encoding: 63290 63290 78
Width: 690
VWidth: 0
Flags: W
HStem: -220 45<122.158 207.196> -85 45<122.158 214.916> -10 60<136.518 223.482> 150 60<136.944 176> 400 20<313.136 340> 535 85<264.059 446.7>
VStem: 70 60<56.5176 144.124> 70 45<-167.842 -92.1579> 170 100<210.426 376.06> 230 60<-63.3643 -40 56.5176 143.431> 500 100<-160 481.05>
LayerCount: 2
Fore
SplineSet
226 -116 m 1xfd20
 205 -98 183 -85 160 -85 c 0
 135 -85 115 -105 115 -130 c 0
 115 -155 135 -175 160 -175 c 0
 185 -175 212 -162 226 -116 c 1xfd20
180 150 m 0
 152 150 130 128 130 100 c 0
 130 72 152 50 180 50 c 0
 208 50 230 72 230 100 c 0xfe60
 230 128 208 150 180 150 c 0
500 80 m 1
 500 400 l 2
 500 482 446 535 360 535 c 0
 290 535 230 501 206 448 c 1
 340 420 l 1
 340 400 l 1
 340 400 270 393 270 300 c 2
 270 260 l 2xfca0
 270 199 290 175 290 100 c 0
 290 39 241 -10 180 -10 c 0
 119 -10 70 39 70 100 c 0xfe60
 70 159 117 208 176 210 c 1
 173 219 170 234 170 260 c 2
 170 300 l 2
 170 352 191 379 211 394 c 1
 100 420 l 1
 108 474 184 620 360 620 c 0
 501 620 600 535 600 400 c 2
 600 80 l 1
 600 0 l 1
 600 -160 l 2
 600 -198 511 -210 470 -210 c 1
 397 -98 l 1
 345 -210 l 1
 295 -210 l 1
 289 -194 277 -174 262 -154 c 1
 239 -194 203 -220 160 -220 c 0
 110 -220 70 -180 70 -130 c 0xfda0
 70 -80 110 -40 160 -40 c 0
 187 -40 212 -49 234 -64 c 1
 235 -56 235 -48 235 -40 c 1
 290 -40 l 1
 290 -63 287 -85 282 -106 c 1
 294 -120 305 -136 315 -153 c 1
 365 -50 l 1
 419 -50 l 1
 425 -50 l 1
 500 -160 l 1
 500 0 l 1
 500 80 l 1
EndSplineSet
EndChar

StartChar: uni0E0E.shorten
Encoding: 63291 63291 79
Width: 690
VWidth: 0
Flags: W
HStem: -220 60<182.208 304.612> -80 60<182.208 321.157> -10 60<136.518 223.482> 150 60<136.944 176> 400 20<313.136 340> 535 85<264.059 446.7>
VStem: 70 60<56.5176 144.124> 120 60<-155.334 -84.6657> 170 100<210.426 376.06> 230 60<56.5176 143.431> 345 70<-48.125 -10> 500 100<-155 481.05>
LayerCount: 2
Fore
SplineSet
230 -160 m 0xfd70
 271 -160 305 -145 326 -108 c 1
 292 -91 259 -80 230 -80 c 0
 202 -80 180 -92 180 -120 c 0
 180 -148 202 -160 230 -160 c 0xfd70
180 150 m 0
 152 150 130 128 130 100 c 0xfe30
 130 72 152 50 180 50 c 0
 208 50 230 72 230 100 c 0
 230 128 208 150 180 150 c 0
500 80 m 1
 500 400 l 2
 500 482 446 535 360 535 c 0
 290 535 230 501 206 448 c 1
 340 420 l 1
 340 400 l 1
 340 400 270 393 270 300 c 2
 270 260 l 2xfcb0
 270 199 290 175 290 100 c 0
 290 39 241 -10 180 -10 c 0xfd70
 119 -10 70 39 70 100 c 0
 70 159 117 208 176 210 c 1
 173 219 170 234 170 260 c 2
 170 300 l 2xfeb0
 170 352 191 379 211 394 c 1
 100 420 l 1
 108 474 184 620 360 620 c 0
 501 620 600 535 600 400 c 2
 600 80 l 1
 600 0 l 1
 600 -160 l 2
 600 -198 511 -210 470 -210 c 1
 450 -190 418 -164 381 -140 c 1
 349 -190 297 -220 230 -220 c 0
 169 -220 120 -181 120 -120 c 0
 120 -59 169 -20 230 -20 c 0xfd70
 265 -20 304 -32 343 -49 c 1
 344 -37 345 -24 345 -10 c 1
 415 -10 l 1
 415 -36 412 -61 405 -84 c 1
 443 -107 476 -133 500 -155 c 1
 500 0 l 1
 500 80 l 1
EndSplineSet
EndChar

StartChar: uni0E5B
Encoding: 3675 3675 80
Width: 1340
VWidth: 0
Flags: W
HStem: -20 65<287.452 497.689> 150 60<324.791 458.918> 250 50<313.406 366> 270 60<1028.2 1250> 380 50<293.609 366> 555 65<248.321 424.721>
VStem: 90 70<181.13 446.541> 235 55<302.601 377.102> 370 50<304 376> 500 70<251.685 468.628>
LayerCount: 2
Fore
SplineSet
330 430 m 0xefc0
 380 430 420 390 420 340 c 0
 420 290 380 250 330 250 c 0
 324 250 318 251 313 252 c 1
 328 224 353 210 390 210 c 0
 453 210 500 258 500 340 c 0
 500 441 463 555 340 555 c 0
 227 555 160 464 160 300 c 0xefc0
 160 162 252 45 390 45 c 0
 616 45 675 307 675 580 c 1
 735 580 l 1
 847 178 l 1
 925 520 l 1
 935 520 l 1
 985 520 l 1
 985 419 1006 330 1090 330 c 2
 1250 330 l 1
 1250 270 l 1
 1090 270 l 2xdfc0
 1009 270 969 309 951 370 c 1
 880 60 l 1
 820 60 l 1
 726 398 l 1
 701 179 618 -20 390 -20 c 0
 213 -20 90 123 90 300 c 0
 90 492 188 620 340 620 c 0
 496 620 570 482 570 340 c 0
 570 233 502 150 390 150 c 0
 294 150 235 227 235 320 c 0
 235 385 280 430 330 430 c 0xefc0
330 380 m 0
 308 380 290 362 290 340 c 0
 290 318 308 300 330 300 c 0
 352 300 370 318 370 340 c 0
 370 362 352 380 330 380 c 0
EndSplineSet
EndChar

StartChar: uni0E4E
Encoding: 3662 3662 81
Width: 0
VWidth: 0
Flags: W
HStem: 700 60<-423.48 -306.279> 1085 60<-343.48 -236.144>
VStem: -500 60<776.144 883.341> -420 60<958.663 1068.86> -220 60<1015 1068.59>
LayerCount: 2
Fore
SplineSet
-290 1145 m 0
 -218 1145 -160 1087 -160 1015 c 1
 -220 1015 l 1
 -220 1054 -251 1085 -290 1085 c 0
 -328 1085 -360 1054 -360 1015 c 0
 -360 987 -346 965 -325 952 c 1
 -307 946 -291 935 -278 922 c 1
 -320 879 l 1
 -333 892 -350 900 -370 900 c 0
 -408 900 -440 869 -440 830 c 0
 -440 791 -408 760 -370 760 c 0
 -350 760 -333 768 -320 781 c 1
 -278 738 l 1
 -301 715 -334 700 -370 700 c 0
 -441 700 -500 758 -500 830 c 0
 -500 890 -459 940 -404 955 c 1
 -414 974 -420 995 -420 1015 c 0
 -420 1087 -361 1145 -290 1145 c 0
EndSplineSet
EndChar

StartChar: uni0E4F
Encoding: 3663 3663 82
Width: 780
VWidth: 0
Flags: W
HStem: -20 70<280.756 499.244> 140 65<327.092 452.908> 395 65<327.092 452.908> 550 70<280.756 499.244>
VStem: 70 70<190.756 409.244> 230 65<237.092 362.908> 485 65<237.092 362.908> 640 70<190.756 409.244>
LayerCount: 2
Fore
SplineSet
390 395 m 0
 338 395 295 352 295 300 c 0
 295 248 338 205 390 205 c 0
 442 205 485 248 485 300 c 0
 485 352 442 395 390 395 c 0
390 460 m 0
 478 460 550 388 550 300 c 0
 550 212 478 140 390 140 c 0
 302 140 230 212 230 300 c 0
 230 388 302 460 390 460 c 0
390 550 m 0
 252 550 140 438 140 300 c 0
 140 162 252 50 390 50 c 0
 528 50 640 162 640 300 c 0
 640 438 528 550 390 550 c 0
390 620 m 0
 567 620 710 477 710 300 c 0
 710 123 567 -20 390 -20 c 0
 213 -20 70 123 70 300 c 0
 70 477 213 620 390 620 c 0
EndSplineSet
EndChar

StartChar: uni0E51
Encoding: 3665 3665 83
Width: 800
VWidth: 0
Flags: W
HStem: -60 80<400 487.699> 90 80<224.051 358.204> 355 65<343.582 436.418> 530 90<295.529 504.471>
VStem: 80 100<213.058 414.306> 270 65<254.6 346.418> 445 65<255.715 346.418> 620 100<171.097 414.306>
LayerCount: 2
Fore
SplineSet
390 420 m 0
 456 420 510 366 510 300 c 0
 510 184 430 90 300 90 c 0
 170 90 80 184 80 300 c 0
 80 487 225 620 400 620 c 0
 575 620 720 487 720 300 c 0
 720 94 577 -60 400 -60 c 1
 400 20 l 1
 510 20 620 137 620 300 c 0
 620 427 537 530 400 530 c 0
 263 530 180 427 180 300 c 0
 180 234 214 170 300 170 c 0
 324 170 344 175 360 184 c 1
 308 197 270 244 270 300 c 0
 270 366 324 420 390 420 c 0
390 355 m 0
 360 355 335 330 335 300 c 0
 335 270 360 245 390 245 c 0
 420 245 445 270 445 300 c 0
 445 330 420 355 390 355 c 0
EndSplineSet
EndChar

StartChar: uni0E52
Encoding: 3666 3666 84
Width: 930
VWidth: 0
Flags: W
HStem: 0 90<210 750> 180 60<397.674 483.482> 340 60<396.248 483.482> 540 80<382.871 496.985> 790 20G<70 173.81>
VStem: 110 100<90 765.347> 270 80<360.289 503.721> 490 60<246.518 333.482> 750 100<90 515.219>
LayerCount: 2
Fore
SplineSet
440 340 m 0
 412 340 390 318 390 290 c 0
 390 262 412 240 440 240 c 0
 468 240 490 262 490 290 c 0
 490 318 468 340 440 340 c 0
70 810 m 1
 170 810 l 1
 170 810 210 713 210 600 c 2
 210 90 l 1
 750 90 l 1
 750 390 l 2
 750 489 742 518 690 540 c 1
 610 400 l 1
 530 400 l 1
 530 485 497 540 440 540 c 0
 383 540 350 485 350 400 c 0
 350 385 351 371 353 358 c 1
 373 383 405 400 440 400 c 0
 501 400 550 351 550 290 c 0
 550 229 501 180 440 180 c 0
 339 180 270 282 270 400 c 0
 270 518 339 620 440 620 c 0
 509 620 562 573 590 506 c 1
 655 620 l 1
 690 620 l 1
 802 593 850 535 850 390 c 2
 850 90 l 2
 850 40 805 0 750 0 c 2
 210 0 l 2
 155 0 110 40 110 90 c 2
 110 600 l 2
 110 706 70 810 70 810 c 1
EndSplineSet
EndChar

StartChar: uni0E54
Encoding: 3668 3668 85
Width: 900
VWidth: 0
Flags: W
HStem: 0 90<279.904 500 576.798 760> 160 65<521.711 576.242> 335 65<484.289 576.418> 510 90<279.904 654.526> 790 20G<759.5 860>
VStem: 80 100<194.508 405.492> 400 75<234.83 325.344> 585 65<233.582 326.418> 760 100<709.093 810>
LayerCount: 2
Fore
SplineSet
530 400 m 0
 596 400 650 346 650 280 c 0
 650 214 596 160 530 160 c 2
 521 160 l 1
 563 115 620 90 650 90 c 2
 760 90 l 1
 760 0 l 1
 380 0 l 2
 200 0 80 127 80 300 c 0
 80 473 200 600 380 600 c 2
 560 600 l 2
 691 600 759 712 760 810 c 1
 860 810 l 1
 860 630 740 510 560 510 c 2
 380 510 l 2
 249 510 180 407 180 300 c 0
 180 193 249 90 380 90 c 2
 500 90 l 1
 500 90 400 162 400 270 c 0
 400 344 457 400 530 400 c 0
530 335 m 0
 500 335 475 310 475 280 c 0
 475 250 500 225 530 225 c 0
 560 225 585 250 585 280 c 0
 585 310 560 335 530 335 c 0
EndSplineSet
EndChar

StartChar: uni0E55
Encoding: 3669 3669 86
Width: 900
VWidth: 0
Flags: W
HStem: 0 90<279.904 500 576.798 760> 160 65<521.711 576.242> 335 65<484.289 576.418> 510 115<433.758 526.242> 510 90<279.904 391 570 654.526> 735 65<433.582 526.418> 790 20G<759.5 860>
VStem: 80 100<194.508 405.492> 360 65<633.746 726.418> 400 75<234.83 325.344> 535 65<633.746 726.418> 585 65<233.582 326.418> 760 100<708.242 810>
LayerCount: 2
Fore
SplineSet
480 735 m 0xf5a8
 450 735 425 710 425 680 c 0
 425 650 450 625 480 625 c 0
 510 625 535 650 535 680 c 0
 535 710 510 735 480 735 c 0xf5a8
530 335 m 0
 500 335 475 310 475 280 c 0
 475 250 500 225 530 225 c 0
 560 225 585 250 585 280 c 0xe158
 585 310 560 335 530 335 c 0
530 400 m 0
 596 400 650 346 650 280 c 0
 650 214 596 160 530 160 c 2
 521 160 l 1
 563 115 620 90 650 90 c 2
 760 90 l 1
 760 0 l 1
 380 0 l 2
 200 0 80 127 80 300 c 0
 80 473 200 600 380 600 c 2
 391 600 l 1
 372 621 360 649 360 680 c 0
 360 746 414 800 480 800 c 0xed98
 546 800 600 746 600 680 c 0
 600 649 589 621 570 600 c 1
 694 606 759 714 760 810 c 1
 860 810 l 1
 860 630 740 510 560 510 c 2
 380 510 l 2xeba8
 249 510 180 407 180 300 c 0
 180 193 249 90 380 90 c 2
 500 90 l 1
 500 90 400 162 400 270 c 0
 400 344 457 400 530 400 c 0
EndSplineSet
EndChar

StartChar: uni0E56
Encoding: 3670 3670 87
Width: 800
VWidth: 0
Flags: W
HStem: -20 90<292.812 513.462> 160 65<226.307 286.418> 335 65<194.289 286.418> 510 90<216.733 512.216> 790 20G<50 150.5>
VStem: 50 100<673.698 810> 110 75<234.101 325.752> 295 65<233.582 326.418> 620 100<181.892 399.794>
LayerCount: 2
Fore
SplineSet
240 400 m 0xfb80
 306 400 360 346 360 280 c 0
 360 214 306 160 240 160 c 0
 235 160 231 160 226 161 c 1
 259 101 321 70 410 70 c 0
 535 70 620 164 620 300 c 0
 620 407 541 510 410 510 c 2
 300 510 l 2
 120 510 50 630 50 810 c 1
 150 810 l 1xfd80
 151 712 169 600 300 600 c 2
 410 600 l 2
 590 600 720 473 720 300 c 0
 720 104 590 -20 410 -20 c 0
 213 -20 110 124 110 260 c 0
 110 334 167 400 240 400 c 0xfb80
240 335 m 0
 210 335 185 310 185 280 c 0xfb80
 185 250 210 225 240 225 c 0
 270 225 295 250 295 280 c 0
 295 310 270 335 240 335 c 0
EndSplineSet
EndChar

StartChar: uni0E57
Encoding: 3671 3671 88
Width: 1050
VWidth: 0
Flags: W
HStem: -20 70<265.961 374.242> 190 70<266.51 374.242> 530 90<245.772 356.768> 580 20G<870 960>
VStem: 80 100<178.951 443.622> 390 70<65.7577 174.242> 660 90<74 503.591> 870 90<121.264 600>
LayerCount: 2
Fore
SplineSet
320 190 m 0xcf
 281 190 250 159 250 120 c 0
 250 81 281 50 320 50 c 0
 359 50 390 81 390 120 c 0
 390 159 359 190 320 190 c 0xcf
300 530 m 0xef
 241 530 180 444 180 300 c 0
 180 253 184 212 192 177 c 1
 214 226 263 260 320 260 c 0
 397 260 460 197 460 120 c 0
 460 43 397 -20 320 -20 c 0
 168 -20 80 115 80 300 c 0
 80 485 180 620 300 620 c 0
 386 620 445 567 473 470 c 1
 560 620 l 1
 600 620 l 1xef
 712 593 750 505 750 360 c 2
 750 74 l 1
 831 85 870 121 870 230 c 2
 870 600 l 1
 960 600 l 1xdf
 960 230 l 2
 960 32 842 -10 660 -10 c 1
 660 70 l 1
 660 360 l 2
 660 459 652 508 600 530 c 1
 490 330 l 1
 400 330 l 1
 400 474 359 530 300 530 c 0xef
EndSplineSet
EndChar

StartChar: uni0E58
Encoding: 3672 3672 89
Width: 910
VWidth: 0
Flags: W
HStem: -20 80<553.198 693.708> 160 65<643.582 729.534> 335 65<643.582 735.556> 510 90<279.904 654.526> 790 20G<759.5 860>
VStem: 80 100<176.963 405.492> 570 65<233.582 326.418> 730 90<98.745 167> 745 75<233.758 324.472> 760 100<709.093 810>
LayerCount: 2
Fore
SplineSet
690 400 m 0xff
 770 400 820 329 820 255 c 2
 820 200 l 2xfe80
 820 76 751 -20 625 -20 c 0
 529 -20 455 36 418 127 c 1
 360 -10 l 1
 180 -10 80 127 80 300 c 0
 80 473 200 600 380 600 c 2
 560 600 l 2
 691 600 759 712 760 810 c 1
 860 810 l 1xfe40
 860 630 740 510 560 510 c 2
 380 510 l 2
 249 510 180 407 180 300 c 0
 180 209 215 111 305 83 c 1
 390 280 l 1
 440 280 l 1
 480 280 l 1
 480 131 552 60 625 60 c 0
 690 60 730 116 730 160 c 2
 730 167 l 1
 717 162 704 160 690 160 c 0
 624 160 570 214 570 280 c 0
 570 346 624 400 690 400 c 0xff
690 335 m 0
 660 335 635 310 635 280 c 0
 635 250 660 225 690 225 c 0
 720 225 745 250 745 280 c 0
 745 310 720 335 690 335 c 0
EndSplineSet
EndChar

StartChar: uni0E59
Encoding: 3673 3673 90
Width: 960
VWidth: 0
Flags: W
HStem: -20 70<265.961 374.242> 0 21G<571.429 680> 190 70<266.51 374.242> 530 90<245.772 355.275> 790 20G<820 910>
VStem: 80 100<178.951 443.622> 390 70<65.7577 174.242> 820 90<420.287 810>
LayerCount: 2
Fore
SplineSet
820 550 m 2xbf
 820 810 l 1
 910 810 l 1
 910 550 l 2
 910 363 842 300 660 300 c 1
 660 360 l 2
 660 459 642 508 590 530 c 1
 513 390 l 1
 680 0 l 1
 580 0 l 1x7f
 400 420 l 2
 371 488 352 530 300 530 c 0
 241 530 180 444 180 300 c 0
 180 253 184 212 192 177 c 1
 214 226 263 260 320 260 c 0
 397 260 460 197 460 120 c 0
 460 43 397 -20 320 -20 c 0
 168 -20 80 115 80 300 c 0
 80 485 180 620 300 620 c 0
 378 620 436 571 474 489 c 1
 550 620 l 1
 590 620 l 1
 697 595 737 514 744 382 c 1
 811 405 820 464 820 550 c 2xbf
320 190 m 0
 281 190 250 159 250 120 c 0
 250 81 281 50 320 50 c 0xbf
 359 50 390 81 390 120 c 0
 390 159 359 190 320 190 c 0
EndSplineSet
EndChar

StartChar: uni0E4A
Encoding: 3658 3658 91
Width: 0
VWidth: 0
Flags: W
HStem: 1025 35<-326.728 -272.959> 1030 45<-190 -166.814> 1120 35<-327.216 -272.808> 1205 50<-325.917 -264.46>
VStem: -390 60<1061.13 1203.04> -270 36<1063.19 1117.11> -154 54<1101.65 1198.46> -70 70<1112.29 1245>
LayerCount: 2
Fore
SplineSet
-190 1205 m 1x7f
 -214 1165 l 1
 -260 1165 l 1
 -263 1183 -272 1205 -294 1205 c 0
 -317 1205 -333 1177 -334 1145 c 1
 -324 1152 -312 1155 -300 1155 c 0
 -264 1155 -234 1126 -234 1090 c 0
 -234 1055 -264 1025 -300 1025 c 0xbf
 -355 1025 -390 1080 -390 1140 c 0
 -390 1201 -350 1255 -294 1255 c 0
 -261 1255 -242 1231 -234 1212 c 1
 -210 1255 l 1
 -190 1255 l 2
 -134 1255 -100 1206 -100 1145 c 0
 -100 1130 -102 1115 -106 1101 c 1
 -86 1112 -70 1147 -70 1245 c 1
 0 1245 l 1
 0 1136 -18 1030 -190 1030 c 1
 -190 1075 l 1
 -168 1075 -154 1106 -154 1145 c 0
 -154 1171 -169 1197 -190 1205 c 1x7f
-300 1120 m 0
 -316 1120 -330 1107 -330 1090 c 0
 -330 1074 -316 1060 -300 1060 c 0
 -283 1060 -270 1074 -270 1090 c 0
 -270 1107 -283 1120 -300 1120 c 0
EndSplineSet
Substitution2: "Thai Tone & Vowel Above-Narrow" uni0E4A.narrow
Position2: "Nikhahit & Tone High-Left" dx=-190 dy=0 dh=0 dv=0
Position2: "Mai Han-Akat & Tone High-Left" dx=-260 dy=0 dh=0 dv=0
Position2: "Tone High-Left" dx=-180 dy=0 dh=0 dv=0
MultipleSubs2: "Tone High-Low" uni0E4A.low
EndChar

StartChar: uni0E3F
Encoding: 3647 3647 92
Width: 770
VWidth: 0
Flags: W
HStem: 0 90<200 340 410 550.712> 370 90<200 340 410 517.334> 715 85<200 340 410 511.423>
VStem: 100 100<90 370 460 715> 340 70<-150 0 90 370 460 714.895 800 950> 560 100<501.547 672.526> 600 100<140.917 315.54>
LayerCount: 2
Fore
SplineSet
340 950 m 1xfa
 410 950 l 1
 410 799.906 l 1
 602.964 796.242 660 686.188 660 580 c 0xfc
 660 516 632 458 579 421 c 1
 653 387 700 323 700 230 c 0
 700 83 613 0 460 0 c 2
 410 0 l 1
 410 -150 l 1
 340 -150 l 1
 340 0 l 1
 100 0 l 1
 100 800 l 1
 340 800 l 1
 340 950 l 1xfa
460 90 m 2
 562 90 600 154 600 230 c 0xfa
 600 330 530 370 430 370 c 2
 410 370 l 1
 410 90 l 1
 460 90 l 2
410 714.895 m 1
 410 460 l 1
 430 460 l 2
 522 460 560 516 560 580 c 0xfc
 560 666.541 525.016 712.425 410 714.895 c 1
340 460 m 1
 340 715 l 1
 200 715 l 1
 200 460 l 1
 340 460 l 1
340 90 m 1
 340 370 l 1
 200 370 l 1
 200 90 l 1
 340 90 l 1
EndSplineSet
EndChar

StartChar: uni0E11
Encoding: 3601 3601 93
Width: 770
VWidth: 0
Flags: W
HStem: 0 21G<240 350 580 680> 320 40<133.065 207.114> 450 40<132.638 207.114> 510 100<479.49 570.697> 555 55<132.803 222.952>
VStem: 60 65<365.005 503.016> 215 40<367.886 442.114> 240 110<0 300.022> 580 100<0 500.457>
LayerCount: 2
Fore
SplineSet
180 610 m 0xee80
 222 610 253 583 272 552 c 1
 301 610 l 1
 329 610 l 1xee80
 373 597 409 564 423 512 c 1
 452 565 493 610 545 610 c 0
 623 610 680 562 680 410 c 2
 680 0 l 1
 580 0 l 1
 580 410 l 2
 580 471 576 510 530 510 c 0
 503 510 457 479 428 428 c 1
 425 409 420 392 415 380 c 0
 390 319 350 304 350 200 c 2
 350 0 l 1
 240 0 l 1
 240 200 l 2
 240 336 350 358 350 460 c 0
 350 495 346 523 323 550 c 1
 290 490 l 1
 240 490 l 1xf580
 233 522 213 555 180 555 c 0
 137 555 118 516 115 470 c 1
 130 482 149 490 170 490 c 0
 217 490 255 452 255 405 c 0
 255 358 217 320 170 320 c 0
 99 320 60 382 60 460 c 0
 60 513 92 610 180 610 c 0xee80
170 450 m 0
 145 450 125 430 125 405 c 0
 125 380 145 360 170 360 c 0
 195 360 215 380 215 405 c 0
 215 430 195 450 170 450 c 0
EndSplineSet
EndChar

StartChar: uni0E12
Encoding: 3602 3602 94
Width: 930
VWidth: 0
Flags: W
HStem: -20 65<481.794 568.206> 145 475<415 525> 230 45<292.835 330> 365 45<292.158 367.842> 580 20G<740 840>
VStem: 80 100<201.04 504.15> 110 100<0.0914307 60.6174 120 339.184> 240 45<282.158 357.842> 375 45<284.025 357.842> 410 65<51.7943 139.107> 480 100<198.87 503.038> 575 65<51.7943 118.279> 740 100<92 600>
LayerCount: 2
Fore
SplineSet
525 145 m 0xc158
 497 145 475 123 475 95 c 0
 475 67 497 45 525 45 c 0
 553 45 575 67 575 95 c 0
 575 123 553 145 525 145 c 0xc158
330 365 m 0xb188
 305 365 285 345 285 320 c 0
 285 295 305 275 330 275 c 0
 355 275 375 295 375 320 c 0
 375 345 355 365 330 365 c 0xb188
330 410 m 0
 380 410 420 370 420 320 c 0
 420 171 210 107 210 -10 c 1
 210 -10 91 -6 90 30 c 1
 90 30 110 79 110 140 c 0xbb88
 110 242 80 285 80 420 c 0
 80 554 186 620 245 620 c 1
 330 550 l 1
 415 620 l 1
 474 620 580 554 580 420 c 2
 580 205 l 1xc528
 657 190 710 140 740 92 c 1
 740 600 l 1
 840 600 l 1
 840 60 l 2
 840 15 784 -10 730 -10 c 1
 730 -10 708 73 637 119 c 1
 639 111 640 103 640 95 c 0x8918
 640 31 589 -20 525 -20 c 0
 461 -20 410 31 410 95 c 0
 410 143 439 183 480 201 c 1
 480 420 l 2
 480 505 425 530 425 530 c 1
 330 460 l 1
 235 530 l 1
 235 530 180 505 180 420 c 0x8d68
 180 289 210 237 210 130 c 2
 210 120 l 1x8b08
 246 160 296 190 330 230 c 1
 280 230 240 270 240 320 c 0
 240 370 280 410 330 410 c 0
EndSplineSet
EndChar

StartChar: uni0E0C
Encoding: 3596 3596 95
Width: 930
VWidth: 0
Flags: W
HStem: -20 65<481.794 568.206> -10 60<196.518 283.482> 150 60<231.049 282.922> 400 20<279.299 310> 535 85<244.059 426.7> 580 20G<740 840>
VStem: 130 100<210 371.387> 130 60<57.0781 144.043> 290 60<56.5176 143.482> 410 65<51.7943 139.107> 480 100<198.87 481.05> 575 65<51.7943 118.279> 740 100<92 600>
LayerCount: 2
Fore
SplineSet
525 145 m 0xb0d8
 497 145 475 123 475 95 c 0
 475 67 497 45 525 45 c 0
 553 45 575 67 575 95 c 0
 575 123 553 145 525 145 c 0xb0d8
240 150 m 0
 212 150 190 128 190 100 c 0
 190 72 212 50 240 50 c 0x71c8
 268 50 290 72 290 100 c 0
 290 128 268 150 240 150 c 0
240 210 m 2
 301 210 350 161 350 100 c 0
 350 39 301 -10 240 -10 c 0
 179 -10 130 39 130 100 c 2x79c8
 130 290 l 2
 130 350 155 380 179 395 c 1
 80 420 l 1
 88 474 164 620 340 620 c 0
 481 620 580 535 580 400 c 2
 580 205 l 1x7ae8
 657 190 710 140 740 92 c 1
 740 600 l 1
 840 600 l 1
 840 60 l 2
 840 15 784 -10 730 -10 c 1
 730 -10 708 73 637 119 c 1
 639 111 640 103 640 95 c 0x74d8
 640 31 589 -20 525 -20 c 0
 461 -20 410 31 410 95 c 0
 410 143 439 183 480 201 c 1
 480 400 l 2
 480 482 426 535 340 535 c 0
 270 535 210 501 186 447 c 1
 310 420 l 1
 310 400 l 1
 310 400 230 396 230 290 c 2
 230 210 l 1xbae8
 240 210 l 2
EndSplineSet
EndChar

StartChar: uni0E09
Encoding: 3593 3593 96
Width: 670
VWidth: 0
Flags: W
HStem: -20 65<441.794 528.206> 180 55<121.172 169.111> 325 55<120.292 199.708> 535 85<227.534 412.466>
VStem: 60 55<240.292 319.708> 80 100<420 485.904> 170 90<76 180> 205 55<239.412 318.828> 370 65<51.7943 105.5> 460 100<210 485.904> 535 65<51.7943 138.518>
LayerCount: 2
Fore
SplineSet
371 106 m 1xf0a0
 309 57 270 -10 270 -10 c 1
 207 -10 170 15 170 60 c 2
 170 180 l 1xf2a0
 167 180 163 180 160 180 c 0
 105 180 60 225 60 280 c 0
 60 335 105 380 160 380 c 0
 215 380 260 335 260 280 c 2xf980
 260 76 l 1xf280
 300 133 376 197 460 212 c 1
 460 420 l 2
 460 481 410 535 320 535 c 0
 230 535 180 481 180 420 c 1
 80 420 l 1
 80 535 175 620 320 620 c 0
 465 620 560 535 560 420 c 2
 560 210 l 1xf4c0
 538 197 l 1
 575 178 600 139 600 95 c 0
 600 31 549 -20 485 -20 c 0
 421 -20 370 31 370 95 c 0
 370 99 370 102 371 106 c 1xf0a0
160 325 m 0
 135 325 115 305 115 280 c 0
 115 255 135 235 160 235 c 0
 185 235 205 255 205 280 c 0xf980
 205 305 185 325 160 325 c 0
485 145 m 0
 457 145 435 123 435 95 c 0
 435 67 457 45 485 45 c 0
 513 45 535 67 535 95 c 0xf0a0
 535 123 513 145 485 145 c 0
EndSplineSet
EndChar

StartChar: uni0E0A.alt
Encoding: 3681 3681 97
Width: 680
VWidth: 0
Flags: W
HStem: -20 85<308.391 451.609> 350 40<118.483 192.114> 480 40<131.488 192.114> 550 60<138.32 274.029> 570 90<512.295 630>
VStem: 60 50<395.153 496.568> 190 100<84.515 297.202> 200 40<397.886 472.114> 470 100<84.515 402.314>
LayerCount: 2
Fore
SplineSet
379 438 m 1xe680
 369 335 290 312 290 200 c 2
 290 130 l 2
 290 97 325 65 380 65 c 0
 435 65 470 97 470 130 c 2
 470 370 l 2
 470 394 414 423 379 438 c 1xe680
371 510 m 1
 419 585 506 660 630 660 c 1
 630 570 l 1
 529 570 453 524 408 477 c 1
 442 466 570 421 570 370 c 2
 570 130 l 2
 570 92 538 -20 380 -20 c 0
 222 -20 190 92 190 130 c 2
 190 200 l 2xee80
 190 336 300 344 300 460 c 0
 300 513 263 550 210 550 c 0
 177 550 149 538 131 517 c 1
 139 519 147 520 155 520 c 0
 202 520 240 482 240 435 c 0
 240 388 202 350 155 350 c 0
 95 350 60 395 60 455 c 0
 60 547 127 610 210 610 c 0xf580
 299 610 351 563 371 510 c 1
155 480 m 0
 130 480 110 460 110 435 c 0
 110 410 130 390 155 390 c 0
 180 390 200 410 200 435 c 0xe580
 200 460 180 480 155 480 c 0
EndSplineSet
EndChar

StartChar: uni0E0B.alt
Encoding: 3682 3682 98
Width: 710
VWidth: 0
Flags: W
HStem: -20 85<338.391 481.609> 320 40<133.065 207.114> 450 40<132.638 207.114> 555 55<132.803 222.952> 570 90<543.861 660>
VStem: 60 65<365.005 503.016> 215 40<367.886 442.114> 220 100<84.515 283.574> 500 100<84.515 401.94>
LayerCount: 2
Fore
SplineSet
500 370 m 2xe580
 500 390 461 414 428 430 c 1
 411 332 320 298 320 200 c 2
 320 130 l 2
 320 97 355 65 410 65 c 0
 465 65 500 97 500 130 c 2
 500 370 l 2xe580
180 610 m 0xf680
 222 610 253 583 272 552 c 1
 301 610 l 1
 329 610 l 1xf680
 370 598 405 567 421 520 c 1
 464 592 542 660 660 660 c 1
 660 570 l 1
 557 570 487 522 448 474 c 1
 492 459 600 417 600 370 c 2
 600 130 l 2
 600 92 568 -20 410 -20 c 0
 252 -20 220 92 220 130 c 2
 220 200 l 2xed80
 220 336 350 358 350 460 c 0
 350 495 346 523 323 550 c 1
 290 490 l 1
 240 490 l 1
 233 522 213 555 180 555 c 0
 137 555 118 516 115 470 c 1
 130 482 149 490 170 490 c 0
 217 490 255 452 255 405 c 0
 255 358 217 320 170 320 c 0
 99 320 60 382 60 460 c 0
 60 513 92 610 180 610 c 0xf680
170 450 m 0
 145 450 125 430 125 405 c 0
 125 380 145 360 170 360 c 0
 195 360 215 380 215 405 c 0
 215 430 195 450 170 450 c 0
EndSplineSet
EndChar

StartChar: uni0E28.alt
Encoding: 3683 3683 99
Width: 680
VWidth: 0
Flags: W
HStem: 0 21G<480 580> 230 45<291.979 367.842> 365 45<291.861 367.842> 535 85<235.906 423.865> 590 70<556.199 630>
VStem: 80 100<271.864 481.619> 90 120<15.3619 137.15> 110 100<0.0914307 268.59> 375 45<282.158 357.842> 480 100<0 481.388>
LayerCount: 2
Fore
SplineSet
330 365 m 0xe0c0
 305 365 285 345 285 320 c 0
 285 295 305 275 330 275 c 0
 355 275 375 295 375 320 c 0
 375 345 355 365 330 365 c 0xe0c0
330 410 m 0
 380 410 420 370 420 320 c 0
 420 270 380 230 330 230 c 0
 291 230 258 255 245 289 c 1
 221 243 210 179 210 120 c 2xf2c0
 210 -10 l 1xf1c0
 210 -10 91 -6 90 30 c 1xf2c0
 90 30 110 79 110 140 c 0xf1c0
 110 242 80 265 80 400 c 0
 80 537 184 620 330 620 c 0xf4c0
 394 620 450 604 493 574 c 1
 517 615 562 660 630 660 c 1
 630 590 l 1xecc0
 588 590 552 566 531 540 c 1
 562 504 580 457 580 400 c 2
 580 0 l 1
 480 0 l 1
 480 400 l 2
 480 482 421 535 330 535 c 0
 239 535 180 482 180 400 c 0xf4c0
 180 343 186 305 192 271 c 1
 212 346 258 410 330 410 c 0
EndSplineSet
EndChar

StartChar: uni0E2A.alt
Encoding: 3684 3684 100
Width: 660
VWidth: 0
Flags: W
HStem: -20 55<177.503 263.629> 135 55<176.038 263.629> 310 70<210.16 384.997> 535 85<224.605 415.734> 590 70<536.163 610>
VStem: 70 90<171 261.735> 80 100<420 490.586> 270 55<41.3707 128.629> 450 110<15.3619 252.492> 460 100<281 491.667>
LayerCount: 2
Fore
SplineSet
220 135 m 0xe1
 192 135 170 113 170 85 c 0
 170 57 192 35 220 35 c 0
 248 35 270 57 270 85 c 0
 270 113 248 135 220 135 c 0xe1
220 190 m 0
 278 190 325 143 325 85 c 0
 325 27 278 -20 220 -20 c 0
 147 -20 70 48 70 180 c 0xed80
 70 300 155 380 280 380 c 0
 366 380 427 338 460 281 c 1
 460 420 l 2
 460 481 418 535 320 535 c 0
 222 535 180 481 180 420 c 1
 80 420 l 1
 80 535 169 620 320 620 c 0xf340
 383 620 436 605 476 579 c 1
 501 618 544 660 610 660 c 1
 610 590 l 1
 570 590 537 569 515 545 c 1
 544 511 560 468 560 420 c 2xeb40
 560 30 l 2
 560 -6 450 -10 450 -10 c 1
 450 170 l 2
 450 238 401 310 300 310 c 0
 217 310 160 261 160 180 c 2
 160 171 l 1xed80
 177 183 198 190 220 190 c 0
EndSplineSet
EndChar

StartChar: uni0E2E.alt
Encoding: 3686 3686 101
Width: 660
VWidth: 0
Flags: W
HStem: -20 90<221.789 422.394> 170 55<191.104 238.216> 325 55<151.371 238.629> 535 85<218.298 411.773> 590 70<535.757 610>
VStem: 70 100<420 489.937> 90 100<102.805 170> 90 55<230.957 318.216> 245 55<231.371 318.629> 460 100<107 489.19>
LayerCount: 2
Fore
SplineSet
195 325 m 0xe1c0
 167 325 145 303 145 275 c 0
 145 247 167 225 195 225 c 0
 223 225 245 247 245 275 c 0
 245 303 223 325 195 325 c 0xe1c0
195 380 m 0
 253 380 300 333 300 275 c 0
 300 217 253 170 195 170 c 2
 190 170 l 1
 190 160 l 2xeac0
 190 95 246 70 325 70 c 0
 404 70 460 105 460 170 c 2
 460 420 l 2
 460 481 413 535 315 535 c 0
 217 535 170 481 170 420 c 1
 70 420 l 1
 70 535 164 620 315 620 c 0xf4c0
 380 620 434 604 475 578 c 1
 500 617 544 660 610 660 c 1
 610 590 l 1
 570 590 536 569 514 544 c 1
 544 510 560 468 560 420 c 2
 560 170 l 2
 560 34 457 -20 325 -20 c 0
 193 -20 90 24 90 160 c 2xeac0
 90 275 l 2
 90 333 137 380 195 380 c 0
EndSplineSet
EndChar

StartChar: B
Encoding: 66 66 102
Width: 770
VWidth: 0
Flags: W
HStem: 0 90<200 550.712> 370 90<200 517.334> 715 85<200 512.39>
VStem: 100 100<90 370 460 715> 560 100<501.547 670.682> 600 100<140.917 315.54>
AnchorPoint: "cedilla" 377.004 40 basechar 0
AnchorPoint: "ogonek" 377.004 40 basechar 0
AnchorPoint: "diac_bottom" 338.744 -50 basechar 0
AnchorPoint: "diac_top" 721.346 850 basechar 0
LayerCount: 2
Fore
SplineSet
400 715 m 2xf8
 200 715 l 1
 200 460 l 1
 430 460 l 2
 522 460 560 516 560 580 c 0
 560 669 523 715 400 715 c 2xf8
460 0 m 2
 100 0 l 1
 100 800 l 1
 400 800 l 2
 601 800 660 688 660 580 c 0xf8
 660 516 632 458 579 421 c 1
 653 387 700 323 700 230 c 0xf4
 700 83 613 0 460 0 c 2
460 90 m 2
 562 90 600 154 600 230 c 0xf4
 600 330 530 370 430 370 c 2
 200 370 l 1
 200 90 l 1
 460 90 l 2
EndSplineSet
EndChar

StartChar: period
Encoding: 46 46 103
Width: 320
VWidth: 0
Flags: W
HStem: 0 140<105.875 214.125>
VStem: 90 140<15.8748 124.125>
LayerCount: 2
Fore
SplineSet
230 70 m 0
 230 31 199 0 160 0 c 0
 121 0 90 31 90 70 c 0
 90 109 121 140 160 140 c 0
 199 140 230 109 230 70 c 0
EndSplineSet
EndChar

StartChar: x
Encoding: 120 120 104
Width: 650
VWidth: 0
Flags: W
HStem: 0 21G<20 155.353 494.647 630> 580 20G<50 185.347 464.653 600>
AnchorPoint: "ring_above" 614.076 680 basechar 0
AnchorPoint: "cedilla" 557.004 40 basechar 0
AnchorPoint: "diac_top" 606.324 650 basechar 0
AnchorPoint: "diac_bottom" 308.744 -50 basechar 0
LayerCount: 2
Fore
SplineSet
50 600 m 1
 170 600 l 1
 325 398 l 1
 480 600 l 1
 600 600 l 1
 385 320 l 1
 630 0 l 1
 510 0 l 1
 325 241 l 1
 140 0 l 1
 20 0 l 1
 265 320 l 1
 50 600 l 1
EndSplineSet
EndChar

StartChar: i
Encoding: 105 105 105
Width: 320
VWidth: 0
Flags: W
HStem: 0 21G<110 210> 580 20G<110 210> 720 140<105.875 214.125>
VStem: 90 140<735.875 844.125> 110 100<0 600>
AnchorPoint: "hook_above" 551.104 920 basechar 0
AnchorPoint: "diac_bottom" 138.744 -50 basechar 0
AnchorPoint: "ogonek" 177.004 40 basechar 0
AnchorPoint: "cedilla" 177.004 40 basechar 0
LayerCount: 2
Fore
SplineSet
230 790 m 0xf0
 230 751 199 720 160 720 c 0
 121 720 90 751 90 790 c 0
 90 829 121 860 160 860 c 0
 199 860 230 829 230 790 c 0xf0
110 600 m 1xe8
 210 600 l 1
 210 0 l 1
 110 0 l 1
 110 600 l 1xe8
EndSplineSet
EndChar

StartChar: o
Encoding: 111 111 106
Width: 680
VWidth: 0
Flags: W
HStem: -20 90<242.06 437.94> 535 85<245.106 434.894>
VStem: 80 100<131.241 465.395> 500 100<131.241 465.395>
AnchorPoint: "hook_above" 639.076 680 basechar 0
AnchorPoint: "ogonek" 357.004 40 basechar 0
AnchorPoint: "cedilla" 357.004 40 basechar 0
AnchorPoint: "diac_bottom" 318.744 -50 basechar 0
AnchorPoint: "diac_top" 616.324 650 basechar 0
LayerCount: 2
Fore
SplineSet
340 535 m 0
 255 535 180 489 180 360 c 2
 180 220 l 2
 180 111 255 70 340 70 c 0
 425 70 500 111 500 220 c 2
 500 360 l 2
 500 489 425 535 340 535 c 0
340 620 m 0
 484 620 600 528 600 360 c 2
 600 220 l 2
 600 57 484 -20 340 -20 c 0
 196 -20 80 57 80 220 c 2
 80 360 l 2
 80 528 196 620 340 620 c 0
EndSplineSet
EndChar

StartChar: O
Encoding: 79 79 107
Width: 820
VWidth: 0
Flags: W
HStem: -20 90<294.413 525.587> 735 85<298.958 521.042>
VStem: 90 100<170.439 624.08> 630 100<170.439 624.467>
AnchorPoint: "hook_above" 771.346 850 basechar 0
AnchorPoint: "ring_above" 733.086 760 basechar 0
AnchorPoint: "ogonek" 427.004 40 basechar 0
AnchorPoint: "cedilla" 427.004 40 basechar 0
AnchorPoint: "diac_bottom" 388.744 -50 basechar 0
AnchorPoint: "diac_top" 771.346 850 basechar 0
LayerCount: 2
Fore
SplineSet
630 520 m 2
 630 649 537 735 410 735 c 0
 283 735 190 649 190 520 c 2
 190 270 l 2
 190 150 279 70 410 70 c 0
 541 70 630 150 630 270 c 2
 630 520 l 2
730 520 m 2
 730 270 l 2
 730 88 587 -20 410 -20 c 0
 233 -20 90 88 90 270 c 2
 90 520 l 2
 90 706 233 820 410 820 c 0
 587 820 730 707 730 520 c 2
EndSplineSet
EndChar

StartChar: I
Encoding: 73 73 108
Width: 320
VWidth: 0
Flags: W
HStem: 0 21G<110 210> 780 20G<110 210>
VStem: 110 100<0 800>
AnchorPoint: "hook_above" 521.346 850 basechar 0
AnchorPoint: "ogonek" 177.004 40 basechar 0
AnchorPoint: "cedilla" 177.004 40 basechar 0
AnchorPoint: "diac_bottom" 138.744 -50 basechar 0
AnchorPoint: "diac_top" 521.346 850 basechar 0
LayerCount: 2
Fore
SplineSet
110 800 m 1
 210 800 l 1
 210 0 l 1
 110 0 l 1
 110 800 l 1
EndSplineSet
EndChar

StartChar: X
Encoding: 88 88 109
Width: 770
VWidth: 0
Flags: W
HStem: 0 21G<15 154.627 615.373 755> 780 20G<45 184.626 585.374 725>
AnchorPoint: "ring_above" 708.086 760 basechar 0
AnchorPoint: "cedilla" 667.004 40 basechar 0
AnchorPoint: "diac_bottom" 363.744 -50 basechar 0
AnchorPoint: "diac_top" 746.346 850 basechar 0
LayerCount: 2
Fore
SplineSet
45 800 m 1
 170 800 l 1
 385 506 l 1
 600 800 l 1
 725 800 l 1
 448 421 l 1
 755 0 l 1
 630 0 l 1
 385 335 l 1
 140 0 l 1
 15 0 l 1
 322 421 l 1
 45 800 l 1
EndSplineSet
EndChar

StartChar: H
Encoding: 72 72 110
Width: 800
VWidth: 0
Flags: W
HStem: 0 21G<100 200 600 700> 355 90<200 600> 780 20G<100 200 600 700>
VStem: 100 100<0 355 445 800> 600 100<0 355 445 800>
AnchorPoint: "cedilla" 657.004 40 basechar 0
AnchorPoint: "diac_bottom" 378.744 -50 basechar 0
AnchorPoint: "diac_top" 761.346 850 basechar 0
LayerCount: 2
Fore
SplineSet
700 0 m 1
 600 0 l 1
 600 355 l 1
 200 355 l 1
 200 0 l 1
 100 0 l 1
 100 355 l 1
 100 445 l 1
 100 800 l 1
 200 800 l 1
 200 445 l 1
 600 445 l 1
 600 800 l 1
 700 800 l 1
 700 445 l 1
 700 355 l 1
 700 0 l 1
EndSplineSet
EndChar

StartChar: P
Encoding: 80 80 111
Width: 740
VWidth: 0
Flags: W
HStem: 0 21G<100 200> 320 85<200 518.348> 715 85<200 518.348>
VStem: 100 100<0 320 405 715> 580 100<467.06 652.94>
AnchorPoint: "diac_top" 691.346 850 basechar 0
LayerCount: 2
Fore
SplineSet
420 800 m 2
 621 800 680 668 680 560 c 0
 680 452 621 320 420 320 c 2
 200 320 l 1
 200 0 l 1
 100 0 l 1
 100 800 l 1
 420 800 l 2
420 715 m 2
 200 715 l 1
 200 405 l 1
 420 405 l 2
 543 405 580 489 580 560 c 0
 580 631 543 715 420 715 c 2
EndSplineSet
EndChar

StartChar: p
Encoding: 112 112 112
Width: 710
VWidth: 0
Flags: W
HStem: -20 85<269.538 455.543> 530 90<275.148 462.578> 580 20G<100 200>
VStem: 100 100<-270 58 125.917 474.19 526 600> 530 100<144.583 461.685>
LayerCount: 2
Fore
SplineSet
200 439 m 1xd8
 200 164 l 1
 229 105 288 65 360 65 c 0
 445 65 530 111 530 260 c 2
 530 360 l 2
 530 489 452 530 360 530 c 0
 280 530 222 484 200 439 c 1xd8
200 -270 m 1
 100 -270 l 1
 100 600 l 1
 200 600 l 1xb8
 200 526 l 1
 237 580 298 620 380 620 c 0
 536 620 630 519 630 360 c 2
 630 260 l 2
 630 72 524 -20 380 -20 c 0
 305 -20 244 12 200 58 c 1
 200 -270 l 1
EndSplineSet
EndChar

StartChar: K
Encoding: 75 75 113
Width: 730
VWidth: 0
Flags: W
HStem: 0 21G<100 200 566.133 700> 375 90<200 303> 780 20G<100 200 525.851 650>
VStem: 100 100<0 375 465 800>
AnchorPoint: "diac_bottom" 348.744 -50 basechar 0
AnchorPoint: "diac_top" 731.346 850 basechar 0
LayerCount: 2
Fore
SplineSet
540 800 m 1
 650 800 l 1
 390 440 l 1
 700 0 l 1
 580 0 l 1
 320 375 l 1
 200 375 l 1
 200 0 l 1
 100 0 l 1
 100 800 l 1
 200 800 l 1
 200 465 l 1
 303 465 l 1
 540 800 l 1
EndSplineSet
EndChar

StartChar: j
Encoding: 106 106 114
Width: 340
VWidth: 0
Flags: W
HStem: -290 90<0 92.5679> 580 20G<130 230> 720 140<125.875 234.125>
VStem: 110 140<735.875 844.125> 130 100<-165.608 600>
AnchorPoint: "diac_bottom" 358.744 -50 basechar 0
LayerCount: 2
Fore
SplineSet
250 790 m 0xf0
 250 751 219 720 180 720 c 0
 141 720 110 751 110 790 c 0
 110 829 141 860 180 860 c 0
 219 860 250 829 250 790 c 0xf0
230 -100 m 2xe8
 230 -217 147 -290 0 -290 c 1
 0 -200 l 1
 61 -200 130 -178 130 -100 c 2
 130 600 l 1
 230 600 l 1
 230 -100 l 2xe8
EndSplineSet
EndChar

StartChar: D
Encoding: 68 68 115
Width: 780
VWidth: 0
Flags: W
HStem: 0 90<200 488.105> 715 85<200 477.313>
VStem: 100 100<90 715> 610 100<207.83 586.644>
AnchorPoint: "ogonek" 377.004 40 basechar 0
AnchorPoint: "cedilla" 377.004 40 basechar 0
AnchorPoint: "diac_bottom" 338.744 -50 basechar 0
AnchorPoint: "diac_top" 721.346 850 basechar 0
LayerCount: 2
Fore
SplineSet
310 715 m 2
 200 715 l 1
 200 90 l 1
 350 90 l 2
 489 90 610 143 610 330 c 2
 610 450 l 2
 610 639 521 715 310 715 c 2
310 800 m 2
 581 800 710 684 710 450 c 2
 710 330 l 2
 710 101 591 0 350 0 c 2
 100 0 l 1
 100 800 l 1
 310 800 l 2
EndSplineSet
EndChar

StartChar: E
Encoding: 69 69 116
Width: 670
VWidth: 0
Flags: W
HStem: 0 90<200 600> 355 90<200 560> 710 90<200 590>
VStem: 100 100<90 355 445 710>
CounterMasks: 1 e0
AnchorPoint: "hook_above" 711.346 850 basechar 0
AnchorPoint: "ring_above" 658.086 760 basechar 0
AnchorPoint: "cedilla" 357.004 40 basechar 0
AnchorPoint: "ogonek" 517.004 40 basechar 0
AnchorPoint: "diac_bottom" 328.744 -50 basechar 0
AnchorPoint: "diac_top" 711.346 850 basechar 0
LayerCount: 2
Fore
SplineSet
200 90 m 1
 600 90 l 1
 600 0 l 1
 200 0 l 1
 100 0 l 1
 100 90 l 1
 100 355 l 1
 100 445 l 1
 100 710 l 1
 100 800 l 1
 200 800 l 1
 590 800 l 1
 590 710 l 1
 200 710 l 1
 200 445 l 1
 560 445 l 1
 560 355 l 1
 200 355 l 1
 200 90 l 1
EndSplineSet
EndChar

StartChar: L
Encoding: 76 76 117
Width: 590
VWidth: 0
Flags: W
HStem: 0 90<200 580> 780 20G<100 200>
VStem: 100 100<90 800>
AnchorPoint: "diac_bottom" 328.744 -50 basechar 0
AnchorPoint: "diac_top" 511.346 850 basechar 0
LayerCount: 2
Fore
SplineSet
200 90 m 1
 580 90 l 1
 580 0 l 1
 200 0 l 1
 100 0 l 1
 100 90 l 1
 100 800 l 1
 200 800 l 1
 200 90 l 1
EndSplineSet
EndChar

StartChar: F
Encoding: 70 70 118
Width: 650
VWidth: 0
Flags: W
HStem: 0 21G<100 200> 355 90<200 560> 710 90<200 590>
VStem: 100 100<0 355 445 710>
AnchorPoint: "diac_top" 711.346 850 basechar 0
LayerCount: 2
Fore
SplineSet
200 0 m 1
 100 0 l 1
 100 355 l 1
 100 445 l 1
 100 710 l 1
 100 800 l 1
 200 800 l 1
 590 800 l 1
 590 710 l 1
 200 710 l 1
 200 445 l 1
 560 445 l 1
 560 355 l 1
 200 355 l 1
 200 0 l 1
EndSplineSet
EndChar

StartChar: J
Encoding: 74 74 119
Width: 540
VWidth: 0
Flags: W
HStem: -20 85<164.007 316.018> 780 20G<340 440>
VStem: 40 100<90.302 150> 340 100<90.302 800>
AnchorPoint: "diac_bottom" 238.744 -50 basechar 0
AnchorPoint: "diac_top" 751.346 850 basechar 0
LayerCount: 2
Fore
SplineSet
240 -20 m 0
 116 -20 40 53 40 150 c 1
 140 150 l 1
 140 99 174 65 240 65 c 0
 305 65 340 99 340 150 c 2
 340 800 l 1
 440 800 l 1
 440 150 l 2
 440 53 365 -20 240 -20 c 0
EndSplineSet
EndChar

StartChar: T
Encoding: 84 84 120
Width: 580
VWidth: 0
Flags: W
HStem: 0 21G<240 340> 710 90<50 240 340 530>
VStem: 240 100<0 710>
AnchorPoint: "cedilla" 297.004 40 basechar 0
AnchorPoint: "diac_bottom" 268.744 -50 basechar 0
AnchorPoint: "diac_top" 651.346 850 basechar 0
LayerCount: 2
Fore
SplineSet
50 710 m 1
 50 800 l 1
 240 800 l 1
 340 800 l 1
 530 800 l 1
 530 710 l 1
 340 710 l 1
 340 0 l 1
 240 0 l 1
 240 710 l 1
 50 710 l 1
EndSplineSet
EndChar

StartChar: N
Encoding: 78 78 121
Width: 800
VWidth: 0
Flags: W
HStem: 0 21G<100 200 587.302 700> 780 20G<100 212.698 600 700>
VStem: 100 100<0 630> 600 100<170 800>
AnchorPoint: "cedilla" 657.004 40 basechar 0
AnchorPoint: "diac_bottom" 378.744 -50 basechar 0
AnchorPoint: "diac_top" 771.346 850 basechar 0
LayerCount: 2
Fore
SplineSet
200 0 m 1
 100 0 l 1
 100 800 l 1
 200 800 l 1
 600 170 l 1
 600 800 l 1
 700 800 l 1
 700 0 l 1
 600 0 l 1
 200 630 l 1
 200 0 l 1
EndSplineSet
EndChar

StartChar: M
Encoding: 77 77 122
Width: 960
VWidth: 0
Flags: W
HStem: 0 21G<100 200 442.064 517.937 760 860> 780 20G<100 237.937 722.063 860>
VStem: 100 100<0 630> 760 100<0 630>
AnchorPoint: "cedilla" 797.004 40 basechar 0
AnchorPoint: "diac_top" 841.346 850 basechar 0
LayerCount: 2
Fore
SplineSet
860 0 m 1
 760 0 l 1
 760 630 l 1
 510 0 l 1
 480 0 l 1
 450 0 l 1
 200 630 l 1
 200 0 l 1
 100 0 l 1
 100 800 l 1
 200 800 l 1
 230 800 l 1
 480 170 l 1
 730 800 l 1
 760 800 l 1
 860 800 l 1
 860 0 l 1
EndSplineSet
EndChar

StartChar: U
Encoding: 85 85 123
Width: 800
VWidth: 0
Flags: W
HStem: -20 90<292.625 507.375> 780 20G<90 190 610 710>
VStem: 90 100<172.438 800> 610 100<172.438 800>
AnchorPoint: "hook_above" 761.346 850 basechar 0
AnchorPoint: "ring_above" 723.086 760 basechar 0
AnchorPoint: "ogonek" 417.004 40 basechar 0
AnchorPoint: "cedilla" 417.004 40 basechar 0
AnchorPoint: "diac_bottom" 378.744 -50 basechar 0
AnchorPoint: "diac_top" 761.346 850 basechar 0
LayerCount: 2
Fore
SplineSet
90 800 m 1
 190 800 l 1
 190 280 l 2
 190 131 297 70 400 70 c 0
 503 70 610 131 610 280 c 2
 610 800 l 1
 710 800 l 1
 710 280 l 2
 710 85 573 -20 400 -20 c 0
 227 -20 90 85 90 280 c 2
 90 800 l 1
EndSplineSet
EndChar

StartChar: b
Encoding: 98 98 124
Width: 710
VWidth: 0
Flags: W
HStem: -20 90<275.148 462.578> 0 21G<100 200> 535 85<269.538 455.543> 880 20G<100 200>
VStem: 100 100<0 74 125.81 474.083 542 900> 530 100<138.315 455.417>
AnchorPoint: "diac_bottom" 358.744 -50 basechar 0
AnchorPoint: "diac_top" 726.324 650 basechar 0
LayerCount: 2
Fore
SplineSet
360 535 m 0xbc
 288 535 229 495 200 436 c 1
 200 161 l 1
 222 116 280 70 360 70 c 0
 452 70 530 111 530 240 c 2
 530 340 l 2
 530 489 445 535 360 535 c 0xbc
100 900 m 1
 200 900 l 1
 200 542 l 1
 244 588 305 620 380 620 c 0
 524 620 630 528 630 340 c 2
 630 240 l 2
 630 81 536 -20 380 -20 c 0xbc
 298 -20 237 20 200 74 c 1
 200 0 l 1
 100 0 l 1x7c
 100 900 l 1
EndSplineSet
EndChar

StartChar: R
Encoding: 82 82 125
Width: 770
VWidth: 0
Flags: W
HStem: 0 21G<100 200 608.125 740> 320 85<200 430> 715 85<200 518.348>
VStem: 100 100<0 320 405 715> 580 100<466.92 652.94>
AnchorPoint: "diac_top" 741.346 850 basechar 0
LayerCount: 2
Fore
SplineSet
531 337 m 1
 740 0 l 1
 620 0 l 1
 430 320 l 1
 426 320 423 320 420 320 c 2
 200 320 l 1
 200 0 l 1
 100 0 l 1
 100 800 l 1
 420 800 l 2
 621 800 680 668 680 560 c 0
 680 475 643 376 531 337 c 1
420 715 m 2
 200 715 l 1
 200 405 l 1
 420 405 l 2
 543 405 580 489 580 560 c 0
 580 631 543 715 420 715 c 2
EndSplineSet
EndChar

StartChar: V
Encoding: 86 86 126
Width: 800
VWidth: 0
Flags: W
HStem: 0 21G<342 458> 780 20G<30 147.75 652.25 770>
AnchorPoint: "diac_top" 761.346 850 basechar 0
AnchorPoint: "diac_bottom" 378.744 -50 basechar 0
LayerCount: 2
Fore
SplineSet
350 0 m 1
 30 800 l 1
 140 800 l 1
 400 129 l 1
 660 800 l 1
 770 800 l 1
 450 0 l 1
 350 0 l 1
EndSplineSet
EndChar

StartChar: Y
Encoding: 89 89 127
Width: 700
VWidth: 0
Flags: W
HStem: 0 21G<300 400> 780 20G<30 160.526 539.474 670>
VStem: 300 100<0 320>
AnchorPoint: "hook_above" 711.346 850 basechar 0
LayerCount: 2
Fore
SplineSet
30 800 m 1
 150 800 l 1
 350 420 l 1
 550 800 l 1
 670 800 l 1
 400 320 l 1
 400 0 l 1
 300 0 l 1
 300 320 l 1
 30 800 l 1
EndSplineSet
EndChar

StartChar: A
Encoding: 65 65 128
Width: 800
VWidth: 0
Flags: W
HStem: 0 21G<30 147.758 652.242 770> 165 90<239 561> 780 20G<342 458>
AnchorPoint: "hook_above" 761.346 850 basechar 0
AnchorPoint: "ring_above" 723.086 760 basechar 0
AnchorPoint: "diac_bottom" 378.744 -50 basechar 0
AnchorPoint: "diac_top" 761.346 850 basechar 0
AnchorPoint: "ogonek" 707.004 40 basechar 0
AnchorPoint: "cedilla" 707.004 40 basechar 0
LayerCount: 2
Fore
SplineSet
561 255 m 1
 400 671 l 1
 239 255 l 1
 561 255 l 1
770 0 m 1
 660 0 l 1
 596 165 l 1
 204 165 l 1
 140 0 l 1
 30 0 l 1
 350 800 l 1
 450 800 l 1
 770 0 l 1
EndSplineSet
EndChar

StartChar: Q
Encoding: 81 81 129
Width: 820
VWidth: 0
Flags: W
HStem: -20 90<294.413 527.183> 735 85<298.958 521.042>
VStem: 90 100<170.439 624.08> 630 100<169.294 624.467>
AnchorPoint: "ring_above" 733.086 760 basechar 0
LayerCount: 2
Fore
SplineSet
730 520 m 2
 730 270 l 2
 730 192 704 127 659 79 c 1
 765 -25 l 1
 710 -80 l 1
 599 29 l 1
 546 -3 481 -20 410 -20 c 0
 233 -20 90 88 90 270 c 2
 90 520 l 2
 90 706 233 820 410 820 c 0
 587 820 730 707 730 520 c 2
630 520 m 2
 630 649 537 735 410 735 c 0
 283 735 190 649 190 520 c 2
 190 270 l 2
 190 150 279 70 410 70 c 0
 456 70 496 80 530 97 c 1
 420 205 l 1
 475 260 l 1
 590 147 l 1
 616 180 630 222 630 270 c 2
 630 520 l 2
EndSplineSet
EndChar

StartChar: Z
Encoding: 90 90 130
Width: 740
VWidth: 0
Flags: W
HStem: 0 100<200 680> 710 90<90 530>
AnchorPoint: "cedilla" 387.004 40 basechar 0
AnchorPoint: "diac_bottom" 348.744 -50 basechar 0
AnchorPoint: "diac_top" 741.346 850 basechar 0
LayerCount: 2
Fore
SplineSet
90 800 m 1
 660 800 l 1
 660 710 l 1
 200 100 l 1
 680 100 l 1
 680 0 l 1
 60 0 l 1
 60 100 l 1
 530 710 l 1
 90 710 l 1
 90 800 l 1
EndSplineSet
EndChar

StartChar: W
Encoding: 87 87 131
Width: 1100
VWidth: 0
Flags: W
HStem: 0 21G<264 375.625 724.375 836> 780 20G<30 145.609 499.361 600.639 954.391 1070>
AnchorPoint: "diac_bottom" 528.744 -50 basechar 0
AnchorPoint: "diac_top" 911.346 850 basechar 0
AnchorPoint: "ring_above" 873.086 760 basechar 0
LayerCount: 2
Fore
SplineSet
1070 800 m 1
 830 0 l 1
 820 0 l 1
 735 0 l 1
 730 0 l 1
 550 640 l 1
 370 0 l 1
 365 0 l 1
 280 0 l 1
 270 0 l 1
 30 800 l 1
 140 800 l 1
 322 151 l 1
 505 800 l 1
 595 800 l 1
 778 151 l 1
 960 800 l 1
 1070 800 l 1
EndSplineSet
EndChar

StartChar: S
Encoding: 83 83 132
Width: 790
VWidth: 0
Flags: W
HStem: -20 90<276.215 523.18> 730 90<278.583 501.417>
VStem: 80 100<158.809 250> 100 100<528.108 660.712> 580 100<590 659.859> 610 100<149.392 301.247>
AnchorPoint: "diac_top" 741.346 850 basechar 0
AnchorPoint: "cedilla" 417.004 40 basechar 0
LayerCount: 2
Fore
SplineSet
710 230 m 0xd4
 710 78 581 -20 395 -20 c 0
 198 -20 80 88 80 250 c 1
 180 250 l 1
 180 147 257 70 395 70 c 0
 533 70 610 137 610 230 c 0xe4
 610 330 510 364 390 380 c 0
 287 394 100 426 100 590 c 0
 100 694 202 820 390 820 c 0
 578 820 680 694 680 590 c 1
 580 590 l 1xd8
 580 665 508 730 390 730 c 0
 272 730 200 665 200 590 c 0
 200 513 290 481 390 470 c 0
 547 452 710 415 710 230 c 0xd4
EndSplineSet
EndChar

StartChar: u
Encoding: 117 117 133
Width: 660
VWidth: 0
Flags: W
HStem: -20 90<242.795 417.205> 580 20G<90 190 470 570>
VStem: 90 100<121.508 600> 470 100<121.508 600>
AnchorPoint: "hook_above" 629.076 680 basechar 0
AnchorPoint: "ring_above" 619.076 680 basechar 0
AnchorPoint: "ogonek" 347.004 40 basechar 0
AnchorPoint: "cedilla" 347.004 40 basechar 0
AnchorPoint: "diac_bottom" 308.744 -50 basechar 0
AnchorPoint: "diac_top" 606.324 650 basechar 0
LayerCount: 2
Fore
SplineSet
190 200 m 2
 190 113 254 70 330 70 c 0
 406 70 470 113 470 200 c 2
 470 600 l 1
 570 600 l 1
 570 200 l 2
 570 58 471 -20 330 -20 c 0
 189 -20 90 58 90 200 c 2
 90 600 l 1
 190 600 l 1
 190 200 l 2
EndSplineSet
EndChar

StartChar: C
Encoding: 67 67 134
Width: 810
VWidth: 0
Flags: W
HStem: -20 90<287.159 532.841> 735 85<289.846 530.154>
VStem: 90 100<161.213 640.616> 630 100<161.213 250 540 640.616>
AnchorPoint: "ogonek" 427.004 40 basechar 0
AnchorPoint: "diac_bottom" 388.744 -50 basechar 0
AnchorPoint: "diac_top" 771.346 850 basechar 0
AnchorPoint: "cedilla" 427.004 40 basechar 0
LayerCount: 2
Fore
SplineSet
410 820 m 0
 597 820 730 712 730 540 c 1
 630 540 l 1
 630 665 542 735 410 735 c 0
 278 735 190 665 190 540 c 2
 190 250 l 2
 190 135 283 70 410 70 c 0
 537 70 630 135 630 250 c 1
 730 250 l 1
 730 78 587 -20 410 -20 c 0
 233 -20 90 78 90 250 c 2
 90 540 l 2
 90 712 223 820 410 820 c 0
EndSplineSet
EndChar

StartChar: d
Encoding: 100 100 135
Width: 710
VWidth: 0
Flags: W
HStem: -20 90<247.422 434.852> 0 21G<510 610> 535 85<254.457 440.462> 880 20G<510 610>
VStem: 80 100<138.315 455.417> 510 100<0 74 125.81 474.083 542 900>
AnchorPoint: "diac_top" 566.324 650 basechar 0
AnchorPoint: "cedilla" 560.004 40 basechar 0
LayerCount: 2
Fore
SplineSet
350 535 m 0xbc
 265 535 180 489 180 340 c 2
 180 240 l 2
 180 111 258 70 350 70 c 0
 430 70 488 116 510 161 c 1
 510 436 l 1
 481 495 422 535 350 535 c 0xbc
610 900 m 1
 610 0 l 1
 510 0 l 1x7c
 510 74 l 1
 473 20 412 -20 330 -20 c 0
 174 -20 80 81 80 240 c 2
 80 340 l 2
 80 528 186 620 330 620 c 0
 405 620 466 588 510 542 c 1
 510 900 l 1
 610 900 l 1
EndSplineSet
EndChar

StartChar: G
Encoding: 71 71 136
Width: 820
VWidth: 0
Flags: W
HStem: -20 90<287.159 559.376> 325 85<430 640> 735 85<289.846 530.154>
VStem: 90 100<161.213 640.616> 630 100<540 640.616> 640 90<134.979 325>
AnchorPoint: "diac_top" 771.346 850 basechar 0
LayerCount: 2
Fore
SplineSet
410 70 m 0xf8
 522 70 592 98 640 160 c 1
 640 325 l 1
 430 325 l 1
 430 410 l 1
 730 410 l 1
 730 140 l 1xf4
 676 32 552 -20 410 -20 c 0
 233 -20 90 78 90 250 c 2
 90 540 l 2
 90 712 223 820 410 820 c 0
 597 820 730 712 730 540 c 1
 630 540 l 1
 630 665 542 735 410 735 c 0
 278 735 190 665 190 540 c 2
 190 250 l 2
 190 135 283 70 410 70 c 0xf8
EndSplineSet
EndChar

StartChar: g
Encoding: 103 103 137
Width: 710
VWidth: 0
Flags: W
HStem: -290 90<243.891 456.109> -20 85<254.457 440.462> 530 90<247.422 434.852> 580 20G<510 610>
VStem: 80 100<144.583 461.685> 90 100<-151.617 -80> 510 100<-151.617 58 125.917 474.19 526 600>
AnchorPoint: "diac_top" 656.324 650 basechar 0
LayerCount: 2
Fore
SplineSet
510 439 m 1xea
 488 484 430 530 350 530 c 0
 258 530 180 489 180 360 c 2
 180 260 l 2
 180 111 265 65 350 65 c 0
 422 65 481 105 510 164 c 1
 510 439 l 1xea
610 -80 m 2
 610 -207 520 -290 350 -290 c 0
 180 -290 90 -207 90 -80 c 1
 190 -80 l 1xd6
 190 -168 273 -200 350 -200 c 0
 427 -200 510 -168 510 -80 c 2
 510 58 l 1
 466 12 405 -20 330 -20 c 0
 186 -20 80 72 80 260 c 2
 80 360 l 2
 80 519 174 620 330 620 c 0xea
 412 620 473 580 510 526 c 1
 510 600 l 1
 610 600 l 1xda
 610 -80 l 2
EndSplineSet
EndChar

StartChar: l
Encoding: 108 108 138
Width: 350
VWidth: 0
Flags: W
HStem: -10 90<215.698 260> 880 20G<110 210>
VStem: 110 100<86.5698 900>
AnchorPoint: "diac_top" 545.355 930 basechar 0
AnchorPoint: "diac_bottom" 148.744 -50 basechar 0
LayerCount: 2
Fore
SplineSet
260 -10 m 1
 168 -10 110 26 110 100 c 2
 110 900 l 1
 210 900 l 1
 210 150 l 2
 210 96 223 80 260 80 c 1
 260 -10 l 1
EndSplineSet
EndChar

StartChar: n
Encoding: 110 110 139
Width: 670
VWidth: 0
Flags: W
HStem: 0 21G<90 190 490 590> 530 90<287.482 453.61> 580 20G<90 190>
VStem: 90 100<0 445.194 498 600> 490 100<0 493.39>
AnchorPoint: "diac_top" 626.324 650 basechar 0
AnchorPoint: "cedilla" 547.004 40 basechar 0
LayerCount: 2
Fore
SplineSet
90 600 m 1xb8
 190 600 l 1xb8
 190 498 l 1
 214 538 276 620 390 620 c 0
 512 620 590 542 590 420 c 2
 590 0 l 1
 490 0 l 1
 490 420 l 2
 490 495 438 530 370 530 c 0xd8
 270 530 212 458 190 394 c 1
 190 0 l 1
 90 0 l 1
 90 600 l 1xb8
EndSplineSet
EndChar

StartChar: m
Encoding: 109 109 140
Width: 970
VWidth: 0
Flags: W
HStem: 0 21G<90 190 440 540 790 890> 530 90<260.212 413.555 600.216 763.383> 580 20G<90 190>
VStem: 90 100<0 469.229 528 600> 440 100<0 444.625> 790 100<0 502.719>
CounterMasks: 1 1c
AnchorPoint: "diac_bottom" 458.744 -50 basechar 0
AnchorPoint: "diac_top" 756.324 650 basechar 0
AnchorPoint: "cedilla" 837.004 40 basechar 0
LayerCount: 2
Fore
SplineSet
90 600 m 1xbc
 190 600 l 1xbc
 190 528 l 1
 222 574 276 620 355 620 c 0
 429 620 486 585 516 526 c 1
 544 562 604 620 700 620 c 0
 822 620 890 542 890 420 c 2
 890 0 l 1
 790 0 l 1
 790 420 l 2
 790 495 758 530 690 530 c 0
 620 530 570 491 539 445 c 1
 540 437 540 429 540 420 c 2
 540 0 l 1
 440 0 l 1
 440 420 l 2
 440 495 408 530 340 530 c 0xdc
 271 530 221 486 190 435 c 1
 190 0 l 1
 90 0 l 1
 90 600 l 1xbc
EndSplineSet
EndChar

StartChar: q
Encoding: 113 113 141
Width: 710
VWidth: 0
Flags: W
HStem: -20 85<254.457 440.462> 530 90<247.422 434.852>
VStem: 80 100<144.583 260 360 461.685> 510 100<125.917 164 439 474.19>
AnchorPoint: "ring_above" 639.076 680 basechar 0
AnchorPoint: "diac_top" 626.324 650 basechar 0
AnchorPoint: "diac_bottom" 238.744 -50 basechar 0
LayerCount: 2
Fore
SplineSet
510 439 m 1
 510 164 l 1
 481 105 422 65 350 65 c 0
 265 65 180 111 180 260 c 2
 180 360 l 2
 180 489 258 530 350 530 c 0
 430 530 488 484 510 439 c 1
510 -270 m 1
 610 -270 l 1
 610 600 l 1
 510 600 l 1
 510 526 l 1
 473 580 412 620 330 620 c 0
 174 620 80 519 80 360 c 2
 80 260 l 2
 80 72 186 -20 330 -20 c 0
 405 -20 466 12 510 58 c 1
 510 -270 l 1
EndSplineSet
EndChar

StartChar: a
Encoding: 97 97 142
Width: 700
VWidth: 0
Flags: W
HStem: -20 90<225.691 405.827> -10 90<588.39 630> 290 70<221.5 480> 535 85<247.928 432.072>
VStem: 80 100<114.164 248.997> 100 100<420 488.613> 480 100<129.206 290 360 488.613>
AnchorPoint: "hook_above" 639.076 680 basechar 0
AnchorPoint: "ring_above" 639.076 680 basechar 0
AnchorPoint: "diac_bottom" 328.744 -50 basechar 0
AnchorPoint: "diac_top" 616.324 650 basechar 0
AnchorPoint: "ogonek" 587.004 40 basechar 0
AnchorPoint: "cedilla" 587.004 40 basechar 0
LayerCount: 2
Fore
SplineSet
480 290 m 1xba
 320 290 l 2
 244 290 180 257 180 180 c 0
 180 110 244 70 320 70 c 0
 402 70 458 111 480 175 c 1
 480 290 l 1xba
200 420 m 1xb6
 100 420 l 1
 100 542 199 620 340 620 c 0
 481 620 580 542 580 420 c 2
 580 150 l 2
 580 96 593 80 630 80 c 1
 630 -10 l 1x76
 551 -10 498 16 484 70 c 1
 441 17 378 -20 300 -20 c 0
 167 -20 80 70 80 180 c 0xba
 80 304 185 360 310 360 c 2
 480 360 l 1
 480 420 l 2
 480 487 426 535 340 535 c 0
 254 535 200 487 200 420 c 1xb6
EndSplineSet
EndChar

StartChar: h
Encoding: 104 104 143
Width: 680
VWidth: 0
Flags: W
HStem: 0 21G<100 200 500 600> 530 90<297.482 463.61> 880 20G<100 200>
VStem: 100 100<0 445.194 498 900> 500 100<0 493.39>
AnchorPoint: "diac_top" 726.324 650 basechar 0
AnchorPoint: "cedilla" 557.004 40 basechar 0
LayerCount: 2
Fore
SplineSet
100 900 m 1
 200 900 l 1
 200 600 l 1
 200 498 l 1
 224 538 286 620 400 620 c 0
 522 620 600 542 600 420 c 2
 600 0 l 1
 500 0 l 1
 500 420 l 2
 500 495 448 530 380 530 c 0
 280 530 222 458 200 394 c 1
 200 0 l 1
 100 0 l 1
 100 600 l 1
 100 900 l 1
EndSplineSet
EndChar

StartChar: e
Encoding: 101 101 144
Width: 680
VWidth: 0
Flags: W
HStem: -20 90<237.817 442.183> 290 70<180 500> 535 85<245.106 434.894>
VStem: 80 100<123.204 290 360 465.395> 500 100<123.204 200 360 465.395>
AnchorPoint: "ring_above" 629.076 680 basechar 0
AnchorPoint: "diac_top" 616.324 650 basechar 0
AnchorPoint: "cedilla" 357.004 40 basechar 0
AnchorPoint: "ogonek" 357.004 40 basechar 0
LayerCount: 2
Fore
SplineSet
600 360 m 2
 600 290 l 1
 180 290 l 1
 180 200 l 2
 180 101 268 70 340 70 c 0
 412 70 500 101 500 200 c 1
 600 200 l 1
 600 47 468 -20 340 -20 c 0
 212 -20 80 47 80 200 c 2
 80 360 l 2
 80 528 196 620 340 620 c 0
 484 620 600 528 600 360 c 2
500 360 m 1
 500 489 425 535 340 535 c 0
 255 535 180 489 180 360 c 1
 500 360 l 1
EndSplineSet
EndChar

StartChar: c
Encoding: 99 99 145
Width: 640
VWidth: 0
Flags: W
HStem: -20 90<228.867 440.406> 535 85<234.493 433.978>
VStem: 80 100<115.662 481.582> 480 100<108.975 190 410 487.02>
AnchorPoint: "diac_bottom" 313.744 -50 basechar 0
AnchorPoint: "diac_top" 611.324 650 basechar 0
AnchorPoint: "cedilla" 352.004 40 basechar 0
LayerCount: 2
Fore
SplineSet
180 390 m 2
 180 190 l 2
 180 106 245 70 335 70 c 0
 425 70 480 96 480 190 c 1
 580 190 l 1
 580 52 479 -20 335 -20 c 0
 191 -20 80 42 80 190 c 2
 80 390 l 2
 80 538 191 620 335 620 c 0
 479 620 580 538 580 410 c 1
 480 410 l 1
 480 494 425 535 335 535 c 0
 245 535 180 494 180 390 c 2
EndSplineSet
EndChar

StartChar: w
Encoding: 119 119 146
Width: 850
VWidth: 0
Flags: W
HStem: 0 21G<204.333 315.169 534.831 645.667> 580 20G<40 150 379.831 470.169 700 810>
AnchorPoint: "diac_bottom" 403.744 -50 basechar 0
AnchorPoint: "diac_top" 701.324 650 basechar 0
AnchorPoint: "ring_above" 714.076 680 basechar 0
LayerCount: 2
Fore
SplineSet
705 600 m 1
 810 600 l 1
 640 0 l 1
 620 0 l 1
 555 0 l 1
 540 0 l 1
 425 445 l 1
 310 0 l 1
 295 0 l 1
 230 0 l 1
 210 0 l 1
 40 600 l 1
 145 600 l 1
 263 128 l 1
 385 600 l 1
 465 600 l 1
 587 128 l 1
 705 600 l 1
EndSplineSet
EndChar

StartChar: v
Encoding: 118 118 147
Width: 660
VWidth: 0
Flags: W
HStem: 0 21G<272 388> 580 20G<40 157.5 502.5 620>
LayerCount: 2
Fore
SplineSet
510 600 m 1
 620 600 l 1
 380 0 l 1
 375 0 l 1
 285 0 l 1
 280 0 l 1
 40 600 l 1
 150 600 l 1
 330 120 l 1
 510 600 l 1
EndSplineSet
EndChar

StartChar: z
Encoding: 122 122 148
Width: 620
VWidth: 0
Flags: W
HStem: 0 100<190 560> 510 90<80 430>
AnchorPoint: "cedilla" 317.004 40 basechar 0
LayerCount: 2
Fore
SplineSet
80 600 m 1
 550 600 l 1
 550 510 l 1
 190 100 l 1
 560 100 l 1
 560 0 l 1
 60 0 l 1
 60 100 l 1
 430 510 l 1
 80 510 l 1
 80 600 l 1
EndSplineSet
EndChar

StartChar: y
Encoding: 121 121 149
Width: 660
VWidth: 0
Flags: W
HStem: -290 90<100 202.938> 580 20G<40 157.5 502.5 620>
AnchorPoint: "hook_above" 606.324 650 basechar 0
AnchorPoint: "diac_bottom" 498.744 -50 basechar 0
AnchorPoint: "diac_top" 606.324 650 basechar 0
AnchorPoint: "ogonek" 298.744 -50 basechar 0
AnchorPoint: "ring_above" 619.076 680 basechar 0
LayerCount: 2
Fore
SplineSet
510 600 m 1
 620 600 l 1
 380 0 l 1
 310 -180 l 1
 276 -264 238 -290 100 -290 c 1
 100 -200 l 1
 181 -200 197 -188 220 -150 c 1
 280 0 l 1
 40 600 l 1
 150 600 l 1
 330 120 l 1
 510 600 l 1
EndSplineSet
EndChar

StartChar: r
Encoding: 114 114 150
Width: 410
VWidth: 0
Flags: W
HStem: 0 21G<90 190> 510 100<280.99 380> 580 20G<90 190>
VStem: 90 100<0 432.981 496 600>
AnchorPoint: "diac_bottom" 118.744 -50 basechar 0
AnchorPoint: "diac_top" 416.324 650 basechar 0
LayerCount: 2
Fore
SplineSet
90 600 m 1xb0
 190 600 l 1xb0
 190 496 l 1
 219 541 279 610 380 610 c 1
 380 510 l 1xd0
 288 510 221 457 190 393 c 1
 190 0 l 1
 90 0 l 1
 90 600 l 1xb0
EndSplineSet
EndChar

StartChar: numbersign
Encoding: 35 35 151
Width: 910
VWidth: 0
Flags: W
HStem: 0 21G<195 278.739 485 568.739> 230 70<80 238 331 528 621 810> 500 70<100 289 382 579 672 830> 780 20G<341.261 425 631.261 715>
LayerCount: 2
Fore
SplineSet
541 300 m 1
 579 500 l 1
 369 500 l 1
 331 300 l 1
 541 300 l 1
621 300 m 1
 810 300 l 1
 810 230 l 1
 608 230 l 1
 565 0 l 1
 485 0 l 1
 528 230 l 1
 318 230 l 1
 275 0 l 1
 195 0 l 1
 238 230 l 1
 80 230 l 1
 80 300 l 1
 251 300 l 1
 289 500 l 1
 100 500 l 1
 100 570 l 1
 302 570 l 1
 345 800 l 1
 425 800 l 1
 382 570 l 1
 592 570 l 1
 635 800 l 1
 715 800 l 1
 672 570 l 1
 830 570 l 1
 830 500 l 1
 659 500 l 1
 621 300 l 1
EndSplineSet
EndChar

StartChar: asterisk
Encoding: 42 42 152
Width: 540
VWidth: 0
Flags: W
HStem: 520 380
VStem: 235 70<750 900>
LayerCount: 2
Fore
SplineSet
448 796 m 1
 469 730 l 1
 327 683 l 1
 415 562 l 1
 359 520 l 1
 270 642 l 1
 181 520 l 1
 125 562 l 1
 213 683 l 1
 71 730 l 1
 92 796 l 1
 235 750 l 1
 235 900 l 1
 305 900 l 1
 305 750 l 1
 448 796 l 1
EndSplineSet
EndChar

StartChar: s
Encoding: 115 115 153
Width: 680
VWidth: 0
Flags: W
HStem: -20 90<226.121 453.879> 530 90<241.551 438.449>
VStem: 80 100<111.992 170> 100 100<387.596 491.015> 480 100<440 490.994> 500 100<111.481 225.338>
AnchorPoint: "diac_top" 616.324 650 basechar 0
AnchorPoint: "cedilla" 357.004 40 basechar 0
LayerCount: 2
Fore
SplineSet
80 170 m 1xe4
 180 170 l 1
 180 110 243 70 340 70 c 0
 437 70 500 110 500 170 c 0xe4
 500 242 418 261 340 270 c 0
 232 282 100 317 100 440 c 0
 100 522 181 620 340 620 c 0
 499 620 580 522 580 440 c 1
 480 440 l 1
 480 479 433 530 340 530 c 0
 247 530 200 479 200 440 c 0xd8
 200 378 266 359 340 350 c 0
 463 335 600 313 600 170 c 0
 600 70 514 -20 340 -20 c 0
 166 -20 80 70 80 170 c 1xe4
EndSplineSet
EndChar

StartChar: f
Encoding: 102 102 154
Width: 420
VWidth: 0
Flags: W
HStem: 0 21G<150 250> 520 80<40 150 250 380> 810 90<287.432 380>
VStem: 150 100<0 520 600 775.608>
AnchorPoint: "diac_top" 655.355 930 basechar 0
LayerCount: 2
Fore
SplineSet
40 520 m 1
 40 600 l 1
 150 600 l 1
 150 710 l 2
 150 827 233 900 380 900 c 1
 380 810 l 1
 319 810 250 788 250 710 c 2
 250 600 l 1
 380 600 l 1
 380 520 l 1
 250 520 l 1
 250 0 l 1
 150 0 l 1
 150 520 l 1
 40 520 l 1
EndSplineSet
EndChar

StartChar: t
Encoding: 116 116 155
Width: 420
VWidth: 0
Flags: W
HStem: 0 21G<160 260> 520 80<30 160 260 390>
VStem: 160 100<0 520 600 780>
AnchorPoint: "cedilla" 217.004 40 basechar 0
AnchorPoint: "diac_top" 579.848 870 basechar 0
AnchorPoint: "diac_bottom" 190.744 -50 basechar 0
LayerCount: 2
Fore
SplineSet
230 840 m 1
 260 840 l 1
 260 600 l 1
 390 600 l 1
 390 520 l 1
 260 520 l 1
 260 0 l 1
 160 0 l 1
 160 520 l 1
 30 520 l 1
 30 600 l 1
 160 600 l 1
 160 780 l 1
 230 840 l 1
EndSplineSet
EndChar

StartChar: k
Encoding: 107 107 156
Width: 620
VWidth: 0
Flags: W
HStem: 0 21G<100 200 456.286 590> 280 90<200 275> 580 20G<425.652 550> 880 20G<100 200>
VStem: 100 100<0 280 370 900>
AnchorPoint: "diac_bottom" 298.744 -50 basechar 0
AnchorPoint: "diac_top" 696.324 650 basechar 0
LayerCount: 2
Fore
SplineSet
440 600 m 1
 550 600 l 1
 355 335 l 1
 590 0 l 1
 470 0 l 1
 278 280 l 1
 200 280 l 1
 200 0 l 1
 100 0 l 1
 100 900 l 1
 200 900 l 1
 200 370 l 1
 275 370 l 1
 440 600 l 1
EndSplineSet
EndChar

StartChar: hyphen
Encoding: 45 45 157
Width: 560
VWidth: 0
Flags: W
HStem: 285 70<80 480>
LayerCount: 2
Fore
SplineSet
80 355 m 1
 480 355 l 1
 480 285 l 1
 80 285 l 1
 80 355 l 1
EndSplineSet
EndChar

StartChar: bar
Encoding: 124 124 158
Width: 320
VWidth: 0
Flags: W
HStem: 880 20G<120 200>
VStem: 120 80<-180 900>
LayerCount: 2
Fore
SplineSet
120 900 m 1
 200 900 l 1
 200 -180 l 1
 120 -180 l 1
 120 900 l 1
EndSplineSet
EndChar

StartChar: slash
Encoding: 47 47 159
Width: 480
VWidth: 0
Flags: W
HStem: 880 20G<334.815 420>
VStem: 60 360
LayerCount: 2
Fore
SplineSet
340 900 m 1
 420 900 l 1
 140 -180 l 1
 60 -180 l 1
 340 900 l 1
EndSplineSet
EndChar

StartChar: colon
Encoding: 58 58 160
Width: 320
VWidth: 0
Flags: W
HStem: 0 140<105.875 214.125> 420 140<105.875 214.125>
VStem: 90 140<15.8748 124.125 435.875 544.125>
LayerCount: 2
Fore
SplineSet
230 490 m 0
 230 451 199 420 160 420 c 0
 121 420 90 451 90 490 c 0
 90 529 121 560 160 560 c 0
 199 560 230 529 230 490 c 0
230 70 m 0
 230 31 199 0 160 0 c 0
 121 0 90 31 90 70 c 0
 90 109 121 140 160 140 c 0
 199 140 230 109 230 70 c 0
EndSplineSet
EndChar

StartChar: backslash
Encoding: 92 92 161
Width: 480
VWidth: 0
Flags: W
LayerCount: 2
Fore
SplineSet
140 900 m 1
 60 900 l 1
 340 -180 l 1
 420 -180 l 1
 140 900 l 1
EndSplineSet
EndChar

StartChar: seven
Encoding: 55 55 162
Width: 660
Flags: W
HStem: 0 21G<240 340> 710 90<90 460>
VStem: 240 100<0 379.596>
LayerCount: 2
Fore
SplineSet
240 0 m 1
 240 210 l 2
 240 510 460 710 460 710 c 1
 90 710 l 1
 90 800 l 1
 570 800 l 1
 570 710 l 1
 570 710 340 516 340 210 c 2
 340 0 l 1
 240 0 l 1
EndSplineSet
EndChar

StartChar: exclam
Encoding: 33 33 163
Width: 320
VWidth: 0
Flags: W
HStem: 0 140<105.875 214.125> 880 20G<110 210>
VStem: 90 140<15.8748 124.125> 110 100<309.6 900> 130 60<240 290.4>
LayerCount: 2
Fore
SplineSet
110 900 m 1xd0
 210 900 l 1
 210 360 l 1xd0
 190 240 l 1
 130 240 l 1xc8
 110 360 l 1
 110 900 l 1xd0
230 70 m 0xe0
 230 31 199 0 160 0 c 0
 121 0 90 31 90 70 c 0
 90 109 121 140 160 140 c 0
 199 140 230 109 230 70 c 0xe0
EndSplineSet
EndChar

StartChar: quotedbl
Encoding: 34 34 164
Width: 440
VWidth: 0
Flags: W
HStem: 560 240<85 155 285 355>
VStem: 85 70<560 660.8> 285 70<560 660.8>
LayerCount: 2
Fore
SplineSet
265 800 m 1
 375 800 l 1
 355 560 l 1
 285 560 l 1
 265 800 l 1
65 800 m 1
 175 800 l 1
 155 560 l 1
 85 560 l 1
 65 800 l 1
EndSplineSet
EndChar

StartChar: dollar
Encoding: 36 36 165
Width: 790
VWidth: 0
Flags: W
HStem: -18.8177 90.5714<275.831 360 430 524.582> 728.534 90.3649<273.314 360 430 506.472>
VStem: 80 100<157.45 250> 100 100<528.225 662.321> 360 70<-150 -16.6331 71.7537 373.781 474.014 727.349 816.448 950> 580 100<590 661.666> 610 100<147.403 302.522>
LayerCount: 2
Fore
SplineSet
360 950 m 1xd8
 430 950 l 1
 430 818.022 l 1
 592.424 801.622 680 686.367 680 590 c 1
 580 590 l 1xdc
 580 656.105 524.066 714.441 430 727.349 c 1
 430 464.928 l 1
 573.493 444.654 710 399.299 710 230 c 0
 710 87.7301 596.987 -7.23205 430 -18.8068 c 1
 430 -150 l 1
 360 -150 l 1
 360 -18.8177 l 1
 184.106 -6.68657 80 97.8358 80 250 c 1
 180 250 l 1xea
 180 156.063 244.046 83.7517 360 71.7537 c 1
 360 384.355 l 1
 254.516 400.917 100 440.923 100 590 c 0
 100 688.326 191.174 806.317 360 818.899 c 1
 360 950 l 1xd8
360 474.014 m 1
 360 728.534 l 1
 259.912 718.509 200 658.415 200 590 c 0
 200 520.8 272.689 487.945 360 474.014 c 1
430 373.781 m 1
 430 71.5282 l 1
 545.954 81.9919 610 145.183 610 230 c 0xca
 610 318.641 531.427 355.425 430 373.781 c 1
EndSplineSet
EndChar

StartChar: percent
Encoding: 37 37 166
Width: 840
VWidth: 0
Flags: W
HStem: -10 65<556.565 663.435> 0 21G<90 204> 285 65<556.565 663.435> 450 65<176.565 283.435> 745 65<176.565 283.435> 780 20G<636 750>
VStem: 70 80<543.733 716.267> 310 80<543.733 716.267> 450 80<83.7326 256.267> 690 80<83.7326 256.267>
LayerCount: 2
Fore
SplineSet
650 800 m 1x77c0
 750 800 l 1
 190 0 l 1
 90 0 l 1
 650 800 l 1x77c0
230 810 m 0x3bc0
 324 810 390 729 390 630 c 0
 390 531 324 450 230 450 c 0
 136 450 70 531 70 630 c 0
 70 729 136 810 230 810 c 0x3bc0
230 745 m 0
 173 745 150 682 150 630 c 0
 150 578 173 515 230 515 c 0
 287 515 310 578 310 630 c 0
 310 682 287 745 230 745 c 0
610 350 m 0
 704 350 770 269 770 170 c 0
 770 71 704 -10 610 -10 c 0xb3c0
 516 -10 450 71 450 170 c 0
 450 269 516 350 610 350 c 0
610 285 m 0
 553 285 530 222 530 170 c 0
 530 118 553 55 610 55 c 0
 667 55 690 118 690 170 c 0
 690 222 667 285 610 285 c 0
EndSplineSet
EndChar

StartChar: quotesingle
Encoding: 39 39 167
Width: 240
VWidth: 0
Flags: W
HStem: 560 240<85 155>
VStem: 85 70<560 660.8>
LayerCount: 2
Fore
SplineSet
65 800 m 1
 175 800 l 1
 155 560 l 1
 85 560 l 1
 65 800 l 1
EndSplineSet
EndChar

StartChar: parenleft
Encoding: 40 40 168
Width: 400
VWidth: 0
Flags: W
VStem: 90 90<71.4651 648.535>
LayerCount: 2
Fore
SplineSet
90 360 m 1
 90 390 l 2
 90 706 160 848 360 920 c 1
 360 870 l 1
 208 794 180 667 180 390 c 2
 180 360 l 1
 180 330 l 2
 180 53 208 -74 360 -150 c 1
 360 -200 l 1
 160 -128 90 14 90 330 c 2
 90 360 l 1
EndSplineSet
EndChar

StartChar: parenright
Encoding: 41 41 169
Width: 400
VWidth: 0
Flags: W
VStem: 220 90<71.4651 330 390 648.535>
LayerCount: 2
Fore
SplineSet
310 360 m 1
 310 390 l 2
 310 706 240 848 40 920 c 1
 40 870 l 1
 192 794 220 667 220 390 c 2
 220 360 l 1
 220 330 l 2
 220 53 192 -74 40 -150 c 1
 40 -200 l 1
 240 -128 310 14 310 330 c 2
 310 360 l 1
EndSplineSet
EndChar

StartChar: plus
Encoding: 43 43 170
Width: 560
VWidth: 0
Flags: W
HStem: 285 70<80 240 320 480>
VStem: 240 80<130 285 355 510>
LayerCount: 2
Fore
SplineSet
320 130 m 1
 240 130 l 1
 240 285 l 1
 80 285 l 1
 80 355 l 1
 240 355 l 1
 240 510 l 1
 320 510 l 1
 320 355 l 1
 480 355 l 1
 480 285 l 1
 320 285 l 1
 320 130 l 1
EndSplineSet
EndChar

StartChar: comma
Encoding: 44 44 171
Width: 320
VWidth: 0
Flags: W
HStem: -150 290
VStem: 160 80<-53.2049 0>
LayerCount: 2
Fore
SplineSet
160 140 m 0
 211 140 240 101 240 50 c 0
 240 -28 194 -107 135 -150 c 1
 80 -150 l 1
 130 -107 160 -55 160 0 c 1
 121 0 90 31 90 70 c 0
 90 109 121 140 160 140 c 0
EndSplineSet
EndChar

StartChar: zero
Encoding: 48 48 172
Width: 660
Flags: W
HStem: -20 90<242.856 417.144> 730 90<242.856 417.144>
VStem: 80 100<139.963 660.036> 480 100<139.963 660.036>
LayerCount: 2
Fore
SplineSet
80 240 m 2
 80 560 l 2
 80 715 175 820 330 820 c 0
 485 820 580 715 580 560 c 2
 580 240 l 2
 580 85 485 -20 330 -20 c 0
 175 -20 80 85 80 240 c 2
180 240 m 2
 180 141 232 70 330 70 c 0
 428 70 480 141 480 240 c 2
 480 560 l 2
 480 659 428 730 330 730 c 0
 232 730 180 659 180 560 c 2
 180 240 l 2
EndSplineSet
EndChar

StartChar: one
Encoding: 49 49 173
Width: 660
Flags: W
HStem: 0 21G<370 470> 525 95<110 227.155> 780 20G<370 470>
VStem: 370 100<0 630 732.219 800>
LayerCount: 2
Fore
SplineSet
370 630 m 1
 329 567 209 525 110 525 c 1
 110 620 l 1
 226 620 370 706 370 800 c 1
 470 800 l 1
 470 0 l 1
 370 0 l 1
 370 630 l 1
EndSplineSet
EndChar

StartChar: two
Encoding: 50 50 174
Width: 660
Flags: W
HStem: 0 90<190 580> 730 90<243.566 416.434>
VStem: 80 110<90 176.795> 90 100<595 677.393> 470 100<517.911 677.964>
LayerCount: 2
Fore
SplineSet
470 595 m 0xe8
 470 670 420 730 330 730 c 0
 240 730 190 670 190 595 c 1
 90 595 l 1xd8
 90 719 188 820 330 820 c 0
 472 820 570 719 570 595 c 0
 570 483 483 405 390 340 c 0
 294 273 190 195 190 90 c 1
 580 90 l 1
 580 0 l 1
 80 0 l 1
 80 90 l 2
 80 207 176 297 270 370 c 0
 351 433 470 495 470 595 c 0xe8
EndSplineSet
EndChar

StartChar: three
Encoding: 51 51 175
Width: 660
Flags: W
HStem: -20 90<224.873 415.127> 375 80<240 403.848> 730 90<233.566 406.434>
VStem: 60 100<135.296 220> 80 100<595 677.393> 460 100<510.52 677.964> 480 100<134.197 307.748>
LayerCount: 2
Fore
SplineSet
60 220 m 1xf2
 160 220 l 1
 160 137 217 70 320 70 c 0
 423 70 480 137 480 220 c 0xf2
 480 303 423 375 320 375 c 2
 240 375 l 1
 240 455 l 1
 320 455 l 2
 410 455 460 520 460 595 c 0
 460 670 410 730 320 730 c 0
 230 730 180 670 180 595 c 1
 80 595 l 1
 80 719 178 820 320 820 c 0
 462 820 560 719 560 595 c 0xec
 560 522 526 458 468 418 c 1
 538 378 580 307 580 220 c 0
 580 82 476 -20 320 -20 c 0
 164 -20 60 82 60 220 c 1xf2
EndSplineSet
EndChar

StartChar: four
Encoding: 52 52 176
Width: 660
Flags: W
HStem: 0 21G<410 510> 150 90<170 410 510 590> 780 20G<397.857 510>
VStem: 410 100<0 150 240 630>
LayerCount: 2
Fore
SplineSet
70 240 m 1
 410 800 l 1
 510 800 l 1
 510 240 l 1
 590 240 l 1
 590 150 l 1
 510 150 l 1
 510 0 l 1
 410 0 l 1
 410 150 l 1
 70 150 l 1
 70 240 l 1
170 240 m 1
 410 240 l 1
 410 630 l 1
 170 240 l 1
EndSplineSet
EndChar

StartChar: five
Encoding: 53 53 177
Width: 660
Flags: W
HStem: -20 90<242.856 417.144> 410 90<236.494 417.144> 710 90<240 540>
VStem: 80 100<139.963 240> 480 100<138.027 341.973>
LayerCount: 2
Fore
SplineSet
330 -20 m 0
 175 -20 80 85 80 240 c 1
 180 240 l 1
 180 141 232 70 330 70 c 0
 428 70 480 141 480 240 c 0
 480 339 428 410 330 410 c 0
 265 410 226 383 200 350 c 1
 100 360 l 1
 150 800 l 1
 250 800 l 1
 540 800 l 1
 540 710 l 1
 240 710 l 1
 212 460 l 1
 244 482 284 500 330 500 c 0
 485 500 580 395 580 240 c 0
 580 85 485 -20 330 -20 c 0
EndSplineSet
EndChar

StartChar: six
Encoding: 54 54 178
Width: 660
Flags: W
HStem: -20 90<242.856 417.144> 410 90<241.995 417.144> 730 90<237.413 412.587>
VStem: 80 100<139.963 343.91 433 672.257> 470 100<595 672.257> 480 100<138.027 341.973>
LayerCount: 2
Fore
SplineSet
480 240 m 0xf4
 480 339 428 410 330 410 c 0
 232 410 180 339 180 240 c 0
 180 141 232 70 330 70 c 0
 428 70 480 141 480 240 c 0xf4
325 820 m 0
 467 820 570 719 570 595 c 1
 470 595 l 1xf8
 470 670 415 730 325 730 c 0
 235 730 180 670 180 595 c 2
 180 433 l 1
 220 475 273 500 330 500 c 0
 485 500 580 395 580 240 c 0
 580 85 485 -20 330 -20 c 0
 175 -20 80 85 80 240 c 2
 80 595 l 2
 80 719 183 820 325 820 c 0
EndSplineSet
EndChar

StartChar: eight
Encoding: 56 56 179
Width: 660
Flags: W
HStem: -20 90<234.873 425.127> 375 80<246.152 413.848> 730 90<243.566 416.434>
VStem: 70 100<134.197 307.748> 90 100<510.52 677.964> 470 100<510.52 677.964> 490 100<134.197 307.748>
LayerCount: 2
Fore
SplineSet
330 375 m 0xf2
 227 375 170 303 170 220 c 0
 170 137 227 70 330 70 c 0
 433 70 490 137 490 220 c 0
 490 303 433 375 330 375 c 0xf2
330 455 m 0
 420 455 470 520 470 595 c 0
 470 670 420 730 330 730 c 0
 240 730 190 670 190 595 c 0xec
 190 520 240 455 330 455 c 0
478 418 m 1
 548 378 590 307 590 220 c 0
 590 82 486 -20 330 -20 c 0
 174 -20 70 82 70 220 c 0xf2
 70 307 112 378 182 418 c 1
 124 458 90 522 90 595 c 0
 90 719 188 820 330 820 c 0
 472 820 570 719 570 595 c 0
 570 522 536 458 478 418 c 1
EndSplineSet
EndChar

StartChar: nine
Encoding: 57 57 180
Width: 660
Flags: W
HStem: -20 90<247.413 422.587> 300 90<242.856 418.005> 730 90<242.856 417.144>
VStem: 80 100<458.027 661.973> 90 100<127.743 205> 480 100<127.743 367 456.09 660.036>
LayerCount: 2
Fore
SplineSet
180 560 m 0xf4
 180 461 232 390 330 390 c 0
 428 390 480 461 480 560 c 0
 480 659 428 730 330 730 c 0
 232 730 180 659 180 560 c 0xf4
335 -20 m 0
 193 -20 90 81 90 205 c 1
 190 205 l 1xec
 190 130 245 70 335 70 c 0
 425 70 480 130 480 205 c 2
 480 367 l 1
 440 325 387 300 330 300 c 0
 175 300 80 405 80 560 c 0
 80 715 175 820 330 820 c 0
 485 820 580 715 580 560 c 2
 580 205 l 2
 580 81 477 -20 335 -20 c 0
EndSplineSet
EndChar

StartChar: semicolon
Encoding: 59 59 181
Width: 320
VWidth: 0
Flags: W
HStem: 420 140<105.875 214.125>
VStem: 90 140<435.875 544.125> 160 80<-53.2049 0>
LayerCount: 2
Fore
SplineSet
230 490 m 0xc0
 230 451 199 420 160 420 c 0xa0
 121 420 90 451 90 490 c 0xc0
 90 529 121 560 160 560 c 0xa0
 199 560 230 529 230 490 c 0xc0
160 140 m 0
 211 140 240 101 240 50 c 0
 240 -28 194 -107 135 -150 c 1
 80 -150 l 1
 130 -107 160 -55 160 0 c 1xa0
 121 0 90 31 90 70 c 0xc0
 90 109 121 140 160 140 c 0
EndSplineSet
EndChar

StartChar: less
Encoding: 60 60 182
Width: 600
VWidth: 0
Flags: W
LayerCount: 2
Fore
SplineSet
100 295 m 1
 100 345 l 1
 500 550 l 1
 500 465 l 1
 210 320 l 1
 500 175 l 1
 500 90 l 1
 100 295 l 1
EndSplineSet
EndChar

StartChar: equal
Encoding: 61 61 183
Width: 560
VWidth: 0
Flags: W
HStem: 180 70<80 480> 390 70<80 480>
LayerCount: 2
Fore
SplineSet
80 460 m 1
 480 460 l 1
 480 390 l 1
 80 390 l 1
 80 460 l 1
80 250 m 1
 480 250 l 1
 480 180 l 1
 80 180 l 1
 80 250 l 1
EndSplineSet
EndChar

StartChar: greater
Encoding: 62 62 184
Width: 600
VWidth: 0
Flags: W
LayerCount: 2
Fore
SplineSet
500 295 m 1
 500 345 l 1
 100 550 l 1
 100 465 l 1
 390 320 l 1
 100 175 l 1
 100 90 l 1
 500 295 l 1
EndSplineSet
EndChar

StartChar: question
Encoding: 63 63 185
Width: 640
VWidth: 0
Flags: W
HStem: 0 140<255.875 364.125> 730 90<235.077 404.923>
VStem: 80 100<534.911 676.482> 240 140<15.8748 124.125> 255 100<240 362.484> 460 100<520.499 676.482>
LayerCount: 2
Fore
SplineSet
380 70 m 0xf4
 380 31 349 0 310 0 c 0
 271 0 240 31 240 70 c 0
 240 109 271 140 310 140 c 0
 349 140 380 109 380 70 c 0xf4
190 540 m 1
 100 510 l 1
 88 536 80 567 80 600 c 0
 80 733 187 820 320 820 c 0
 453 820 560 733 560 600 c 0
 560 489 490 446 410 390 c 0
 361 356 355 313 355 240 c 1
 255 240 l 1xec
 255 343 257 391 360 460 c 0
 422 502 460 527 460 600 c 0
 460 678 399 730 320 730 c 0
 241 730 180 678 180 600 c 0
 180 579 183 556 190 540 c 1
EndSplineSet
EndChar

StartChar: at
Encoding: 64 64 186
Width: 1140
VWidth: 0
Flags: W
HStem: -180 65<429.382 721.252> 70 85<478.905 642.198 801.203 940.031> 505 85<477.367 644.536> 775 65<429.382 710.618>
VStem: 80 70<176.03 483.97> 330 100<203.39 454.254> 685 100<195.329 474.219 533 570> 990 70<212.536 483.97>
LayerCount: 2
Fore
SplineSet
685 236 m 1
 685 446 l 1
 665 476 625 505 560 505 c 0
 492 505 430 464 430 370 c 2
 430 290 l 2
 430 196 492 155 560 155 c 0
 631 155 669 198 685 236 c 1
685 570 m 1
 785 570 l 1
 785 250 l 2
 785 174 823 150 860 150 c 0
 905 150 990 176 990 330 c 0
 990 579 819 775 570 775 c 0
 321 775 150 579 150 330 c 0
 150 81 321 -115 570 -115 c 1
 681 -110 749 -87 822 -38 c 1
 861 -96 l 1
 775 -154 671 -179 570 -180 c 1
 283 -180 80 43 80 330 c 0
 80 617 283 840 570 840 c 0
 857 840 1060 617 1060 330 c 0
 1060 133 947 70 860 70 c 0
 784 70 730 94 703 139 c 1
 667 100 614 70 545 70 c 0
 427 70 330 141 330 290 c 2
 330 370 l 2
 330 513 432 590 545 590 c 0
 605 590 652 566 685 533 c 1
 685 570 l 1
EndSplineSet
EndChar

StartChar: bracketleft
Encoding: 91 91 187
Width: 400
VWidth: 0
Flags: W
HStem: -180 70<170 330> 830 70<170 330>
VStem: 90 240<-180 -110 830 900> 90 80<-110 830>
LayerCount: 2
Fore
SplineSet
90 360 m 1xd0
 90 900 l 1
 330 900 l 1
 330 830 l 1xe0
 170 830 l 1
 170 360 l 1
 170 -110 l 1xd0
 330 -110 l 1
 330 -180 l 1
 90 -180 l 1xe0
 90 360 l 1xd0
EndSplineSet
EndChar

StartChar: bracketright
Encoding: 93 93 188
Width: 400
VWidth: 0
Flags: W
VStem: 70 240
LayerCount: 2
Fore
SplineSet
310 360 m 1
 310 900 l 1
 70 900 l 1
 70 830 l 1
 230 830 l 1
 230 360 l 1
 230 -110 l 1
 70 -110 l 1
 70 -180 l 1
 310 -180 l 1
 310 360 l 1
EndSplineSet
EndChar

StartChar: asciicircum
Encoding: 94 94 189
Width: 540
VWidth: 0
Flags: W
HStem: 560 240
LayerCount: 2
Fore
SplineSet
270 736 m 1
 160 560 l 1
 70 560 l 1
 230 800 l 1
 310 800 l 1
 470 560 l 1
 380 560 l 1
 270 736 l 1
EndSplineSet
EndChar

StartChar: underscore
Encoding: 95 95 190
Width: 720
VWidth: 0
Flags: W
HStem: -70 70<90 630>
LayerCount: 2
Fore
SplineSet
90 0 m 1
 630 0 l 1
 630 -70 l 1
 90 -70 l 1
 90 0 l 1
EndSplineSet
EndChar

StartChar: grave
Encoding: 96 96 191
Width: 420
VWidth: 0
Flags: W
HStem: 620 180
VStem: 50 320
LayerCount: 2
Fore
SplineSet
50 800 m 1
 200 800 l 1
 370 620 l 1
 295 620 l 1
 50 800 l 1
EndSplineSet
EndChar

StartChar: braceleft
Encoding: 123 123 192
Width: 400
VWidth: 0
Flags: W
HStem: -180 70<231.837 350> 830 70<231.837 350>
VStem: 150 80<-107.57 282.449 437.551 827.57>
LayerCount: 2
Fore
SplineSet
40 360 m 1
 40 365 l 1
 79 385 150 432 150 520 c 2
 150 810 l 2
 150 866 193 900 250 900 c 2
 350 900 l 1
 350 830 l 1
 270 830 l 2
 242 830 230 819 230 790 c 2
 230 520 l 2
 230 393 150 360 150 360 c 1
 150 360 230 327 230 200 c 2
 230 -70 l 2
 230 -99 242 -110 270 -110 c 2
 350 -110 l 1
 350 -180 l 1
 250 -180 l 2
 193 -180 150 -146 150 -90 c 2
 150 200 l 2
 150 288 79 335 40 355 c 1
 40 360 l 1
EndSplineSet
EndChar

StartChar: braceright
Encoding: 125 125 193
Width: 400
VWidth: 0
Flags: W
HStem: -180 70<130 168.163> 830 70<130 168.163>
VStem: 170 80<-107.57 -70 200 282.449 437.551 520 790 827.57>
LayerCount: 2
Fore
SplineSet
360 360 m 1
 360 365 l 1
 321 385 250 432 250 520 c 2
 250 810 l 2
 250 866 207 900 150 900 c 2
 50 900 l 1
 50 830 l 1
 130 830 l 2
 158 830 170 819 170 790 c 2
 170 520 l 2
 170 393 250 360 250 360 c 1
 250 360 170 327 170 200 c 2
 170 -70 l 2
 170 -99 158 -110 130 -110 c 2
 50 -110 l 1
 50 -180 l 1
 150 -180 l 2
 207 -180 250 -146 250 -90 c 2
 250 200 l 2
 250 288 321 335 360 355 c 1
 360 360 l 1
EndSplineSet
EndChar

StartChar: asciitilde
Encoding: 126 126 194
Width: 640
VWidth: 0
Flags: W
HStem: 240 70<354.49 477.541> 330 70<162.459 285.403>
VStem: 80 50<266.64 293.387> 510 50<346.613 373.36>
LayerCount: 2
Fore
SplineSet
215 400 m 0
 261 400 290.779 384.081 330 355 c 0
 366.195 328.163 379 310 425 310 c 0
 469 310 496 354 510 390 c 1
 560 370 l 1
 550 308 490 240 425 240 c 0
 379 240 347.315 257.061 310 285 c 0
 272.139 313.349 261 330 215 330 c 0
 171 330 144 286 130 250 c 1
 80 270 l 1
 90 332 150 400 215 400 c 0
EndSplineSet
EndChar

StartChar: quotedblleft
Encoding: 8220 8220 195
Width: 520
VWidth: 0
Flags: W
HStem: 550 140<160 214.125 370 424.125>
VStem: 80 80<690 743.205> 290 80<690 743.205>
LayerCount: 2
Fore
SplineSet
160 550 m 0
 109 550 80 589 80 640 c 0
 80 718 126 797 185 840 c 1
 240 840 l 1
 190 797 160 745 160 690 c 1
 199 690 230 659 230 620 c 0
 230 581 199 550 160 550 c 0
370 550 m 0
 319 550 290 589 290 640 c 0
 290 718 336 797 395 840 c 1
 450 840 l 1
 400 797 370 745 370 690 c 1
 409 690 440 659 440 620 c 0
 440 581 409 550 370 550 c 0
EndSplineSet
EndChar

StartChar: quotedblright
Encoding: 8221 8221 196
Width: 520
VWidth: 0
Flags: W
HStem: 700 140<95.8748 150 305.875 360>
VStem: 150 80<646.795 700> 360 80<646.795 700>
LayerCount: 2
Fore
SplineSet
150 840 m 0
 201 840 230 801 230 750 c 0
 230 672 184 593 125 550 c 1
 70 550 l 1
 120 593 150 645 150 700 c 1
 111 700 80 731 80 770 c 0
 80 809 111 840 150 840 c 0
360 840 m 0
 411 840 440 801 440 750 c 0
 440 672 394 593 335 550 c 1
 280 550 l 1
 330 593 360 645 360 700 c 1
 321 700 290 731 290 770 c 0
 290 809 321 840 360 840 c 0
EndSplineSet
EndChar

StartChar: quoteleft
Encoding: 8216 8216 197
Width: 320
VWidth: 0
Flags: W
HStem: 550 290
VStem: 80 80<690 743.205>
LayerCount: 2
Fore
SplineSet
160 550 m 0
 109 550 80 589 80 640 c 0
 80 718 126 797 185 840 c 1
 240 840 l 1
 190 797 160 745 160 690 c 1
 199 690 230 659 230 620 c 0
 230 581 199 550 160 550 c 0
EndSplineSet
EndChar

StartChar: quoteright
Encoding: 8217 8217 198
Width: 320
VWidth: 0
Flags: W
HStem: 550 290
VStem: 160 80<646.795 700>
LayerCount: 2
Fore
SplineSet
160 840 m 0
 211 840 240 801 240 750 c 0
 240 672 194 593 135 550 c 1
 80 550 l 1
 130 593 160 645 160 700 c 1
 121 700 90 731 90 770 c 0
 90 809 121 840 160 840 c 0
EndSplineSet
EndChar

StartChar: afii57929
Encoding: 700 700 199
Width: 280
VWidth: 0
Flags: W
HStem: 460 290
VStem: 130 80<556.795 610>
LayerCount: 2
Fore
SplineSet
130 750 m 0
 181 750 210 711 210 660 c 0
 210 582 164 503 105 460 c 1
 50 460 l 1
 100 503 130 555 130 610 c 1
 91 610 60 641 60 680 c 0
 60 719 91 750 130 750 c 0
EndSplineSet
EndChar

StartChar: Euro
Encoding: 8364 8364 200
Width: 750
Flags: W
HStem: -20 90<369.944 598.497> 270 60<70 170 270 570> 470 60<70 170 270 570> 735 85<372.815 591.222>
VStem: 170 100<168.538 270 330 470 530 630.688>
LayerCount: 2
Fore
SplineSet
680 740 m 1
 630 680 l 1
 591 718 544 735 480 735 c 0
 356 735 274 653 270 530 c 1
 570 530 l 1
 570 470 l 1
 270 470 l 1
 270 330 l 1
 570 330 l 1
 570 270 l 1
 270 270 l 1
 270 150 349 70 480 70 c 0
 544 70 591 82 630 120 c 1
 680 55 l 1
 630 7 561 -20 480 -20 c 0
 303 -20 170 88 170 270 c 1
 70 270 l 1
 70 330 l 1
 170 330 l 1
 170 470 l 1
 70 470 l 1
 70 530 l 1
 170 530 l 1
 175 710 306 820 480 820 c 0
 561 820 630 788 680 740 c 1
EndSplineSet
EndChar

StartChar: yen
Encoding: 165 165 201
Width: 700
VWidth: 0
Flags: W
HStem: 0 21G<300 400> 180 60<60 300 400 640> 380 60<60 232.5 467.5 640> 780 20G<30 160.526 539.474 670>
VStem: 300 100<0 180 240 320>
LayerCount: 2
Fore
SplineSet
30 800 m 1
 150 800 l 1
 339.474 440 l 1
 360.526 440 l 1
 550 800 l 1
 670 800 l 1
 467.5 440 l 1
 640 440 l 1
 640 380 l 1
 433.75 380 l 1
 400 320 l 1
 400 240 l 1
 640 240 l 1
 640 180 l 1
 400 180 l 1
 400 0 l 1
 300 0 l 1
 300 180 l 1
 60 180 l 1
 60 240 l 1
 300 240 l 1
 300 320 l 1
 266.25 380 l 1
 60 380 l 1
 60 440 l 1
 232.5 440 l 1
 30 800 l 1
EndSplineSet
EndChar

StartChar: sterling
Encoding: 163 163 202
Width: 700
Flags: W
HStem: 0 90<190 640> 370 60<80 180 284 490> 600 21G<470 570> 735 85<318.423 441.577>
VStem: 180 98<224.955 370> 185 99<430 695.909> 470 100<600 705.417>
LayerCount: 2
Fore
SplineSet
380 820 m 0xf6
 498 820 570 734 570 600 c 1
 470 600 l 1
 470 672 452 735 380 735 c 0
 308 735 290 672 290 600 c 0
 290 542 288 484 284 430 c 1xf6
 490 430 l 1
 490 370 l 1
 278 370 l 1
 262 225 231 113 190 90 c 1
 640 90 l 1
 640 0 l 1
 80 0 l 1
 80 90 l 1
 138 145 167 241 180 370 c 1xfa
 80 370 l 1
 80 430 l 1
 185 430 l 1
 189 482 190 539 190 600 c 0
 190 734 262 820 380 820 c 0xf6
EndSplineSet
EndChar

StartChar: cent
Encoding: 162 162 203
Width: 640
VWidth: 0
Flags: W
HStem: 81.2853 90.7144<227.468 300 370 445.361> 632.702 85.625<232.687 300 370 435.834>
VStem: 80 100<216.072 581.216> 300 70<-150 83.4247 172 632.682 715.246 950> 480 100<210.24 290 510 590.333>
LayerCount: 2
Fore
SplineSet
300 950 m 1
 370 950 l 1
 370 718.319 l 1
 495.1 706.044 580 627.355 580 510 c 1
 480 510 l 1
 480 582.481 439.05 622.946 370 632.682 c 1
 370 171.575 l 1
 439.05 178.41 480 208.891 480 290 c 1
 580 290 l 1
 580 163.476 495.1 92.4316 370 81.4903 c 1
 370 -150 l 1
 300 -150 l 1
 300 81.2853 l 1
 173.402 90.8412 80 154.238 80 290 c 2
 80 490 l 2
 80 625.762 173.402 705.988 300 718.327 c 1
 300 950 l 1
180 490 m 2
 180 290 l 2
 180 217.345 228.628 180.6 300 172 c 1
 300 632.702 l 1
 228.628 622.776 180 579.954 180 490 c 2
EndSplineSet
EndChar

StartChar: copyright
Encoding: 169 169 204
Width: 940
Flags: W
HStem: -20 70<343.439 596.561> 190 70<403.09 546.911> 540 70<403.09 546.911> 750 70<343.439 596.561>
VStem: 50 70<273.439 526.561> 300 80<283.697 516.303> 570 80<283.697 340 460 516.303> 820 70<273.439 526.561>
LayerCount: 2
Fore
SplineSet
475 610 m 0
 578 610 650 546 650 460 c 1
 570 460 l 1
 570 508 531 540 475 540 c 0
 419 540 380 508 380 460 c 2
 380 340 l 2
 380 292 419 260 475 260 c 0
 531 260 570 292 570 340 c 1
 650 340 l 1
 650 254 578 190 475 190 c 0
 372 190 300 254 300 340 c 2
 300 460 l 2
 300 546 372 610 475 610 c 0
470 820 m 0
 702 820 890 632 890 400 c 0
 890 168 702 -20 470 -20 c 0
 238 -20 50 168 50 400 c 0
 50 632 238 820 470 820 c 0
470 750 m 0
 277 750 120 593 120 400 c 0
 120 207 277 50 470 50 c 0
 663 50 820 207 820 400 c 0
 820 593 663 750 470 750 c 0
EndSplineSet
EndChar

StartChar: registered
Encoding: 174 174 205
Width: 940
Flags: W
HStem: -20 70<343.439 596.561> 350 60<400 495> 540 60<400 551.308> 750 70<343.439 596.561>
VStem: 50 70<273.439 526.561> 320 80<200 350 410 540> 565 75<422.815 526.522> 820 70<273.439 526.561>
LayerCount: 2
Fore
SplineSet
485 540 m 2
 400 540 l 1
 400 410 l 1
 485 410 l 2
 546 410 565 440 565 475 c 0
 565 510 546 540 485 540 c 2
505 600 m 2
 606 600 640 529 640 475 c 0
 640 436 622 388 575 365 c 1
 670 200 l 1
 580 200 l 1
 495 350 l 1
 400 350 l 1
 400 200 l 1
 320 200 l 1
 320 600 l 1
 505 600 l 2
470 820 m 0
 702 820 890 632 890 400 c 0
 890 168 702 -20 470 -20 c 0
 238 -20 50 168 50 400 c 0
 50 632 238 820 470 820 c 0
470 750 m 0
 277 750 120 593 120 400 c 0
 120 207 277 50 470 50 c 0
 663 50 820 207 820 400 c 0
 820 593 663 750 470 750 c 0
EndSplineSet
EndChar

StartChar: guillemotleft
Encoding: 171 171 206
Width: 600
Flags: W
LayerCount: 2
Fore
SplineSet
380 320 m 1
 530 90 l 1
 460 90 l 1
 290 320 l 1
 460 550 l 1
 530 550 l 1
 380 320 l 1
170 320 m 1
 320 90 l 1
 250 90 l 1
 80 320 l 1
 250 550 l 1
 320 550 l 1
 170 320 l 1
EndSplineSet
EndChar

StartChar: guillemotright
Encoding: 187 187 207
Width: 600
Flags: W
LayerCount: 2
Fore
SplineSet
220 320 m 1
 70 90 l 1
 140 90 l 1
 310 320 l 1
 140 550 l 1
 70 550 l 1
 220 320 l 1
430 320 m 1
 280 90 l 1
 350 90 l 1
 520 320 l 1
 350 550 l 1
 280 550 l 1
 430 320 l 1
EndSplineSet
EndChar

StartChar: acute
Encoding: 180 180 208
Width: 420
VWidth: 0
Flags: W
HStem: 620 180
LayerCount: 2
Fore
SplineSet
370 800 m 1
 220 800 l 1
 50 620 l 1
 125 620 l 1
 370 800 l 1
EndSplineSet
EndChar

StartChar: exclamdown
Encoding: 161 161 209
Width: 310
VWidth: 0
Flags: W
HStem: 490 140<105.875 214.125>
VStem: 90 140<505.875 614.125> 110 100<270 320.4> 130 60<339.6 390>
LayerCount: 2
Fore
SplineSet
110 -270 m 1xa0
 210 -270 l 1
 210 270 l 1xa0
 190 390 l 1
 130 390 l 1x90
 110 270 l 1
 110 -270 l 1xa0
230 560 m 0xc0
 230 599 199 630 160 630 c 0
 121 630 90 599 90 560 c 0
 90 521 121 490 160 490 c 0
 199 490 230 521 230 560 c 0xc0
EndSplineSet
EndChar

StartChar: brokenbar
Encoding: 166 166 210
Width: 320
Flags: W
HStem: 880 20G<120 200>
VStem: 120 80<-180 280 440 900>
LayerCount: 2
Fore
SplineSet
120 280 m 1
 200 280 l 1
 200 -180 l 1
 120 -180 l 1
 120 280 l 1
120 900 m 1
 200 900 l 1
 200 440 l 1
 120 440 l 1
 120 900 l 1
EndSplineSet
EndChar

StartChar: section
Encoding: 167 167 211
Width: 680
Flags: W
HStem: -20 90<226.121 453.879> 730 90<241.551 438.449>
VStem: 80 100<111.992 170> 100 100<387.596 491.936 586.562 691.015> 480 100<640 690.994> 500 100<111.481 226.979 322.401 425.338>
LayerCount: 2
Fore
SplineSet
484 322 m 1xd4
 494 336 500 352 500 370 c 0
 500 442 418 461 340 470 c 0
 303 474 263 481 227 493 c 1
 209 477 200 457 200 440 c 0
 200 378 266 359 340 350 c 0
 389 344 440 337 484 322 c 1xd4
141 541 m 1
 116 565 100 597 100 640 c 0
 100 722 181 820 340 820 c 0
 499 820 580 722 580 640 c 1
 480 640 l 1
 480 679 433 730 340 730 c 0
 247 730 200 679 200 640 c 0xd8
 200 578 266 559 340 550 c 0
 463 535 600 513 600 370 c 0
 600 334 589 299 567 270 c 1
 587 245 600 213 600 170 c 0
 600 70 514 -20 340 -20 c 0
 166 -20 80 70 80 170 c 1
 180 170 l 1xe4
 180 110 243 70 340 70 c 0
 437 70 500 110 500 170 c 0
 500 242 418 261 340 270 c 0
 232 282 100 317 100 440 c 0
 100 474 114 510 141 541 c 1
EndSplineSet
EndChar

StartChar: endash
Encoding: 8211 8211 213
Width: 670
VWidth: 0
Flags: W
HStem: 285 70<90 590>
LayerCount: 2
Fore
SplineSet
90 355 m 1
 590 355 l 1
 590 285 l 1
 90 285 l 1
 90 355 l 1
EndSplineSet
EndChar

StartChar: guilsinglleft
Encoding: 8249 8249 214
Width: 390
Flags: W
VStem: 80 240
LayerCount: 2
Fore
SplineSet
170 320 m 1
 320 90 l 1
 250 90 l 1
 80 320 l 1
 250 550 l 1
 320 550 l 1
 170 320 l 1
EndSplineSet
EndChar

StartChar: guilsinglright
Encoding: 8250 8250 215
Width: 390
Flags: W
LayerCount: 2
Fore
SplineSet
220 320 m 1
 70 90 l 1
 140 90 l 1
 310 320 l 1
 140 550 l 1
 70 550 l 1
 220 320 l 1
EndSplineSet
EndChar

StartChar: ellipsis
Encoding: 8230 8230 216
Width: 860
VWidth: 0
Flags: W
HStem: 0 140<125.875 234.125 375.875 484.125 625.875 734.125>
VStem: 110 140<15.8748 124.125> 360 140<15.8748 124.125> 610 140<15.8748 124.125>
CounterMasks: 1 70
LayerCount: 2
Fore
SplineSet
500 70 m 0
 500 31 469 0 430 0 c 0
 391 0 360 31 360 70 c 0
 360 109 391 140 430 140 c 0
 469 140 500 109 500 70 c 0
750 70 m 0
 750 31 719 0 680 0 c 0
 641 0 610 31 610 70 c 0
 610 109 641 140 680 140 c 0
 719 140 750 109 750 70 c 0
250 70 m 0
 250 31 219 0 180 0 c 0
 141 0 110 31 110 70 c 0
 110 109 141 140 180 140 c 0
 219 140 250 109 250 70 c 0
EndSplineSet
LCarets2: 2 0 0 
Ligature2: "'liga' Latin Standard Ligatures-1" period period period
EndChar

StartChar: trademark
Encoding: 8482 8482 217
Width: 830
VWidth: 0
Flags: W
HStem: 915 45<60 155 205 300>
VStem: 155 50<560 915> 385 50<560 875> 715 50<560 875>
LayerCount: 2
Fore
SplineSet
765 560 m 1
 715 560 l 1
 715 875 l 1
 590 560 l 1
 575 560 l 1
 560 560 l 1
 435 875 l 1
 435 560 l 1
 385 560 l 1
 385 960 l 1
 435 960 l 1
 450 960 l 1
 575 645 l 1
 700 960 l 1
 715 960 l 1
 765 960 l 1
 765 560 l 1
60 915 m 1
 60 960 l 1
 155 960 l 1
 205 960 l 1
 300 960 l 1
 300 915 l 1
 205 915 l 1
 205 560 l 1
 155 560 l 1
 155 915 l 1
 60 915 l 1
EndSplineSet
EndChar

StartChar: emdash
Encoding: 8212 8212 218
Width: 970
VWidth: 0
Flags: W
HStem: 285 70<90 890>
LayerCount: 2
Fore
SplineSet
90 355 m 1
 890 355 l 1
 890 285 l 1
 90 285 l 1
 90 355 l 1
EndSplineSet
EndChar

StartChar: afii00208
Encoding: 8213 8213 219
Width: 970
VWidth: 0
Flags: W
HStem: 285 70<90 890>
LayerCount: 2
Fore
SplineSet
90 355 m 1
 890 355 l 1
 890 285 l 1
 90 285 l 1
 90 355 l 1
EndSplineSet
EndChar

StartChar: ordfeminine
Encoding: 170 170 220
Width: 360
VWidth: 0
Flags: W
HStem: 550 45<111.695 227.57 302.093 324.5> 705 35<115.698 249.5> 827.5 42.5<124.858 234.142>
VStem: 49.5 50<606.8 694.351> 59.5 50<770 813.634> 249.5 50<612.857 705 740 813.634>
LayerCount: 2
Fore
SplineSet
249.5 705 m 1xf4
 169.5 705 l 2
 131.5 705 99.5 688.5 99.5 650 c 0
 99.5 615 131.5 595 169.5 595 c 0
 210.5 595 238.5 615.5 249.5 647.5 c 1
 249.5 705 l 1xf4
109.5 770 m 1xec
 59.5 770 l 1xec
 59.5 831 109 870 179.5 870 c 0
 250 870 299.5 831 299.5 770 c 2
 299.5 635 l 2
 299.5 608 306 600 324.5 600 c 1
 324.5 555 l 1
 285 555 258.5 568 251.5 595 c 1
 230 568.5 198.5 550 159.5 550 c 0
 93 550 49.5 595 49.5 650 c 0xf4
 49.5 712 102 740 164.5 740 c 2
 249.5 740 l 1
 249.5 770 l 2
 249.5 803.5 222.5 827.5 179.5 827.5 c 0
 136.5 827.5 109.5 803.5 109.5 770 c 1xec
EndSplineSet
EndChar

StartChar: uni00AD
Encoding: 173 173 221
Width: 560
VWidth: 0
Flags: W
HStem: 285 70<80 480>
LayerCount: 2
Fore
SplineSet
80 355 m 1
 480 355 l 1
 480 285 l 1
 80 285 l 1
 80 355 l 1
EndSplineSet
EndChar

StartChar: degree
Encoding: 176 176 222
Width: 380
VWidth: 0
Flags: W
HStem: 670 60<123.582 256.418> 930 60<123.582 256.418>
VStem: 30 60<763.582 896.418> 290 60<763.582 896.418>
LayerCount: 2
Fore
SplineSet
190 930 m 0
 135 930 90 885 90 830 c 0
 90 775 135 730 190 730 c 0
 245 730 290 775 290 830 c 0
 290 885 245 930 190 930 c 0
190 990 m 0
 278 990 350 918 350 830 c 0
 350 742 278 670 190 670 c 0
 102 670 30 742 30 830 c 0
 30 918 102 990 190 990 c 0
EndSplineSet
EndChar

StartChar: plusminus
Encoding: 177 177 223
Width: 560
VWidth: 0
Flags: W
HStem: 80 70<80 480> 370 70<80 240 320 480>
VStem: 240 80<230 370 440 580>
LayerCount: 2
Fore
SplineSet
320 230 m 1
 240 230 l 1
 240 370 l 1
 80 370 l 1
 80 440 l 1
 240 440 l 1
 240 580 l 1
 320 580 l 1
 320 440 l 1
 480 440 l 1
 480 370 l 1
 320 370 l 1
 320 230 l 1
80 150 m 1
 480 150 l 1
 480 80 l 1
 80 80 l 1
 80 150 l 1
EndSplineSet
EndChar

StartChar: uni00B2
Encoding: 178 178 224
Width: 360
Flags: W
HStem: 560 45<110 305> 925 45<125.94 234.06>
VStem: 55 55<605 666.824 857.5 911.066> 250 50<805.006 910.869>
LayerCount: 2
Fore
SplineSet
250 857.5 m 0
 250 895 225 925 180 925 c 0
 135 925 110 895 110 857.5 c 1
 60 857.5 l 1
 60 919.5 109 970 180 970 c 0
 251 970 300 919.5 300 857.5 c 0
 300 801.5 256.5 762.5 210 730 c 0
 162 696.5 110 657.5 110 605 c 1
 305 605 l 1
 305 560 l 1
 55 560 l 1
 55 605 l 2
 55 663.5 103 708.5 150 745 c 0
 190.5 776.5 250 807.5 250 857.5 c 0
EndSplineSet
EndChar

StartChar: uni00B3
Encoding: 179 179 225
Width: 360
Flags: W
HStem: 550 45<125.812 244.188> 747.5 40<145 234.495> 925 45<130.94 239.06>
VStem: 55 50<614.17 670> 65 50<857.5 910.671> 255 50<802.835 910.869> 265 50<613.716 728.238>
LayerCount: 2
Fore
SplineSet
55 670 m 1xf2
 105 670 l 1
 105 628.5 133.5 595 185 595 c 0
 236.5 595 265 628.5 265 670 c 0xf2
 265 711.5 236.5 747.5 185 747.5 c 2
 145 747.5 l 1
 145 787.5 l 1
 185 787.5 l 2
 230 787.5 255 820 255 857.5 c 0
 255 895 230 925 185 925 c 0
 140 925 115 895 115 857.5 c 1
 65 857.5 l 1
 65 919.5 114 970 185 970 c 0
 256 970 305 919.5 305 857.5 c 0xec
 305 821 288 789 259 769 c 1
 294 749 315 713.5 315 670 c 0
 315 601 263 550 185 550 c 0
 107 550 55 601 55 670 c 1xf2
EndSplineSet
EndChar

StartChar: periodcentered
Encoding: 183 183 226
Width: 320
VWidth: 0
Flags: W
HStem: 240 140<105.875 214.125>
VStem: 90 140<255.875 364.125>
LayerCount: 2
Fore
SplineSet
230 310 m 0
 230 271 199 240 160 240 c 0
 121 240 90 271 90 310 c 0
 90 349 121 380 160 380 c 0
 199 380 230 349 230 310 c 0
EndSplineSet
EndChar

StartChar: uni00B9
Encoding: 185 185 227
Width: 290
Flags: W
HStem: 822.5 47.5<45 124.466>
VStem: 175 50<560 875 912.688 960>
LayerCount: 2
Fore
SplineSet
175 875 m 1
 154.5 843.5 94.5 822.5 45 822.5 c 1
 45 870 l 1
 103 870 175 913 175 960 c 1
 225 960 l 1
 225 560 l 1
 175 560 l 1
 175 875 l 1
EndSplineSet
EndChar

StartChar: ordmasculine
Encoding: 186 186 228
Width: 360
VWidth: 0
Flags: W
HStem: 550 45<119.77 240.23> 827.5 42.5<123.126 236.874>
VStem: 50 50<612.062 807.373> 260 50<612.062 807.373>
LayerCount: 2
Fore
SplineSet
180 827.5 m 0
 137.5 827.5 100 804.5 100 740 c 2
 100 670 l 2
 100 615.5 137.5 595 180 595 c 0
 222.5 595 260 615.5 260 670 c 2
 260 740 l 2
 260 804.5 222.5 827.5 180 827.5 c 0
180 870 m 0
 252 870 310 824 310 740 c 2
 310 670 l 2
 310 588.5 252 550 180 550 c 0
 108 550 50 588.5 50 670 c 2
 50 740 l 2
 50 824 108 870 180 870 c 0
EndSplineSet
EndChar

StartChar: questiondown
Encoding: 191 191 229
Width: 600
VWidth: 0
Flags: W
HStem: -20 90<195.077 364.923> 660 140<235.875 344.125>
VStem: 40 100<123.518 279.501> 220 140<675.875 784.125> 245 100<437.516 560> 420 100<123.518 265.089>
LayerCount: 2
Fore
SplineSet
220 730 m 0xf4
 220 769 251 800 290 800 c 0
 329 800 360 769 360 730 c 0
 360 691 329 660 290 660 c 0
 251 660 220 691 220 730 c 0xf4
410 260 m 1
 500 290 l 1
 512 264 520 233 520 200 c 0
 520 67 413 -20 280 -20 c 0
 147 -20 40 67 40 200 c 0
 40 311 110 354 190 410 c 0
 239 444 245 487 245 560 c 1
 345 560 l 1xec
 345 457 343 409 240 340 c 0
 178 298 140 273 140 200 c 0
 140 122 201 70 280 70 c 0
 359 70 420 122 420 200 c 0
 420 221 417 244 410 260 c 1
EndSplineSet
EndChar

StartChar: dagger
Encoding: 8224 8224 230
Width: 580
VWidth: 0
Flags: W
HStem: 550 50<70 260 320 510> 880 20G<260 320>
VStem: 260 60<-270 550 600 900>
LayerCount: 2
Fore
SplineSet
320 900 m 1
 320 600 l 1
 510 600 l 1
 510 550 l 1
 320 550 l 1
 320 -270 l 1
 260 -270 l 1
 260 550 l 1
 70 550 l 1
 70 600 l 1
 260 600 l 1
 260 900 l 1
 320 900 l 1
EndSplineSet
EndChar

StartChar: bullet
Encoding: 8226 8226 231
Width: 440
VWidth: 0
Flags: W
HStem: 180 260<142.132 297.868>
VStem: 90 260<232.132 387.868>
LayerCount: 2
Fore
SplineSet
350 310 m 0
 350 238 292 180 220 180 c 0
 148 180 90 238 90 310 c 0
 90 382 148 440 220 440 c 0
 292 440 350 382 350 310 c 0
EndSplineSet
EndChar

StartChar: uni2010
Encoding: 8208 8208 232
Width: 560
VWidth: 0
Flags: W
HStem: 285 70<80 480>
LayerCount: 2
Fore
SplineSet
80 355 m 1
 480 355 l 1
 480 285 l 1
 80 285 l 1
 80 355 l 1
EndSplineSet
EndChar

StartChar: uni2011
Encoding: 8209 8209 233
Width: 560
VWidth: 0
Flags: W
HStem: 285 70<80 480>
LayerCount: 2
Fore
SplineSet
80 355 m 1
 480 355 l 1
 480 285 l 1
 80 285 l 1
 80 355 l 1
EndSplineSet
EndChar

StartChar: perthousand
Encoding: 8240 8240 234
Width: 1170
VWidth: 0
Flags: W
HStem: -10 65<526.565 633.435 886.565 993.435> 0 21G<90 204> 285 65<526.565 633.435 886.565 993.435> 450 65<176.565 283.435> 745 65<176.565 283.435> 780 20G<636 750>
VStem: 70 80<543.733 716.267> 310 80<543.733 716.267> 420 80<83.7326 256.267> 660 80<83.7326 256.267> 780 80<83.7326 256.267> 1020 80<83.7326 256.267>
LayerCount: 2
Fore
SplineSet
940 350 m 0xb3f0
 1034 350 1100 269 1100 170 c 0
 1100 71 1034 -10 940 -10 c 0
 846 -10 780 71 780 170 c 0
 780 269 846 350 940 350 c 0xb3f0
940 285 m 0
 883 285 860 222 860 170 c 0
 860 118 883 55 940 55 c 0
 997 55 1020 118 1020 170 c 0
 1020 222 997 285 940 285 c 0
580 285 m 0
 523 285 500 222 500 170 c 0
 500 118 523 55 580 55 c 0
 637 55 660 118 660 170 c 0
 660 222 637 285 580 285 c 0
580 350 m 0
 674 350 740 269 740 170 c 0
 740 71 674 -10 580 -10 c 0
 486 -10 420 71 420 170 c 0
 420 269 486 350 580 350 c 0
230 745 m 0x3bf0
 173 745 150 682 150 630 c 0
 150 578 173 515 230 515 c 0
 287 515 310 578 310 630 c 0
 310 682 287 745 230 745 c 0x3bf0
230 810 m 0
 324 810 390 729 390 630 c 0
 390 531 324 450 230 450 c 0
 136 450 70 531 70 630 c 0
 70 729 136 810 230 810 c 0
650 800 m 1x77f0
 750 800 l 1
 190 0 l 1
 90 0 l 1
 650 800 l 1x77f0
EndSplineSet
EndChar

StartChar: dotlessi
Encoding: 305 305 235
Width: 320
VWidth: 0
Flags: W
HStem: 0 21G<110 210> 580 20G<110 210>
VStem: 110 100<0 600>
AnchorPoint: "hook_above" 449.076 680 basechar 0
AnchorPoint: "ogonek" 177.004 40 basechar 0
AnchorPoint: "diac_top" 436.324 650 basechar 0
AnchorPoint: "diac_bottom" 138.744 -50 basechar 0
LayerCount: 2
Fore
SplineSet
110 600 m 1
 210 600 l 1
 210 0 l 1
 110 0 l 1
 110 600 l 1
EndSplineSet
EndChar

StartChar: uni0237
Encoding: 567 567 236
Width: 340
VWidth: 0
Flags: W
HStem: -290 90<0 92.5679> 580 20G<130 230>
VStem: 130 100<-165.608 600>
AnchorPoint: "diac_bottom" 358.744 -50 basechar 0
AnchorPoint: "diac_top" 456.324 650 basechar 0
LayerCount: 2
Fore
SplineSet
230 -100 m 2
 230 -217 147 -290 0 -290 c 1
 0 -200 l 1
 61 -200 130 -178 130 -100 c 2
 130 600 l 1
 230 600 l 1
 230 -100 l 2
EndSplineSet
EndChar

StartChar: ae
Encoding: 230 230 237
Width: 1060
VWidth: 0
Flags: W
HStem: -20 90<225.691 417.231 630.796 828.929> 290 70<221.5 480 580 880> 535 85<247.928 432.869 639.828 819.504>
VStem: 80 100<114.164 248.997> 100 100<420 488.613> 480 100<129.206 290 360 472.061> 880 100<122.883 200 360 471.5>
AnchorPoint: "diac_bottom" 498.744 -50 basechar 0
AnchorPoint: "diac_top" 796.324 650 basechar 0
LayerCount: 2
Fore
SplineSet
580 360 m 1xe6
 880 360 l 1
 880 489 815 535 730 535 c 0
 645 535 580 489 580 360 c 1xe6
480 200 m 1
 480 290 l 1
 320 290 l 2
 244 290 180 257 180 180 c 0xf6
 180 110 244 70 320 70 c 0
 402 70 458 111 480 175 c 1
 480 200 l 1
730 620 m 0
 874 620 980 528 980 360 c 2
 980 290 l 1
 580 290 l 1
 580 200 l 2
 580 101 658 70 730 70 c 0
 802 70 880 101 880 200 c 1
 980 200 l 1
 980 47 858 -20 730 -20 c 0
 646 -20 564 9 518 73 c 1
 477 20 409 -20 300 -20 c 0
 167 -20 80 70 80 180 c 0xf6
 80 304 185 360 310 360 c 2
 480 360 l 1
 480 420 l 2
 480 487 426 535 340 535 c 0
 254 535 200 487 200 420 c 1
 100 420 l 1xee
 100 542 199 620 340 620 c 0
 426 620 497 591 539 540 c 1
 584 592 651 620 730 620 c 0
EndSplineSet
EndChar

StartChar: AE
Encoding: 198 198 238
Width: 1000
VWidth: 0
Flags: W
HStem: 0 90<580 930> 165 90<264 480> 355 90<580 890> 710 90<580 920>
VStem: 480 100<90 165 255 355 445 697>
AnchorPoint: "diac_bottom" 588.744 -50 basechar 0
AnchorPoint: "diac_top" 971.346 850 basechar 0
LayerCount: 2
Fore
SplineSet
480 255 m 1
 480 697 l 1
 264 255 l 1
 480 255 l 1
580 90 m 1
 930 90 l 1
 930 0 l 1
 480 0 l 1
 480 165 l 1
 220 165 l 1
 140 0 l 1
 30 0 l 1
 430 800 l 1
 480 800 l 1
 530 800 l 1
 920 800 l 1
 920 710 l 1
 580 710 l 1
 580 445 l 1
 890 445 l 1
 890 355 l 1
 580 355 l 1
 580 90 l 1
EndSplineSet
EndChar

StartChar: Aring
Encoding: 197 197 239
Width: 800
VWidth: 0
HStem: 0 21G<30 147.758 652.242 770> 165 90<239 561> 960 60<348.59 452.134>
VStem: 275 60<843.888 946.297> 465 60<843.273 946.772>
AnchorPoint: "diac_top" 846.369 1050 basechar 0
LayerCount: 2
Fore
SplineSet
400 960 m 0
 365 960 335 931 335 895 c 0
 335 859 365 830 400 830 c 0
 437 830 465 859 465 895 c 0
 465 931 437 960 400 960 c 0
400 1020 m 0
 470 1020 525 964 525 895 c 0
 525 846.218 497.509 803.934 456.663 783.342 c 1
 770 0 l 1
 660 0 l 1
 596 165 l 1
 204 165 l 1
 140 0 l 1
 30 0 l 1
 343.486 783.714 l 1
 303.15 804.44 275 846.51 275 895 c 0
 275 964 332 1020 400 1020 c 0
561 255 m 1
 400 671 l 1
 239 255 l 1
 561 255 l 1
EndSplineSet
EndChar

StartChar: multiply
Encoding: 215 215 240
Width: 560
VWidth: 0
Flags: W
HStem: 133 375
VStem: 92 375
LayerCount: 2
Fore
SplineSet
467 183 m 1
 417 133 l 1
 279 271 l 1
 141 133 l 1
 92 183 l 1
 230 321 l 1
 92 459 l 1
 141 508 l 1
 279 370 l 1
 417 508 l 1
 467 459 l 1
 329 321 l 1
 467 183 l 1
EndSplineSet
EndChar

StartChar: divide
Encoding: 247 247 241
Width: 560
VWidth: 0
Flags: W
HStem: 90 120<231.108 328.892> 285 70<80 480> 430 120<231.108 328.892>
VStem: 220 120<101.108 198.892 441.108 538.892>
CounterMasks: 1 e0
LayerCount: 2
Fore
SplineSet
340 150 m 0
 340 117 313 90 280 90 c 0
 247 90 220 117 220 150 c 0
 220 183 247 210 280 210 c 0
 313 210 340 183 340 150 c 0
340 490 m 0
 340 457 313 430 280 430 c 0
 247 430 220 457 220 490 c 0
 220 523 247 550 280 550 c 0
 313 550 340 523 340 490 c 0
80 355 m 1
 480 355 l 1
 480 285 l 1
 80 285 l 1
 80 355 l 1
EndSplineSet
EndChar

StartChar: thorn
Encoding: 254 254 242
Width: 710
VWidth: 0
Flags: W
HStem: -20 85<269.538 455.543> 530 90<275.148 462.578> 880 20G<100 200>
VStem: 100 100<-270 58 125.917 474.19 526 900> 530 100<144.583 461.685>
LayerCount: 2
Fore
SplineSet
100 900 m 1
 200 900 l 1
 200 600 l 1
 200 526 l 1
 237 580 298 620 380 620 c 0
 536 620 630 519 630 360 c 2
 630 260 l 2
 630 72 524 -20 380 -20 c 0
 305 -20 244 12 200 58 c 1
 200 -270 l 1
 100 -270 l 1
 100 600 l 1
 100 900 l 1
200 439 m 1
 200 164 l 1
 229 105 288 65 360 65 c 0
 445 65 530 111 530 260 c 2
 530 360 l 2
 530 489 452 530 360 530 c 0
 280 530 222 484 200 439 c 1
EndSplineSet
EndChar

StartChar: germandbls
Encoding: 223 223 243
Width: 810
VWidth: 0
Flags: W
HStem: -270 90<260 537.306> 0 21G<100 200> 520 80<200 580> 810 90<237.432 330>
VStem: 100 100<0 520 600 775.608> 640 100<-77.6847 155.729>
LayerCount: 2
Fore
SplineSet
330 900 m 1
 330 810 l 1
 269 810 200 788 200 710 c 2
 200 600 l 1
 680 600 l 1
 680 520 l 1
 509 342 l 1
 643 314 740 212 740 40 c 0
 740 -164 603 -270 430 -270 c 2
 260 -270 l 1
 260 -180 l 1
 430 -180 l 2
 526 -180 640 -128 640 40 c 0
 640 208 526 260 430 260 c 2
 370 260 l 1
 370 310 l 1
 580 520 l 1
 200 520 l 1
 200 0 l 1
 100 0 l 1
 100 710 l 2
 100 827 183 900 330 900 c 1
EndSplineSet
EndChar

StartChar: Oslash
Encoding: 216 216 244
Width: 820
VWidth: 0
Flags: W
HStem: -20 90<294.356 525.587> 0 21G<90 174.25> 735 85<299.866 520.12> 780 20G<645.75 730>
VStem: 90 100<174.877 624.08> 630 100<170.439 623.832>
AnchorPoint: "diac_top" 771.346 850 basechar 0
AnchorPoint: "diac_bottom" 388.744 -50 basechar 0
LayerCount: 2
Fore
SplineSet
660 800 m 1x1c
 730 800 l 1
 665.655 709.691 l 1
 706.063 660.628 730 596.508 730 520 c 2
 730 270 l 2
 730 88 587 -20 410 -20 c 0x9c
 326.795 -20 251.103 3.866 194.247 48.0661 c 1
 160 0 l 1
 90 0 l 1
 152.719 88.0269 l 1
 113.295 135.139 90 196.542 90 270 c 2
 90 520 l 2
 90 706 233 820 410 820 c 0x6c
 492.589 820 567.775 795.398 624.486 750.155 c 1
 660 800 l 1x1c
249.777 126.003 m 1
 288.454 90.3823 343.877 70 410 70 c 0
 541 70 630 150 630 270 c 2
 630 520 l 2
 630 559.536 621.265 595.032 605.492 625.252 c 1
 249.777 126.003 l 1
213.245 172.976 m 1
 569.945 673.607 l 1
 530.688 712.635 474.765 735 410 735 c 0x2c
 283 735 190 649 190 520 c 2
 190 270 l 2
 190 233.608 198.185 200.895 213.245 172.976 c 1
EndSplineSet
EndChar

StartChar: Thorn
Encoding: 222 222 245
Width: 750
VWidth: 0
Flags: W
HStem: 0 21G<100 200> 220 85<200 518.348> 615 85<200 518.348> 780 20G<100 200>
VStem: 100 100<0 220 305 615 700 800> 580 100<367.06 552.94>
LayerCount: 2
Fore
SplineSet
420 700 m 2
 621 700 680 568 680 460 c 0
 680 352 621 220 420 220 c 2
 200 220 l 1
 200 0 l 1
 100 0 l 1
 100 800 l 1
 200 800 l 1
 200 700 l 1
 420 700 l 2
420 615 m 2
 200 615 l 1
 200 305 l 1
 420 305 l 2
 543 305 580 389 580 460 c 0
 580 531 543 615 420 615 c 2
EndSplineSet
EndChar

StartChar: oslash
Encoding: 248 248 246
Width: 680
VWidth: 0
Flags: W
HStem: -20 90<239.712 437.94> 0 21G<80 160.167> 535 85<245.106 434.667> 580 20G<519.833 600>
VStem: 80 100<150.536 465.395> 500 100<131.241 446.683>
AnchorPoint: "diac_top" 616.324 650 basechar 0
AnchorPoint: "diac_bottom" 318.744 -50 basechar 0
AnchorPoint: "cedilla" 357.004 40 basechar 0
AnchorPoint: "ogonek" 357.004 40 basechar 0
LayerCount: 2
Fore
SplineSet
535 600 m 1x1c
 600 600 l 1
 546.157 528.998 l 1
 579.943 486.573 600 429.857 600 360 c 2
 600 220 l 2
 600 57 484 -20 340 -20 c 0x9c
 273.743 -20 213.414 -3.69836 167.584 29.7816 c 1
 145 0 l 1
 80 0 l 1
 129.696 65.533 l 1
 98.4217 103.744 80 155.043 80 220 c 2
 80 360 l 2
 80 528 196 620 340 620 c 0x6c
 404.657 620 463.668 601.452 509.069 565.805 c 1
 535 600 l 1x1c
340 535 m 0x2c
 255 535 180 489 180 360 c 2
 180 220 l 2
 180 192.297 184.844 168.987 193.466 149.626 c 1
 454.279 493.555 l 1
 424.702 522.857 383.671 535 340 535 c 0x2c
484.576 447.792 m 1
 225.576 106.254 l 1
 255.163 80.8581 296.257 70 340 70 c 0x8c
 425 70 500 111 500 220 c 2
 500 360 l 2
 500 395.19 494.419 424.204 484.576 447.792 c 1
EndSplineSet
EndChar

StartChar: cedilla
Encoding: 184 184 247
Width: 560
VWidth: 0
Flags: W
HStem: -370 60<180.808 379.192> -170 60<204 379.17>
VStem: 80 80<-287.183 -240> 400 80<-287.81 -192.19>
LayerCount: 2
Fore
SplineSet
250 20 m 1
 320 20 l 1
 204 -110 l 1
 280 -110 l 2
 409 -110 480 -162 480 -240 c 0
 480 -318 409 -370 280 -370 c 0
 151 -370 80 -318 80 -240 c 1
 160 -240 l 1
 160 -291 215 -310 280 -310 c 0
 345 -310 400 -291 400 -240 c 0
 400 -189 345 -170 280 -170 c 2
 150 -170 l 1
 130 -110 l 1
 250 20 l 1
EndSplineSet
EndChar

StartChar: ampersand
Encoding: 38 38 248
Width: 800
VWidth: 0
Flags: W
HStem: -20 90<251.476 458.344> 0 21G<624.304 760> 730 90<309.948 443.144>
VStem: 80 100<134.938 286.335> 180 100<552.048 700.723> 470 100<554.338 701.544> 590 100<242.926 380>
LayerCount: 2
Fore
SplineSet
339 380 m 1xb6
 241 332 180 289 180 210 c 0
 180 135 247 70 350 70 c 0
 424 70 482 99 522 149 c 1
 339 380 l 1xb6
380 730 m 0
 316 730 280 688 280 630 c 0x2e
 280 563 331 518 365 492 c 1
 427 524 470 566 470 630 c 0
 470 688 435 730 380 730 c 0
380 820 m 0
 492 820 570 735 570 630 c 0
 570 532 505 470 426 424 c 1
 570 241 l 1
 583 282 590 329 590 380 c 1
 690 380 l 1
 690 298 670 222 636 158 c 1
 760 0 l 1
 640 0 l 1x6e
 578 79 l 1
 519 17 440 -20 350 -20 c 0
 188 -20 80 78 80 210 c 0xb6
 80 331 174 399 278 451 c 1
 243 484 180 547 180 630 c 0
 180 735 268 820 380 820 c 0
EndSplineSet
EndChar

StartChar: currency
Encoding: 164 164 249
Width: 1040
VWidth: 0
Flags: W
HStem: -20 100<396.32 646.016> 720 100<396.32 643.933>
VStem: 100 100<276.067 523.68> 840 100<273.984 523.68>
LayerCount: 2
Fore
SplineSet
520 720 m 0
 344 720 200 576 200 400 c 0
 200 223 344 80 520 80 c 0
 697 80 840 223 840 400 c 0
 840 576 697 720 520 720 c 0
167 824 m 1
 261 730 l 1
 332 786 422 820 520 820 c 0
 618 820 708 786 780 730 c 1
 874 824 l 1
 944 753 l 1
 850 659 l 1
 907 588 940 498 940 400 c 0
 940 302 907 212 850 140 c 1
 944 46 l 1
 874 -25 l 1
 780 70 l 1
 708 13 618 -20 520 -20 c 0
 422 -20 332 13 261 70 c 1
 167 -25 l 1
 96 46 l 1
 190 140 l 1
 134 212 100 302 100 400 c 0
 100 498 134 588 190 659 c 1
 96 753 l 1
 167 824 l 1
EndSplineSet
EndChar

StartChar: uni00B5
Encoding: 181 181 250
Width: 680
VWidth: 0
Flags: W
HStem: -20 90<297.482 463.61> -20 20G<100 200>
VStem: 100 100<-270 0 154.806 206> 500 100<106.61 180>
LayerCount: 2
Fore
SplineSet
200 0 m 1x70
 200 -270 l 1
 100 -270 l 1
 100 0 l 1
 200 0 l 1x70
200 0 m 1
 200 102 l 1
 224 62 286 -20 400 -20 c 0
 522 -20 600 58 600 180 c 2
 600 600 l 1
 500 600 l 1
 500 180 l 2
 500 105 448 70 380 70 c 0xb0
 280 70 222 142 200 206 c 1
 200 600 l 1
 100 600 l 1
 100 0 l 1
 200 0 l 1
EndSplineSet
EndChar

StartChar: paragraph
Encoding: 182 182 251
Width: 740
VWidth: 0
Flags: W
HStem: 0 21G<320 420 540 640> 320 85<221.652 320> 715 85<221.652 320 420 540>
VStem: 60 100<467.06 652.94> 320 100<0 320 405 715> 540 100<0 715>
LayerCount: 2
Fore
SplineSet
320 405 m 1
 320 715 l 1
 197 715 160 631 160 560 c 0
 160 489 197 405 320 405 c 1
420 715 m 1
 420 0 l 1
 320 0 l 1
 320 320 l 1
 119 320 60 452 60 560 c 0
 60 668 119 800 320 800 c 2
 640 800 l 1
 640 0 l 1
 540 0 l 1
 540 715 l 1
 420 715 l 1
EndSplineSet
EndChar

StartChar: macron
Encoding: 175 175 252
Width: 560
VWidth: 0
Flags: W
HStem: 740 60<80 480>
LayerCount: 2
Fore
SplineSet
80 800 m 1
 480 800 l 1
 480 740 l 1
 80 740 l 1
 80 800 l 1
EndSplineSet
EndChar

StartChar: logicalnot
Encoding: 172 172 253
Width: 600
VWidth: 0
Flags: W
HStem: 540 60<70 430>
VStem: 430 90<410 540>
LayerCount: 2
Fore
SplineSet
70 600 m 1
 520 600 l 1
 520 410 l 1
 430 410 l 1
 430 540 l 1
 70 540 l 1
 70 600 l 1
EndSplineSet
EndChar

StartChar: onequarter
Encoding: 188 188 254
Width: 780
VWidth: 0
Flags: W
HStem: 0 21G<70 154.25 635 685> 75 45<515 635 685 725> 661.5 47.5<55 134.466> 780 20G<185 235 625.75 710>
VStem: 185 50<399 714 751.688 799> 635 50<0 75 120 315>
LayerCount: 2
Fore
SplineSet
640 800 m 1
 710 800 l 1
 140 0 l 1
 70 0 l 1
 640 800 l 1
465 120 m 1
 635 400 l 1
 685 400 l 1
 685 120 l 1
 725 120 l 1
 725 75 l 1
 685 75 l 1
 685 0 l 1
 635 0 l 1
 635 75 l 1
 465 75 l 1
 465 120 l 1
515 120 m 1
 635 120 l 1
 635 315 l 1
 515 120 l 1
185 714 m 1
 164.5 682.5 104.5 661.5 55 661.5 c 1
 55 709 l 1
 113 709 185 752 185 799 c 1
 235 799 l 1
 235 399 l 1
 185 399 l 1
 185 714 l 1
EndSplineSet
EndChar

StartChar: onehalf
Encoding: 189 189 255
Width: 780
VWidth: 0
Flags: W
HStem: 0 45<530 725> 365 45<545.94 654.06> 661.5 47.5<55 134.466> 780 20G<185 235 625.75 710>
VStem: 185 50<399 714 751.688 799> 475 55<45 106.824 297.5 351.066> 670 50<245.006 350.868>
LayerCount: 2
Fore
SplineSet
640 800 m 1
 710 800 l 1
 140 0 l 1
 70 0 l 1
 640 800 l 1
670 297.5 m 0
 670 335 645 365 600 365 c 0
 555 365 530 335 530 297.5 c 1
 480 297.5 l 1
 480 359.5 529 410 600 410 c 0
 671 410 720 359.5 720 297.5 c 0
 720 241.5 676.5 202.5 630 170 c 0
 582 136.5 530 97.5 530 45 c 1
 725 45 l 1
 725 0 l 1
 475 0 l 1
 475 45 l 2
 475 103.5 523 148.5 570 185 c 0
 610.5 216.5 670 247.5 670 297.5 c 0
185 714 m 1
 164.5 682.5 104.5 661.5 55 661.5 c 1
 55 709 l 1
 113 709 185 752 185 799 c 1
 235 799 l 1
 235 399 l 1
 185 399 l 1
 185 714 l 1
EndSplineSet
EndChar

StartChar: threequarters
Encoding: 190 190 256
Width: 780
VWidth: 0
Flags: W
HStem: 0 21G<70 154.25 635 685> 75 45<515 635 685 725> 390 45<125.812 244.188> 587.5 40<145 234.495> 765 45<130.94 239.06> 780 20G<625.75 710>
VStem: 55 50<454.17 510> 65 50<697.5 750.671> 255 50<642.835 750.869> 265 50<453.716 568.238> 635 50<0 75 120 315>
LayerCount: 2
Fore
SplineSet
640 800 m 1xf420
 710 800 l 1
 140 0 l 1
 70 0 l 1
 640 800 l 1xf420
465 120 m 1
 635 400 l 1
 685 400 l 1
 685 120 l 1
 725 120 l 1
 725 75 l 1
 685 75 l 1
 685 0 l 1
 635 0 l 1
 635 75 l 1
 465 75 l 1
 465 120 l 1
515 120 m 1
 635 120 l 1
 635 315 l 1
 515 120 l 1
55 510 m 1xfa60
 105 510 l 1
 105 468.5 133.5 435 185 435 c 0
 236.5 435 265 468.5 265 510 c 0xfa60
 265 551.5 236.5 587.5 185 587.5 c 2
 145 587.5 l 1
 145 627.5 l 1
 185 627.5 l 2
 230 627.5 255 660 255 697.5 c 0
 255 735 230 765 185 765 c 0
 140 765 115 735 115 697.5 c 1
 65 697.5 l 1
 65 759.5 114 810 185 810 c 0
 256 810 305 759.5 305 697.5 c 0xf9a0
 305 661 288 629 259 609 c 1
 294 589 315 553.5 315 510 c 0
 315 441 263 390 185 390 c 0
 107 390 55 441 55 510 c 1xfa60
EndSplineSet
EndChar

StartChar: uni20A9
Encoding: 8361 8361 257
Width: 1160
VWidth: 0
Flags: W
HStem: 0 21G<294 405.625 754.375 866> 400 60<30 162 282.173 422.211 529.375 630.625 737.789 877.827 998 1130> 620 60<30 96 220.478 484.245 675.755 939.522 1064 1130> 780 20G<60 175.609 529.361 630.639 984.391 1100>
LayerCount: 2
Fore
SplineSet
956.348 680 m 1
 990 800 l 1
 1100 800 l 1
 1064 680 l 1
 1130 680 l 1
 1130 620 l 1
 1046 620 l 1
 998 460 l 1
 1130 460 l 1
 1130 400 l 1
 980 400 l 1
 860 0 l 1
 850 0 l 1
 765 0 l 1
 760 0 l 1
 647.5 400 l 1
 512.5 400 l 1
 400 0 l 1
 395 0 l 1
 310 0 l 1
 300 0 l 1
 180 400 l 1
 30 400 l 1
 30 460 l 1
 162 460 l 1
 114 620 l 1
 30 620 l 1
 30 680 l 1
 96 680 l 1
 60 800 l 1
 170 800 l 1
 203.652 680 l 1
 501.163 680 l 1
 535 800 l 1
 625 800 l 1
 658.837 680 l 1
 956.348 680 l 1
939.522 620 m 1
 675.755 620 l 1
 720.871 460 l 1
 894.653 460 l 1
 939.522 620 l 1
877.827 400 m 1
 737.789 400 l 1
 808 151 l 1
 877.827 400 l 1
484.245 620 m 1
 220.478 620 l 1
 265.347 460 l 1
 439.129 460 l 1
 484.245 620 l 1
422.211 400 m 1
 282.173 400 l 1
 352 151 l 1
 422.211 400 l 1
574.375 620 m 1
 529.375 460 l 1
 630.625 460 l 1
 585.625 620 l 1
 574.375 620 l 1
EndSplineSet
EndChar

StartChar: uni20B9
Encoding: 8377 8377 258
Width: 720
VWidth: 0
Flags: W
HStem: 0 21G<403.21 540> 320 85<263 342.666> 530 60<80 408 504.676 640> 740 60<80 350.18 436 640>
VStem: 408 100<465.739 530 590 679.405>
LayerCount: 2
Fore
SplineSet
80 530 m 1
 80 590 l 1
 409 590 l 1
 402 682 361 740 250 740 c 2
 80 740 l 1
 80 800 l 1
 250 800 l 1
 640 800 l 1
 640 740 l 1
 436 740 l 1
 482 699 503 644 508 590 c 1
 640 590 l 1
 640 530 l 1
 508 530 l 1
 498 431 436 325 263 320 c 1
 540 0 l 1
 420 0 l 1
 80 405 l 1
 190 405 l 1
 250 405 l 2
 356 405 398 468 408 530 c 1
 80 530 l 1
EndSplineSet
EndChar

StartChar: odieresis
Encoding: 246 246 259
Width: 680
VWidth: 0
HStem: -20 90<242.06 437.94> 535 85<245.106 434.894> 720 140<155.875 264.125 415.875 524.125>
VStem: 80 100<131.241 465.395> 140 140<735.875 844.125> 400 140<735.875 844.125> 500 100<131.241 465.395>
AnchorPoint: "diac_top" 714.1 880 basechar 0
AnchorPoint: "diac_bottom" 318.744 -50 basechar 0
LayerCount: 2
Fore
SplineSet
540 790 m 0xe4
 540 751 509 720 470 720 c 0
 431 720 400 751 400 790 c 0
 400 829 431 860 470 860 c 0
 509 860 540 829 540 790 c 0xe4
280 790 m 0xe8
 280 751 249 720 210 720 c 0
 171 720 140 751 140 790 c 0
 140 829 171 860 210 860 c 0
 249 860 280 829 280 790 c 0xe8
340 535 m 0
 255 535 180 489 180 360 c 2
 180 220 l 2
 180 111 255 70 340 70 c 0
 425 70 500 111 500 220 c 2
 500 360 l 2xf2
 500 489 425 535 340 535 c 0
340 620 m 0
 484 620 600 528 600 360 c 2
 600 220 l 2
 600 57 484 -20 340 -20 c 0
 196 -20 80 57 80 220 c 2
 80 360 l 2
 80 528 196 620 340 620 c 0
EndSplineSet
EndChar

StartChar: uni0337
Encoding: 823 823 260
Width: 0
VWidth: 0
Flags: W
HStem: 0 21G<-600 -519.833> 580 20G<-160.167 -80>
LayerCount: 2
Fore
SplineSet
-145 600 m 1
 -80 600 l 1
 -535 0 l 1
 -600 0 l 1
 -145 600 l 1
EndSplineSet
EndChar

StartChar: uni0338
Encoding: 824 824 261
Width: 0
VWidth: 0
Flags: W
HStem: 0 21G<-730 -645.75> 780 20G<-174.25 -90>
LayerCount: 2
Fore
SplineSet
-160 800 m 1
 -90 800 l 1
 -660 0 l 1
 -730 0 l 1
 -160 800 l 1
EndSplineSet
EndChar

StartChar: dieresis
Encoding: 168 168 262
Width: 680
VWidth: 0
Flags: W
HStem: 650 140<155.875 264.125 415.875 524.125>
VStem: 140 140<665.875 774.125> 400 140<665.875 774.125>
LayerCount: 2
Fore
SplineSet
540 720 m 0
 540 681 509 650 470 650 c 0
 431 650 400 681 400 720 c 0
 400 759 431 790 470 790 c 0
 509 790 540 759 540 720 c 0
280 720 m 0
 280 681 249 650 210 650 c 0
 171 650 140 681 140 720 c 0
 140 759 171 790 210 790 c 0
 249 790 280 759 280 720 c 0
EndSplineSet
EndChar

StartChar: idieresis
Encoding: 239 239 263
Width: 320
VWidth: 0
HStem: 0 21G<110 210> 580 20G<110 210> 720 140<-24.1252 84.1252 235.875 344.125>
VStem: -40 140<735.875 844.125> 110 100<0 600> 220 140<735.875 844.125>
CounterMasks: 1 1c
LayerCount: 2
Fore
SplineSet
360 790 m 0
 360 751 329 720 290 720 c 0
 251 720 220 751 220 790 c 0
 220 829 251 860 290 860 c 0
 329 860 360 829 360 790 c 0
100 790 m 0
 100 751 69 720 30 720 c 0
 -9 720 -40 751 -40 790 c 0
 -40 829 -9 860 30 860 c 0
 69 860 100 829 100 790 c 0
110 600 m 1
 210 600 l 1
 210 0 l 1
 110 0 l 1
 110 600 l 1
EndSplineSet
EndChar

StartChar: Adieresis
Encoding: 196 196 264
Width: 800
VWidth: 0
HStem: 0 21G<30 147.758 652.242 770> 165 90<239 561> 780 20G<342 458> 920 140<215.875 324.125 475.875 584.125>
VStem: 200 140<935.875 1044.13> 460 140<935.875 1044.13>
AnchorPoint: "diac_top" 859.123 1080 basechar 0
LayerCount: 2
Fore
SplineSet
600 990 m 0
 600 951 569 920 530 920 c 0
 491 920 460 951 460 990 c 0
 460 1029 491 1060 530 1060 c 0
 569 1060 600 1029 600 990 c 0
340 990 m 0
 340 951 309 920 270 920 c 0
 231 920 200 951 200 990 c 0
 200 1029 231 1060 270 1060 c 0
 309 1060 340 1029 340 990 c 0
561 255 m 1
 400 671 l 1
 239 255 l 1
 561 255 l 1
770 0 m 1
 660 0 l 1
 596 165 l 1
 204 165 l 1
 140 0 l 1
 30 0 l 1
 350 800 l 1
 450 800 l 1
 770 0 l 1
EndSplineSet
EndChar

StartChar: Edieresis
Encoding: 203 203 265
Width: 670
VWidth: 0
HStem: 0 90<200 600> 355 90<200 560> 710 90<200 590> 920 140<165.875 274.125 425.875 534.125>
VStem: 100 100<90 355 445 710> 150 140<935.875 1044.13> 410 140<935.875 1044.13>
AnchorPoint: "diac_top" 809.123 1080 basechar 0
AnchorPoint: "diac_bottom" 328.744 -50 basechar 0
LayerCount: 2
Fore
SplineSet
550 990 m 0xf2
 550 951 519 920 480 920 c 0
 441 920 410 951 410 990 c 0
 410 1029 441 1060 480 1060 c 0
 519 1060 550 1029 550 990 c 0xf2
290 990 m 0xf6
 290 951 259 920 220 920 c 0
 181 920 150 951 150 990 c 0
 150 1029 181 1060 220 1060 c 0
 259 1060 290 1029 290 990 c 0xf6
200 90 m 1xfa
 600 90 l 1
 600 0 l 1
 200 0 l 1
 100 0 l 1
 100 90 l 1
 100 355 l 1
 100 445 l 1
 100 710 l 1
 100 800 l 1
 200 800 l 1
 590 800 l 1
 590 710 l 1
 200 710 l 1
 200 445 l 1
 560 445 l 1
 560 355 l 1
 200 355 l 1
 200 90 l 1xfa
EndSplineSet
EndChar

StartChar: Odieresis
Encoding: 214 214 266
Width: 820
VWidth: 0
HStem: -20 90<294.413 525.587> 735 85<298.958 521.042> 920 140<225.875 334.125 485.875 594.125>
VStem: 90 100<170.439 624.08> 210 140<935.875 1044.13> 470 140<935.875 1044.13> 630 100<170.439 624.467>
AnchorPoint: "diac_top" 869.123 1080 basechar 0
LayerCount: 2
Fore
SplineSet
610 990 m 0
 610 951 579 920 540 920 c 0
 501 920 470 951 470 990 c 0
 470 1029 501 1060 540 1060 c 0
 579 1060 610 1029 610 990 c 0
350 990 m 0
 350 951 319 920 280 920 c 0
 241 920 210 951 210 990 c 0
 210 1029 241 1060 280 1060 c 0
 319 1060 350 1029 350 990 c 0
630 520 m 2
 630 649 537 735 410 735 c 0
 283 735 190 649 190 520 c 2
 190 270 l 2
 190 150 279 70 410 70 c 0
 541 70 630 150 630 270 c 2
 630 520 l 2
730 520 m 2
 730 270 l 2
 730 88 587 -20 410 -20 c 0
 233 -20 90 88 90 270 c 2
 90 520 l 2
 90 706 233 820 410 820 c 0
 587 820 730 707 730 520 c 2
EndSplineSet
EndChar

StartChar: Udieresis
Encoding: 220 220 267
Width: 800
VWidth: 0
HStem: -20 90<292.625 507.375> 780 20G<90 190 610 710> 920 140<215.875 324.125 475.875 584.125>
VStem: 90 100<172.438 800> 200 140<935.875 1044.13> 460 140<935.875 1044.13> 610 100<172.438 800>
LayerCount: 2
Fore
SplineSet
600 990 m 0
 600 951 569 920 530 920 c 0
 491 920 460 951 460 990 c 0
 460 1029 491 1060 530 1060 c 0
 569 1060 600 1029 600 990 c 0
340 990 m 0
 340 951 309 920 270 920 c 0
 231 920 200 951 200 990 c 0
 200 1029 231 1060 270 1060 c 0
 309 1060 340 1029 340 990 c 0
90 800 m 1
 190 800 l 1
 190 280 l 2
 190 131 297 70 400 70 c 0
 503 70 610 131 610 280 c 2
 610 800 l 1
 710 800 l 1
 710 280 l 2
 710 85 573 -20 400 -20 c 0
 227 -20 90 85 90 280 c 2
 90 800 l 1
EndSplineSet
EndChar

StartChar: adieresis
Encoding: 228 228 268
Width: 700
VWidth: 0
HStem: -20 90<225.691 405.827> -10 90<588.39 630> 290 70<221.5 480> 535 85<247.928 432.072> 720 140<155.875 264.125 415.875 524.125>
VStem: 80 100<114.164 248.997> 100 100<420 488.613> 140 140<735.875 844.125> 400 140<735.875 844.125> 480 100<129.206 290 360 488.613>
AnchorPoint: "diac_bottom" 328.744 -50 basechar 0
AnchorPoint: "diac_top" 724.1 880 basechar 0
LayerCount: 2
Fore
SplineSet
540 790 m 0x3880
 540 751 509 720 470 720 c 0
 431 720 400 751 400 790 c 0
 400 829 431 860 470 860 c 0
 509 860 540 829 540 790 c 0x3880
280 790 m 0x39
 280 751 249 720 210 720 c 0
 171 720 140 751 140 790 c 0
 140 829 171 860 210 860 c 0
 249 860 280 829 280 790 c 0x39
480 290 m 1xbc40
 320 290 l 2
 244 290 180 257 180 180 c 0
 180 110 244 70 320 70 c 0
 402 70 458 111 480 175 c 1
 480 290 l 1xbc40
200 420 m 1xba40
 100 420 l 1
 100 542 199 620 340 620 c 0
 481 620 580 542 580 420 c 2
 580 150 l 2
 580 96 593 80 630 80 c 1
 630 -10 l 1x7a40
 551 -10 498 16 484 70 c 1
 441 17 378 -20 300 -20 c 0
 167 -20 80 70 80 180 c 0xbc40
 80 304 185 360 310 360 c 2
 480 360 l 1
 480 420 l 2
 480 487 426 535 340 535 c 0
 254 535 200 487 200 420 c 1xba40
EndSplineSet
EndChar

StartChar: edieresis
Encoding: 235 235 269
Width: 680
VWidth: 0
HStem: -20 90<237.817 442.183> 290 70<180 500> 535 85<245.106 434.894> 720 140<155.875 264.125 415.875 524.125>
VStem: 80 100<123.204 290 360 465.395> 140 140<735.875 844.125> 400 140<735.875 844.125> 500 100<123.204 200 360 465.395>
LayerCount: 2
Fore
SplineSet
540 790 m 0xf2
 540 751 509 720 470 720 c 0
 431 720 400 751 400 790 c 0
 400 829 431 860 470 860 c 0
 509 860 540 829 540 790 c 0xf2
280 790 m 0xf4
 280 751 249 720 210 720 c 0
 171 720 140 751 140 790 c 0
 140 829 171 860 210 860 c 0
 249 860 280 829 280 790 c 0xf4
600 360 m 2xf9
 600 290 l 1
 180 290 l 1
 180 200 l 2
 180 101 268 70 340 70 c 0
 412 70 500 101 500 200 c 1
 600 200 l 1
 600 47 468 -20 340 -20 c 0
 212 -20 80 47 80 200 c 2
 80 360 l 2
 80 528 196 620 340 620 c 0
 484 620 600 528 600 360 c 2xf9
500 360 m 1
 500 489 425 535 340 535 c 0
 255 535 180 489 180 360 c 1
 500 360 l 1
EndSplineSet
EndChar

StartChar: udieresis
Encoding: 252 252 270
Width: 660
VWidth: 0
HStem: -20 90<242.795 417.205> 580 20G<90 190 470 570> 720 140<145.875 254.125 405.875 514.125>
VStem: 90 100<121.508 600> 130 140<735.875 844.125> 390 140<735.875 844.125> 470 100<121.508 600>
LayerCount: 2
Fore
SplineSet
530 790 m 0xe4
 530 751 499 720 460 720 c 0
 421 720 390 751 390 790 c 0
 390 829 421 860 460 860 c 0
 499 860 530 829 530 790 c 0xe4
270 790 m 0xe8
 270 751 239 720 200 720 c 0
 161 720 130 751 130 790 c 0
 130 829 161 860 200 860 c 0
 239 860 270 829 270 790 c 0xe8
190 200 m 2xf2
 190 113 254 70 330 70 c 0
 406 70 470 113 470 200 c 2
 470 600 l 1
 570 600 l 1
 570 200 l 2
 570 58 471 -20 330 -20 c 0
 189 -20 90 58 90 200 c 2
 90 600 l 1
 190 600 l 1
 190 200 l 2xf2
EndSplineSet
EndChar

StartChar: ydieresis
Encoding: 255 255 271
Width: 660
VWidth: 0
HStem: -290 90<100 202.938> 580 20G<40 157.5 502.5 620> 720 140<145.875 254.125 405.875 514.125>
VStem: 130 140<735.875 844.125> 390 140<735.875 844.125>
LayerCount: 2
Fore
SplineSet
530 790 m 0
 530 751 499 720 460 720 c 0
 421 720 390 751 390 790 c 0
 390 829 421 860 460 860 c 0
 499 860 530 829 530 790 c 0
270 790 m 0
 270 751 239 720 200 720 c 0
 161 720 130 751 130 790 c 0
 130 829 161 860 200 860 c 0
 239 860 270 829 270 790 c 0
510 600 m 1
 620 600 l 1
 380 0 l 1
 310 -180 l 1
 276 -264 238 -290 100 -290 c 1
 100 -200 l 1
 181 -200 197 -188 220 -150 c 1
 280 0 l 1
 40 600 l 1
 150 600 l 1
 330 120 l 1
 510 600 l 1
EndSplineSet
EndChar

StartChar: iacute
Encoding: 237 237 272
Width: 320
VWidth: 0
HStem: 0 21G<110 210> 580 20G<110 210>
VStem: 110 100<0 600>
LayerCount: 2
Fore
SplineSet
340 850 m 1
 210 850 l 1
 40 690 l 1
 105 690 l 1
 340 850 l 1
110 600 m 1
 210 600 l 1
 210 0 l 1
 110 0 l 1
 110 600 l 1
EndSplineSet
EndChar

StartChar: igrave
Encoding: 236 236 273
Width: 320
VWidth: 0
HStem: 0 21G<110 210> 580 20G<110 210>
VStem: 110 100<0 600>
LayerCount: 2
Fore
SplineSet
-40 850 m 1
 90 850 l 1
 260 690 l 1
 195 690 l 1
 -40 850 l 1
110 600 m 1
 210 600 l 1
 210 0 l 1
 110 0 l 1
 110 600 l 1
EndSplineSet
EndChar

StartChar: Agrave
Encoding: 192 192 274
Width: 800
VWidth: 0
HStem: 0 21G<30 147.758 652.242 770> 165 90<239 561> 780 20G<342 458>
AnchorPoint: "diac_top" 859.123 1080 basechar 0
LayerCount: 2
Fore
SplineSet
200 1050 m 1
 330 1050 l 1
 500 890 l 1
 435 890 l 1
 200 1050 l 1
561 255 m 1
 400 671 l 1
 239 255 l 1
 561 255 l 1
770 0 m 1
 660 0 l 1
 596 165 l 1
 204 165 l 1
 140 0 l 1
 30 0 l 1
 350 800 l 1
 450 800 l 1
 770 0 l 1
EndSplineSet
EndChar

StartChar: Aacute
Encoding: 193 193 275
Width: 800
VWidth: 0
HStem: 0 21G<30 147.758 652.242 770> 165 90<239 561> 780 20G<342 458>
AnchorPoint: "diac_top" 859.123 1080 basechar 0
LayerCount: 2
Fore
SplineSet
580 1050 m 1
 450 1050 l 1
 280 890 l 1
 345 890 l 1
 580 1050 l 1
561 255 m 1
 400 671 l 1
 239 255 l 1
 561 255 l 1
770 0 m 1
 660 0 l 1
 596 165 l 1
 204 165 l 1
 140 0 l 1
 30 0 l 1
 350 800 l 1
 450 800 l 1
 770 0 l 1
EndSplineSet
EndChar

StartChar: Acircumflex
Encoding: 194 194 276
Width: 800
VWidth: 0
HStem: 0 21G<30 147.758 652.242 770> 165 90<239 561> 780 20G<342 458>
AnchorPoint: "hook_above" 823.615 1020 basechar 0
AnchorPoint: "diac_top" 859.123 1080 basechar 0
LayerCount: 2
Fore
SplineSet
300 890 m 1
 190 890 l 1
 365 1050 l 1
 435 1050 l 1
 610 890 l 1
 500 890 l 1
 400 1009 l 1
 300 890 l 1
561 255 m 1
 400 671 l 1
 239 255 l 1
 561 255 l 1
770 0 m 1
 660 0 l 1
 596 165 l 1
 204 165 l 1
 140 0 l 1
 30 0 l 1
 350 800 l 1
 450 800 l 1
 770 0 l 1
EndSplineSet
EndChar

StartChar: Atilde
Encoding: 195 195 277
Width: 800
VWidth: 0
HStem: 0 21G<30 147.758 652.242 770> 165 90<239 561> 780 20G<342 458> 890 60<430.498 532.407> 970 60<267.593 369.502>
VStem: 200 45<907.2 941.34> 555 45<978.66 1012.8>
AnchorPoint: "diac_top" 859.123 1080 basechar 0
LayerCount: 2
Fore
SplineSet
320 1030 m 0
 359 1030 383 1017 410 995 c 0
 432 977 448 950 480 950 c 0
 522 950 544 984 555 1025 c 1
 600 1010 l 1
 590 948 551 890 480 890 c 0
 441 890 417 903 390 925 c 0
 368 943 352 970 320 970 c 0
 278 970 256 936 245 895 c 1
 200 910 l 1
 210 972 249 1030 320 1030 c 0
561 255 m 1
 400 671 l 1
 239 255 l 1
 561 255 l 1
770 0 m 1
 660 0 l 1
 596 165 l 1
 204 165 l 1
 140 0 l 1
 30 0 l 1
 350 800 l 1
 450 800 l 1
 770 0 l 1
EndSplineSet
EndChar

StartChar: Igrave
Encoding: 204 204 278
Width: 320
VWidth: 0
HStem: 0 21G<110 210> 780 20G<110 210>
VStem: 110 100<0 800>
AnchorPoint: "diac_bottom" 138.744 -50 basechar 0
AnchorPoint: "diac_top" 619.123 1080 basechar 0
LayerCount: 2
Fore
SplineSet
-40 1050 m 1
 90 1050 l 1
 260 890 l 1
 195 890 l 1
 -40 1050 l 1
110 800 m 1
 210 800 l 1
 210 0 l 1
 110 0 l 1
 110 800 l 1
EndSplineSet
EndChar

StartChar: Iacute
Encoding: 205 205 279
Width: 320
VWidth: 0
HStem: 0 21G<110 210> 780 20G<110 210>
VStem: 110 100<0 800>
AnchorPoint: "diac_bottom" 138.744 -50 basechar 0
AnchorPoint: "diac_top" 619.123 1080 basechar 0
LayerCount: 2
Fore
SplineSet
340 1050 m 1
 210 1050 l 1
 40 890 l 1
 105 890 l 1
 340 1050 l 1
110 800 m 1
 210 800 l 1
 210 0 l 1
 110 0 l 1
 110 800 l 1
EndSplineSet
EndChar

StartChar: Icircumflex
Encoding: 206 206 280
Width: 320
VWidth: 0
HStem: 0 21G<110 210> 780 20G<110 210>
VStem: 110 100<0 800>
AnchorPoint: "diac_bottom" 138.744 -50 basechar 0
AnchorPoint: "diac_top" 619.123 1080 basechar 0
LayerCount: 2
Fore
SplineSet
60 890 m 1
 -50 890 l 1
 125 1050 l 1
 195 1050 l 1
 370 890 l 1
 260 890 l 1
 160 1009 l 1
 60 890 l 1
110 800 m 1
 210 800 l 1
 210 0 l 1
 110 0 l 1
 110 800 l 1
EndSplineSet
EndChar

StartChar: Idieresis
Encoding: 207 207 281
Width: 320
VWidth: 0
HStem: 0 21G<110 210> 780 20G<110 210> 920 140<-24.1252 84.1252 235.875 344.125>
VStem: -40 140<935.875 1044.13> 110 100<0 800> 220 140<935.875 1044.13>
CounterMasks: 1 1c
AnchorPoint: "diac_bottom" 138.744 -50 basechar 0
AnchorPoint: "diac_top" 619.123 1080 basechar 0
LayerCount: 2
Fore
SplineSet
360 990 m 0
 360 951 329 920 290 920 c 0
 251 920 220 951 220 990 c 0
 220 1029 251 1060 290 1060 c 0
 329 1060 360 1029 360 990 c 0
100 990 m 0
 100 951 69 920 30 920 c 0
 -9 920 -40 951 -40 990 c 0
 -40 1029 -9 1060 30 1060 c 0
 69 1060 100 1029 100 990 c 0
110 800 m 1
 210 800 l 1
 210 0 l 1
 110 0 l 1
 110 800 l 1
EndSplineSet
EndChar

StartChar: Ntilde
Encoding: 209 209 282
Width: 800
VWidth: 0
HStem: 0 21G<100 200 587.302 700> 780 20G<100 212.698 600 700> 890 60<440.498 542.407> 970 60<277.593 379.502>
VStem: 100 100<0 630> 210 45<907.2 941.34> 565 45<978.66 1012.8> 600 100<170 800>
AnchorPoint: "diac_top" 859.123 1080 basechar 0
LayerCount: 2
Fore
SplineSet
330 1030 m 0xfe
 369 1030 393 1017 420 995 c 0
 442 977 458 950 490 950 c 0
 532 950 554 984 565 1025 c 1
 610 1010 l 1
 600 948 561 890 490 890 c 0
 451 890 427 903 400 925 c 0
 378 943 362 970 330 970 c 0
 288 970 266 936 255 895 c 1
 210 910 l 1
 220 972 259 1030 330 1030 c 0xfe
200 0 m 1
 100 0 l 1
 100 800 l 1
 200 800 l 1
 600 170 l 1
 600 800 l 1
 700 800 l 1
 700 0 l 1
 600 0 l 1xfd
 200 630 l 1
 200 0 l 1
EndSplineSet
EndChar

StartChar: Ograve
Encoding: 210 210 283
Width: 820
VWidth: 0
HStem: -20 90<294.413 525.587> 735 85<298.958 521.042>
VStem: 90 100<170.439 624.08> 630 100<170.439 624.467>
AnchorPoint: "diac_top" 869.123 1080 basechar 0
LayerCount: 2
Fore
SplineSet
210 1050 m 1
 340 1050 l 1
 510 890 l 1
 445 890 l 1
 210 1050 l 1
630 520 m 2
 630 649 537 735 410 735 c 0
 283 735 190 649 190 520 c 2
 190 270 l 2
 190 150 279 70 410 70 c 0
 541 70 630 150 630 270 c 2
 630 520 l 2
730 520 m 2
 730 270 l 2
 730 88 587 -20 410 -20 c 0
 233 -20 90 88 90 270 c 2
 90 520 l 2
 90 706 233 820 410 820 c 0
 587 820 730 707 730 520 c 2
EndSplineSet
EndChar

StartChar: Oacute
Encoding: 211 211 284
Width: 820
VWidth: 0
HStem: -20 90<294.413 525.587> 735 85<298.958 521.042>
VStem: 90 100<170.439 624.08> 630 100<170.439 624.467>
LayerCount: 2
Fore
SplineSet
590 1050 m 1
 460 1050 l 1
 290 890 l 1
 355 890 l 1
 590 1050 l 1
630 520 m 2
 630 649 537 735 410 735 c 0
 283 735 190 649 190 520 c 2
 190 270 l 2
 190 150 279 70 410 70 c 0
 541 70 630 150 630 270 c 2
 630 520 l 2
730 520 m 2
 730 270 l 2
 730 88 587 -20 410 -20 c 0
 233 -20 90 88 90 270 c 2
 90 520 l 2
 90 706 233 820 410 820 c 0
 587 820 730 707 730 520 c 2
EndSplineSet
EndChar

StartChar: Ocircumflex
Encoding: 212 212 285
Width: 820
VWidth: 0
HStem: -20 90<294.413 525.587> 735 85<298.958 521.042>
VStem: 90 100<170.439 624.08> 630 100<170.439 624.467>
AnchorPoint: "hook_above" 843.615 1020 basechar 0
AnchorPoint: "diac_top" 869.123 1080 basechar 0
LayerCount: 2
Fore
SplineSet
310 890 m 1
 200 890 l 1
 375 1050 l 1
 445 1050 l 1
 620 890 l 1
 510 890 l 1
 410 1009 l 1
 310 890 l 1
630 520 m 2
 630 649 537 735 410 735 c 0
 283 735 190 649 190 520 c 2
 190 270 l 2
 190 150 279 70 410 70 c 0
 541 70 630 150 630 270 c 2
 630 520 l 2
730 520 m 2
 730 270 l 2
 730 88 587 -20 410 -20 c 0
 233 -20 90 88 90 270 c 2
 90 520 l 2
 90 706 233 820 410 820 c 0
 587 820 730 707 730 520 c 2
EndSplineSet
EndChar

